%TF.GenerationSoftware,KiCad,Pcbnew,7.0.6*%
%TF.CreationDate,2024-01-20T21:08:05-07:00*%
%TF.ProjectId,SparkFun_AirQuality_Combo,53706172-6b46-4756-9e5f-416972517561,rev?*%
%TF.SameCoordinates,Original*%
%TF.FileFunction,Copper,L2,Bot*%
%TF.FilePolarity,Positive*%
%FSLAX46Y46*%
G04 Gerber Fmt 4.6, Leading zero omitted, Abs format (unit mm)*
G04 Created by KiCad (PCBNEW 7.0.6) date 2024-01-20 21:08:05*
%MOMM*%
%LPD*%
G01*
G04 APERTURE LIST*
%ADD10C,0.254000*%
%TA.AperFunction,SMDPad,CuDef*%
%ADD11R,5.300000X1.900000*%
%TD*%
%TA.AperFunction,ComponentPad*%
%ADD12C,1.879600*%
%TD*%
%TA.AperFunction,SMDPad,CuDef*%
%ADD13R,0.660400X1.270000*%
%TD*%
%TA.AperFunction,SMDPad,CuDef*%
%ADD14C,0.500000*%
%TD*%
%TA.AperFunction,ViaPad*%
%ADD15C,0.560000*%
%TD*%
%TA.AperFunction,Conductor*%
%ADD16C,0.406400*%
%TD*%
%TA.AperFunction,Conductor*%
%ADD17C,0.558800*%
%TD*%
%TA.AperFunction,Conductor*%
%ADD18C,0.177800*%
%TD*%
G04 APERTURE END LIST*
D10*
G36*
X9056672Y1676433D02*
G01*
X9075911Y1657194D01*
X9108839Y1591338D01*
X9150047Y1426506D01*
X9150047Y1215870D01*
X9108838Y1051037D01*
X9075911Y985182D01*
X9056673Y965944D01*
X9005162Y940188D01*
X8968360Y940188D01*
X8916848Y965944D01*
X8897611Y985181D01*
X8864683Y1051037D01*
X8823474Y1215870D01*
X8823474Y1426506D01*
X8864683Y1591338D01*
X8897610Y1657194D01*
X8916850Y1676433D01*
X8968360Y1702188D01*
X9005162Y1702188D01*
X9056672Y1676433D01*
G37*
G36*
X10368374Y541045D02*
G01*
X7458006Y541045D01*
X7458006Y795114D01*
X7603149Y795114D01*
X7632876Y730021D01*
X7693076Y691332D01*
X7728856Y686188D01*
X8309428Y686188D01*
X8378089Y706349D01*
X8424951Y760430D01*
X8435135Y831262D01*
X8405408Y896355D01*
X8345208Y935044D01*
X8309428Y940188D01*
X8146142Y940188D01*
X8146142Y1200235D01*
X8569475Y1200235D01*
X8570447Y1196923D01*
X8573267Y1169433D01*
X8621648Y975909D01*
X8623900Y972070D01*
X8631264Y949915D01*
X8679645Y853153D01*
X8681265Y851411D01*
X8681772Y849084D01*
X8703434Y820146D01*
X8751815Y771765D01*
X8753905Y770624D01*
X8755121Y768577D01*
X8784823Y747975D01*
X8881585Y699595D01*
X8892915Y697557D01*
X8902600Y691332D01*
X8938380Y686188D01*
X9035142Y686188D01*
X9046186Y689432D01*
X9057634Y688195D01*
X9091937Y699595D01*
X9188699Y747975D01*
X9190442Y749597D01*
X9192769Y750103D01*
X9221707Y771765D01*
X9270088Y820146D01*
X9271229Y822236D01*
X9273275Y823451D01*
X9293877Y853153D01*
X9342258Y949915D01*
X9343046Y954296D01*
X9351874Y975909D01*
X9400255Y1169433D01*
X9400114Y1172884D01*
X9404047Y1200235D01*
X9404047Y1442140D01*
X9403074Y1445453D01*
X9400255Y1472942D01*
X9397682Y1483232D01*
X9488922Y1483232D01*
X9496112Y1447806D01*
X9738017Y770474D01*
X9754937Y747200D01*
X9769079Y722140D01*
X9775695Y718647D01*
X9780096Y712593D01*
X9806917Y702160D01*
X9832359Y688726D01*
X9839813Y689364D01*
X9846788Y686651D01*
X9874989Y692375D01*
X9903658Y694828D01*
X9909585Y699396D01*
X9916919Y700884D01*
X9937544Y720941D01*
X9960341Y738508D01*
X9965334Y747965D01*
X9968221Y750772D01*
X9969323Y755521D01*
X9977219Y770473D01*
X10219124Y1447806D01*
X10223231Y1519248D01*
X10188062Y1581569D01*
X10124782Y1614983D01*
X10053483Y1608881D01*
X9996800Y1565201D01*
X9979922Y1533235D01*
X9857618Y1190786D01*
X9735314Y1533236D01*
X9693235Y1591116D01*
X9626543Y1617058D01*
X9556412Y1602826D01*
X9505110Y1552937D01*
X9488922Y1483232D01*
X9397682Y1483232D01*
X9351874Y1666466D01*
X9349621Y1670306D01*
X9342258Y1692460D01*
X9293877Y1789222D01*
X9292256Y1790965D01*
X9291750Y1793291D01*
X9270088Y1822229D01*
X9221707Y1870610D01*
X9219617Y1871752D01*
X9218402Y1873797D01*
X9188700Y1894399D01*
X9091938Y1942780D01*
X9080608Y1944819D01*
X9070922Y1951044D01*
X9035142Y1956188D01*
X8938380Y1956188D01*
X8927334Y1952945D01*
X8915887Y1954181D01*
X8881584Y1942780D01*
X8784822Y1894399D01*
X8783079Y1892779D01*
X8780753Y1892272D01*
X8751815Y1870610D01*
X8703434Y1822229D01*
X8702292Y1820140D01*
X8700247Y1818924D01*
X8679645Y1789222D01*
X8631264Y1692460D01*
X8630475Y1688080D01*
X8621648Y1666466D01*
X8573267Y1472942D01*
X8573407Y1469492D01*
X8569475Y1442140D01*
X8569475Y1200235D01*
X8146142Y1200235D01*
X8146142Y1480439D01*
X8155870Y1473691D01*
X8252632Y1425310D01*
X8323060Y1412636D01*
X8389161Y1440050D01*
X8429947Y1498850D01*
X8432468Y1570365D01*
X8395926Y1631892D01*
X8366224Y1652494D01*
X8287896Y1691658D01*
X8214596Y1764959D01*
X8124812Y1899635D01*
X8098170Y1921948D01*
X8071900Y1944711D01*
X8070801Y1944869D01*
X8069951Y1945581D01*
X8035462Y1949950D01*
X8001068Y1954895D01*
X8000059Y1954435D01*
X7998959Y1954574D01*
X7967587Y1939605D01*
X7935975Y1925168D01*
X7935375Y1924235D01*
X7934374Y1923757D01*
X7916094Y1894234D01*
X7897286Y1864968D01*
X7897077Y1863521D01*
X7896703Y1862915D01*
X7896733Y1861123D01*
X7892142Y1829188D01*
X7892142Y940188D01*
X7728856Y940188D01*
X7660195Y920027D01*
X7613333Y865946D01*
X7603149Y795114D01*
X7458006Y795114D01*
X7458006Y2101331D01*
X10368374Y2101331D01*
X10368374Y541045D01*
G37*
%TA.AperFunction,EtchedComponent*%
%TO.C,JP2*%
G36*
X67128200Y2707500D02*
G01*
X66628200Y2707500D01*
X66628200Y3007500D01*
X67128200Y3007500D01*
X67128200Y2707500D01*
G37*
%TD.AperFunction*%
%TA.AperFunction,EtchedComponent*%
%TO.C,JP1*%
G36*
X65134300Y30965000D02*
G01*
X64634300Y30965000D01*
X64634300Y31265000D01*
X65134300Y31265000D01*
X65134300Y30965000D01*
G37*
%TD.AperFunction*%
%TA.AperFunction,EtchedComponent*%
G36*
X66167000Y30942000D02*
G01*
X65667000Y30942000D01*
X65667000Y31242000D01*
X66167000Y31242000D01*
X66167000Y30942000D01*
G37*
%TD.AperFunction*%
%TD*%
D11*
%TO.P,L1,1,1*%
%TO.N,3.3V*%
X79375000Y11317500D03*
%TO.P,L1,2,2*%
%TO.N,Net-(U5-SW)*%
X79375000Y14717500D03*
%TD*%
D12*
%TO.P,J3,1,Pin_1*%
%TO.N,GND*%
X68580000Y43180000D03*
%TO.P,J3,2,Pin_2*%
%TO.N,3.3V*%
X66040000Y43180000D03*
%TO.P,J3,3,Pin_3*%
%TO.N,SDA*%
X63500000Y43180000D03*
%TO.P,J3,4,Pin_4*%
%TO.N,SCL*%
X60960000Y43180000D03*
%TD*%
D13*
%TO.P,JP2,1,A*%
%TO.N,Net-(JP2-A)*%
X66357500Y2857500D03*
%TO.P,JP2,2,B*%
%TO.N,3.3V*%
X67398900Y2857500D03*
%TD*%
%TO.P,JP1,1,A*%
%TO.N,Net-(JP1-A)*%
X64363600Y31115000D03*
%TO.P,JP1,2,C*%
%TO.N,3.3V*%
X65405000Y31115000D03*
%TO.P,JP1,3,B*%
%TO.N,Net-(JP1-B)*%
X66446400Y31115000D03*
%TD*%
D14*
%TO.P,FID2,*%
%TO.N,*%
X6350000Y43180000D03*
%TD*%
%TO.P,FID1,*%
%TO.N,*%
X81280000Y6350000D03*
%TD*%
D15*
%TO.N,3.3V*%
X80010000Y9842500D03*
%TO.N,Net-(U5-SW)*%
X80327500Y16192500D03*
%TO.N,3.3V*%
X74930000Y6985000D03*
X74930000Y20955000D03*
X74910000Y32267484D03*
X71869200Y34925000D03*
%TO.N,GND*%
X76200000Y8572500D03*
X71755000Y28575000D03*
X77152500Y13017500D03*
X75565000Y24765000D03*
X69215000Y33972500D03*
X64770000Y4127500D03*
X72072500Y3810000D03*
X70802500Y10795000D03*
X72072500Y6350000D03*
X75565000Y28575000D03*
X71755000Y24765000D03*
X76200000Y32385000D03*
X75247500Y40640000D03*
X71120000Y13017500D03*
X77470000Y33655000D03*
X76200000Y39052500D03*
X76200000Y20955000D03*
%TO.N,SDA*%
X73977500Y8255000D03*
X73977500Y3810000D03*
X73342500Y34925000D03*
%TO.N,SCL*%
X73025000Y12065000D03*
X72390000Y32385000D03*
X68897500Y38100000D03*
X74930000Y3175000D03*
X64135000Y38100000D03*
%TO.N,Net-(JP1-A)*%
X64135000Y33337500D03*
%TO.N,Net-(JP1-B)*%
X66675000Y33337500D03*
%TO.N,Net-(JP2-A)*%
X64452500Y1587500D03*
%TD*%
D16*
%TO.N,3.3V*%
X74612500Y21272500D02*
X74612500Y31969984D01*
X74930000Y20955000D02*
X74612500Y21272500D01*
X74612500Y31969984D02*
X74910000Y32267484D01*
D17*
X79692500Y9842500D02*
X80010000Y9842500D01*
X79375000Y10160000D02*
X79692500Y9842500D01*
X79375000Y11317500D02*
X79375000Y10160000D01*
%TO.N,Net-(U5-SW)*%
X79692500Y16192500D02*
X80327500Y16192500D01*
X79375000Y15875000D02*
X79692500Y16192500D01*
X79375000Y14717500D02*
X79375000Y15875000D01*
D16*
%TO.N,3.3V*%
X74930000Y20955000D02*
X74930000Y6985000D01*
D18*
X72390000Y2857500D02*
X72707500Y2540000D01*
X65722500Y34925000D02*
X71869200Y34925000D01*
X76200000Y3175000D02*
X76200000Y5715000D01*
X65405000Y34607500D02*
X65722500Y34925000D01*
X65405000Y31115000D02*
X65405000Y34607500D01*
X72707500Y2540000D02*
X75565000Y2540000D01*
X75565000Y2540000D02*
X76200000Y3175000D01*
X67398900Y2857500D02*
X72390000Y2857500D01*
X76200000Y5715000D02*
X74930000Y6985000D01*
%TO.N,SDA*%
X73342500Y34925000D02*
X73342500Y31899474D01*
X73355200Y12472030D02*
X73977500Y11849730D01*
X73342500Y31899474D02*
X73355200Y31886773D01*
X73977500Y8255000D02*
X73977500Y3810000D01*
X73355200Y31886773D02*
X73355200Y12472030D01*
X73977500Y11849730D02*
X73977500Y8255000D01*
%TO.N,SCL*%
X73025000Y31750000D02*
X72390000Y32385000D01*
X61595000Y38100000D02*
X60960000Y38735000D01*
X72390000Y36830000D02*
X71120000Y38100000D01*
X68897500Y38100000D02*
X61595000Y38100000D01*
X73342500Y3175000D02*
X74930000Y3175000D01*
X60960000Y38735000D02*
X60960000Y43180000D01*
X72390000Y32385000D02*
X72390000Y36830000D01*
X73025000Y12065000D02*
X73025000Y31750000D01*
X73025000Y12065000D02*
X73025000Y3492500D01*
X73025000Y3492500D02*
X73342500Y3175000D01*
X71120000Y38100000D02*
X68897500Y38100000D01*
%TO.N,Net-(JP1-A)*%
X64363600Y33108900D02*
X64135000Y33337500D01*
X64363600Y31115000D02*
X64363600Y33108900D01*
%TO.N,Net-(JP1-B)*%
X66446400Y31115000D02*
X66446400Y33108900D01*
X66446400Y33108900D02*
X66675000Y33337500D01*
%TO.N,Net-(JP2-A)*%
X64452500Y2222500D02*
X64452500Y1587500D01*
X66357500Y2857500D02*
X65087500Y2857500D01*
X65087500Y2857500D02*
X64452500Y2222500D01*
%TD*%
%TA.AperFunction,Conductor*%
%TO.N,GND*%
G36*
X60243903Y44174935D02*
G01*
X60273967Y44122864D01*
X60263526Y44063650D01*
X60246620Y44042641D01*
X60130173Y43936485D01*
X60005302Y43771129D01*
X60005300Y43771126D01*
X60005300Y43771125D01*
X59939984Y43639953D01*
X59912936Y43585634D01*
X59912934Y43585629D01*
X59856229Y43386335D01*
X59856229Y43386334D01*
X59837110Y43180001D01*
X59837110Y43180000D01*
X59856229Y42973667D01*
X59856229Y42973666D01*
X59910830Y42781768D01*
X59912936Y42774365D01*
X60005300Y42588875D01*
X60130174Y42423514D01*
X60221584Y42340183D01*
X60283305Y42283916D01*
X60283314Y42283910D01*
X60400759Y42211192D01*
X60459485Y42174830D01*
X60459489Y42174829D01*
X60459488Y42174829D01*
X60636653Y42106195D01*
X60681910Y42066609D01*
X60692800Y42024231D01*
X60692800Y38769981D01*
X60691111Y38752832D01*
X60687564Y38735000D01*
X60708303Y38630743D01*
X60744043Y38577254D01*
X60767359Y38542359D01*
X60767362Y38542357D01*
X60767363Y38542356D01*
X60782471Y38532261D01*
X60795792Y38521330D01*
X61381331Y37935791D01*
X61392262Y37922470D01*
X61402359Y37907359D01*
X61402362Y37907357D01*
X61424671Y37892450D01*
X61474280Y37859304D01*
X61490744Y37848303D01*
X61595000Y37827564D01*
X61612831Y37831112D01*
X61629980Y37832800D01*
X63719970Y37832800D01*
X63776471Y37812235D01*
X63786400Y37802462D01*
X63831791Y37750078D01*
X63831793Y37750077D01*
X63831794Y37750076D01*
X63942653Y37678831D01*
X63942654Y37678831D01*
X63942657Y37678829D01*
X64028782Y37653541D01*
X64069101Y37641701D01*
X64069104Y37641701D01*
X64069106Y37641700D01*
X64069107Y37641700D01*
X64200893Y37641700D01*
X64200894Y37641700D01*
X64200896Y37641701D01*
X64200898Y37641701D01*
X64215927Y37646115D01*
X64327343Y37678829D01*
X64438209Y37750078D01*
X64483599Y37802462D01*
X64536142Y37831696D01*
X64550030Y37832800D01*
X68482470Y37832800D01*
X68538971Y37812235D01*
X68548900Y37802462D01*
X68594291Y37750078D01*
X68594293Y37750077D01*
X68594294Y37750076D01*
X68705153Y37678831D01*
X68705154Y37678831D01*
X68705157Y37678829D01*
X68791282Y37653541D01*
X68831601Y37641701D01*
X68831604Y37641701D01*
X68831606Y37641700D01*
X68831607Y37641700D01*
X68963393Y37641700D01*
X68963394Y37641700D01*
X68963396Y37641701D01*
X68963398Y37641701D01*
X68978427Y37646115D01*
X69089843Y37678829D01*
X69200709Y37750078D01*
X69246099Y37802462D01*
X69298642Y37831696D01*
X69312530Y37832800D01*
X70972912Y37832800D01*
X71029413Y37812235D01*
X71035067Y37807055D01*
X72097055Y36745068D01*
X72122466Y36690574D01*
X72122800Y36682913D01*
X72122800Y35445605D01*
X72102235Y35389104D01*
X72050164Y35359040D01*
X72010135Y35361266D01*
X71935098Y35383300D01*
X71935094Y35383300D01*
X71803306Y35383300D01*
X71803301Y35383300D01*
X71676857Y35346171D01*
X71676853Y35346170D01*
X71565994Y35274925D01*
X71565989Y35274920D01*
X71520600Y35222538D01*
X71468058Y35193304D01*
X71454170Y35192200D01*
X65757480Y35192200D01*
X65740331Y35193889D01*
X65722500Y35197436D01*
X65614593Y35175972D01*
X65607402Y35169454D01*
X65529861Y35117643D01*
X65529857Y35117639D01*
X65519760Y35102528D01*
X65508831Y35089211D01*
X65240790Y34821170D01*
X65227472Y34810240D01*
X65212359Y34800142D01*
X65212356Y34800139D01*
X65168183Y34734032D01*
X65168180Y34734023D01*
X65153304Y34711761D01*
X65153302Y34711755D01*
X65132564Y34607500D01*
X65136111Y34589669D01*
X65137800Y34572520D01*
X65137800Y32015902D01*
X65117235Y31959401D01*
X65065164Y31929337D01*
X65058519Y31928426D01*
X65057240Y31928301D01*
X65005234Y31917957D01*
X65005233Y31917957D01*
X64965097Y31891139D01*
X64946255Y31878548D01*
X64939055Y31873737D01*
X64938260Y31874927D01*
X64891961Y31853337D01*
X64833883Y31868900D01*
X64822533Y31878422D01*
X64822347Y31878546D01*
X64822347Y31878547D01*
X64763369Y31917955D01*
X64738052Y31922991D01*
X64711352Y31928302D01*
X64710069Y31928428D01*
X64709611Y31928648D01*
X64707126Y31929142D01*
X64707252Y31929780D01*
X64655860Y31954441D01*
X64631055Y32009213D01*
X64630800Y32015903D01*
X64630800Y33073925D01*
X64632489Y33091074D01*
X64636035Y33108901D01*
X64615297Y33213157D01*
X64615295Y33213160D01*
X64605074Y33228456D01*
X64590781Y33286858D01*
X64591146Y33289743D01*
X64598013Y33337500D01*
X64598012Y33337504D01*
X64579259Y33467940D01*
X64579258Y33467941D01*
X64579258Y33467946D01*
X64524511Y33587824D01*
X64524510Y33587825D01*
X64524510Y33587826D01*
X64481360Y33637624D01*
X64438209Y33687422D01*
X64438206Y33687424D01*
X64438205Y33687425D01*
X64327346Y33758670D01*
X64327343Y33758671D01*
X64302053Y33766097D01*
X64200898Y33795800D01*
X64200894Y33795800D01*
X64069106Y33795800D01*
X64069101Y33795800D01*
X63942657Y33758671D01*
X63942653Y33758670D01*
X63831794Y33687425D01*
X63831789Y33687420D01*
X63745489Y33587826D01*
X63690742Y33467946D01*
X63690740Y33467940D01*
X63671987Y33337504D01*
X63671987Y33337497D01*
X63690740Y33207061D01*
X63690742Y33207055D01*
X63745489Y33087175D01*
X63756975Y33073920D01*
X63831791Y32987578D01*
X63831793Y32987577D01*
X63831794Y32987576D01*
X63942653Y32916331D01*
X63942655Y32916331D01*
X63942657Y32916329D01*
X63994041Y32901242D01*
X64033264Y32889724D01*
X64081683Y32854074D01*
X64096400Y32805385D01*
X64096400Y32015902D01*
X64075835Y31959401D01*
X64023764Y31929337D01*
X64017119Y31928426D01*
X64015840Y31928301D01*
X63963834Y31917957D01*
X63963833Y31917957D01*
X63904854Y31878548D01*
X63904852Y31878546D01*
X63865445Y31819569D01*
X63855100Y31767560D01*
X63855100Y30462437D01*
X63855101Y30462435D01*
X63865443Y30410435D01*
X63865443Y30410434D01*
X63865444Y30410432D01*
X63865445Y30410431D01*
X63904853Y30351453D01*
X63963831Y30312045D01*
X64015839Y30301700D01*
X64711360Y30301701D01*
X64711363Y30301701D01*
X64711365Y30301702D01*
X64763365Y30312044D01*
X64763366Y30312044D01*
X64763366Y30312045D01*
X64763369Y30312045D01*
X64822347Y30351453D01*
X64822347Y30351454D01*
X64829545Y30356263D01*
X64830340Y30355072D01*
X64876632Y30376663D01*
X64934711Y30361106D01*
X64946061Y30351582D01*
X64946252Y30351455D01*
X64946253Y30351453D01*
X65005231Y30312045D01*
X65057239Y30301700D01*
X65752760Y30301701D01*
X65752763Y30301701D01*
X65752765Y30301702D01*
X65804765Y30312044D01*
X65804766Y30312044D01*
X65804766Y30312045D01*
X65804769Y30312045D01*
X65863747Y30351453D01*
X65863747Y30351454D01*
X65870945Y30356263D01*
X65871740Y30355072D01*
X65918032Y30376663D01*
X65976111Y30361106D01*
X65987461Y30351582D01*
X65987652Y30351455D01*
X65987653Y30351453D01*
X66046631Y30312045D01*
X66098639Y30301700D01*
X66794160Y30301701D01*
X66794163Y30301701D01*
X66794165Y30301702D01*
X66846165Y30312044D01*
X66846166Y30312044D01*
X66846166Y30312045D01*
X66846169Y30312045D01*
X66905147Y30351453D01*
X66944555Y30410431D01*
X66954900Y30462439D01*
X66954899Y31767560D01*
X66954899Y31767561D01*
X66954899Y31767564D01*
X66954898Y31767566D01*
X66944556Y31819566D01*
X66944556Y31819567D01*
X66944555Y31819569D01*
X66905147Y31878547D01*
X66846169Y31917955D01*
X66820852Y31922991D01*
X66794152Y31928302D01*
X66792869Y31928428D01*
X66792411Y31928648D01*
X66789926Y31929142D01*
X66790052Y31929780D01*
X66738660Y31954441D01*
X66713855Y32009213D01*
X66713600Y32015903D01*
X66713600Y32805385D01*
X66734165Y32861886D01*
X66776736Y32889724D01*
X66801764Y32897074D01*
X66867343Y32916329D01*
X66978209Y32987578D01*
X67064511Y33087176D01*
X67119258Y33207054D01*
X67131155Y33289800D01*
X67138013Y33337497D01*
X67138013Y33337504D01*
X67119259Y33467940D01*
X67119258Y33467941D01*
X67119258Y33467946D01*
X67064511Y33587824D01*
X67064510Y33587825D01*
X67064510Y33587826D01*
X67021360Y33637624D01*
X66978209Y33687422D01*
X66978206Y33687424D01*
X66978205Y33687425D01*
X66867346Y33758670D01*
X66867343Y33758671D01*
X66842053Y33766097D01*
X66740898Y33795800D01*
X66740894Y33795800D01*
X66609106Y33795800D01*
X66609101Y33795800D01*
X66482657Y33758671D01*
X66482653Y33758670D01*
X66371794Y33687425D01*
X66371789Y33687420D01*
X66285489Y33587826D01*
X66230742Y33467946D01*
X66230740Y33467940D01*
X66211987Y33337504D01*
X66211987Y33337497D01*
X66218844Y33289800D01*
X66206529Y33230948D01*
X66204927Y33228460D01*
X66194704Y33213160D01*
X66194702Y33213155D01*
X66173964Y33108900D01*
X66177511Y33091069D01*
X66179200Y33073920D01*
X66179200Y32015902D01*
X66158635Y31959401D01*
X66106564Y31929337D01*
X66099919Y31928426D01*
X66098640Y31928301D01*
X66046634Y31917957D01*
X66046633Y31917957D01*
X66006497Y31891139D01*
X65987655Y31878548D01*
X65980455Y31873737D01*
X65979660Y31874927D01*
X65933361Y31853337D01*
X65875283Y31868900D01*
X65863933Y31878422D01*
X65863747Y31878546D01*
X65863747Y31878547D01*
X65804769Y31917955D01*
X65779452Y31922991D01*
X65752752Y31928302D01*
X65751469Y31928428D01*
X65751011Y31928648D01*
X65748526Y31929142D01*
X65748652Y31929780D01*
X65697260Y31954441D01*
X65672455Y32009213D01*
X65672200Y32015903D01*
X65672200Y34460412D01*
X65692765Y34516913D01*
X65697945Y34522567D01*
X65807433Y34632055D01*
X65861927Y34657466D01*
X65869588Y34657800D01*
X71454170Y34657800D01*
X71510671Y34637235D01*
X71520600Y34627462D01*
X71565991Y34575078D01*
X71565993Y34575077D01*
X71565994Y34575076D01*
X71676853Y34503831D01*
X71676854Y34503831D01*
X71676857Y34503829D01*
X71762982Y34478541D01*
X71803301Y34466701D01*
X71803304Y34466701D01*
X71803306Y34466700D01*
X71803307Y34466700D01*
X71935093Y34466700D01*
X71935094Y34466700D01*
X71935096Y34466701D01*
X71935098Y34466701D01*
X72010135Y34488734D01*
X72070141Y34484921D01*
X72113658Y34443429D01*
X72122800Y34404395D01*
X72122800Y32806061D01*
X72102235Y32749560D01*
X72091000Y32739667D01*
X72091543Y32739040D01*
X72086792Y32734924D01*
X72000488Y32635323D01*
X71945742Y32515446D01*
X71945740Y32515440D01*
X71926987Y32385004D01*
X71926987Y32384997D01*
X71945740Y32254561D01*
X71945742Y32254555D01*
X72000489Y32134675D01*
X72042322Y32086398D01*
X72086791Y32035078D01*
X72086793Y32035077D01*
X72086794Y32035076D01*
X72197653Y31963831D01*
X72197654Y31963831D01*
X72197657Y31963829D01*
X72283782Y31938541D01*
X72324101Y31926701D01*
X72324104Y31926701D01*
X72324106Y31926700D01*
X72324107Y31926700D01*
X72434012Y31926700D01*
X72490513Y31906135D01*
X72496167Y31900955D01*
X72732055Y31665067D01*
X72757466Y31610573D01*
X72757800Y31602912D01*
X72757800Y12486061D01*
X72737235Y12429560D01*
X72726000Y12419667D01*
X72726543Y12419040D01*
X72721792Y12414924D01*
X72635488Y12315323D01*
X72580742Y12195446D01*
X72580740Y12195440D01*
X72561987Y12065004D01*
X72561987Y12064997D01*
X72580740Y11934561D01*
X72580741Y11934556D01*
X72580742Y11934554D01*
X72635489Y11814676D01*
X72701017Y11739053D01*
X72721790Y11715079D01*
X72726542Y11710962D01*
X72724486Y11708590D01*
X72753824Y11670078D01*
X72757800Y11643940D01*
X72757800Y3527481D01*
X72756111Y3510332D01*
X72752564Y3492501D01*
X72768623Y3411766D01*
X72773303Y3388243D01*
X72801977Y3345329D01*
X72832359Y3299859D01*
X72832362Y3299857D01*
X72832363Y3299856D01*
X72847471Y3289761D01*
X72860792Y3278830D01*
X73128831Y3010791D01*
X73139762Y2997470D01*
X73149859Y2982359D01*
X73171070Y2968187D01*
X73206624Y2919698D01*
X73202692Y2859699D01*
X73161114Y2816265D01*
X73122236Y2807200D01*
X72854588Y2807200D01*
X72798087Y2827765D01*
X72792433Y2832945D01*
X72603670Y3021708D01*
X72592739Y3035029D01*
X72582644Y3050137D01*
X72582642Y3050139D01*
X72582641Y3050141D01*
X72547746Y3073457D01*
X72494257Y3109197D01*
X72494254Y3109198D01*
X72390000Y3129936D01*
X72372169Y3126389D01*
X72355020Y3124700D01*
X67995299Y3124700D01*
X67938798Y3145265D01*
X67908734Y3197336D01*
X67907399Y3212600D01*
X67907399Y3345330D01*
X67907399Y3510060D01*
X67906449Y3514836D01*
X67897056Y3562066D01*
X67897056Y3562067D01*
X67886789Y3577433D01*
X67857647Y3621047D01*
X67798669Y3660455D01*
X67746661Y3670800D01*
X67746659Y3670800D01*
X67051136Y3670800D01*
X67051134Y3670799D01*
X66999134Y3660457D01*
X66999133Y3660457D01*
X66982538Y3649368D01*
X66940155Y3621048D01*
X66932955Y3616237D01*
X66932160Y3617427D01*
X66885861Y3595837D01*
X66827783Y3611400D01*
X66816433Y3620922D01*
X66816247Y3621046D01*
X66816247Y3621047D01*
X66757269Y3660455D01*
X66705261Y3670800D01*
X66705259Y3670800D01*
X66009736Y3670800D01*
X66009734Y3670799D01*
X65957734Y3660457D01*
X65957733Y3660457D01*
X65898754Y3621048D01*
X65898752Y3621046D01*
X65859345Y3562069D01*
X65849000Y3510060D01*
X65849000Y3212600D01*
X65828435Y3156099D01*
X65776364Y3126035D01*
X65761100Y3124700D01*
X65122480Y3124700D01*
X65105331Y3126389D01*
X65087500Y3129936D01*
X64996415Y3111817D01*
X64983246Y3109198D01*
X64983244Y3109197D01*
X64894860Y3050142D01*
X64894857Y3050139D01*
X64884760Y3035028D01*
X64873831Y3021711D01*
X64288290Y2436170D01*
X64274972Y2425240D01*
X64259859Y2415142D01*
X64259856Y2415139D01*
X64215683Y2349032D01*
X64215680Y2349023D01*
X64200804Y2326761D01*
X64200802Y2326755D01*
X64180064Y2222500D01*
X64183611Y2204669D01*
X64185300Y2187520D01*
X64185300Y2008561D01*
X64164735Y1952060D01*
X64153500Y1942167D01*
X64154043Y1941540D01*
X64149292Y1937424D01*
X64062988Y1837823D01*
X64008242Y1717946D01*
X64008240Y1717940D01*
X63989487Y1587504D01*
X63989487Y1587497D01*
X64008240Y1457061D01*
X64008242Y1457055D01*
X64062989Y1337175D01*
X64113997Y1278309D01*
X64149291Y1237578D01*
X64149293Y1237577D01*
X64149294Y1237576D01*
X64260153Y1166331D01*
X64260154Y1166331D01*
X64260157Y1166329D01*
X64346282Y1141041D01*
X64386601Y1129201D01*
X64386604Y1129201D01*
X64386606Y1129200D01*
X64386607Y1129200D01*
X64518393Y1129200D01*
X64518394Y1129200D01*
X64518396Y1129201D01*
X64518398Y1129201D01*
X64533427Y1133615D01*
X64644843Y1166329D01*
X64755709Y1237578D01*
X64842011Y1337176D01*
X64896758Y1457054D01*
X64897034Y1458978D01*
X64915513Y1587497D01*
X64915513Y1587504D01*
X64896759Y1717940D01*
X64896758Y1717941D01*
X64896758Y1717946D01*
X64842011Y1837824D01*
X64755709Y1937422D01*
X64755708Y1937423D01*
X64755707Y1937424D01*
X64750957Y1941540D01*
X64753005Y1943905D01*
X64723662Y1982469D01*
X64719700Y2008561D01*
X64719700Y2075413D01*
X64740265Y2131914D01*
X64745445Y2137568D01*
X65172433Y2564555D01*
X65226927Y2589966D01*
X65234588Y2590300D01*
X65761101Y2590300D01*
X65817602Y2569735D01*
X65847666Y2517664D01*
X65849001Y2502400D01*
X65849001Y2204935D01*
X65859343Y2152935D01*
X65859343Y2152934D01*
X65859344Y2152932D01*
X65859345Y2152931D01*
X65898753Y2093953D01*
X65957731Y2054545D01*
X66009739Y2044200D01*
X66705260Y2044201D01*
X66705263Y2044201D01*
X66705265Y2044202D01*
X66757265Y2054544D01*
X66757266Y2054544D01*
X66757266Y2054545D01*
X66757269Y2054545D01*
X66816247Y2093953D01*
X66816247Y2093954D01*
X66823445Y2098763D01*
X66824240Y2097572D01*
X66870532Y2119163D01*
X66928611Y2103606D01*
X66939961Y2094082D01*
X66940152Y2093955D01*
X66940153Y2093953D01*
X66999131Y2054545D01*
X67051139Y2044200D01*
X67746660Y2044201D01*
X67746663Y2044201D01*
X67746665Y2044202D01*
X67798665Y2054544D01*
X67798666Y2054544D01*
X67798666Y2054545D01*
X67798669Y2054545D01*
X67857647Y2093953D01*
X67897055Y2152931D01*
X67907400Y2204939D01*
X67907400Y2502401D01*
X67927965Y2558901D01*
X67980036Y2588965D01*
X67995300Y2590300D01*
X72242912Y2590300D01*
X72299413Y2569735D01*
X72305067Y2564555D01*
X72493831Y2375791D01*
X72504762Y2362470D01*
X72514243Y2348280D01*
X72514859Y2347359D01*
X72514862Y2347357D01*
X72537171Y2332450D01*
X72586780Y2299304D01*
X72603244Y2288303D01*
X72707500Y2267564D01*
X72725331Y2271112D01*
X72742480Y2272800D01*
X75530020Y2272800D01*
X75547168Y2271112D01*
X75565000Y2267564D01*
X75669257Y2288303D01*
X75735329Y2332451D01*
X75735328Y2332451D01*
X75757641Y2347359D01*
X75757642Y2347362D01*
X75759017Y2348280D01*
X75762276Y2354298D01*
X75767743Y2362480D01*
X75778668Y2375791D01*
X75873252Y2470375D01*
X78104685Y2470375D01*
X78118220Y2347363D01*
X78135129Y2193694D01*
X78202126Y1937424D01*
X78205533Y1924394D01*
X78314389Y1668235D01*
X78314390Y1668233D01*
X78314392Y1668229D01*
X78314393Y1668228D01*
X78443270Y1457054D01*
X78459395Y1430633D01*
X78637437Y1216693D01*
X78637442Y1216688D01*
X78844745Y1030944D01*
X78844747Y1030943D01*
X78844750Y1030940D01*
X79076875Y877368D01*
X79076883Y877363D01*
X79328909Y759218D01*
X79328913Y759217D01*
X79328915Y759216D01*
X79478362Y714254D01*
X79595451Y679027D01*
X79595455Y679027D01*
X79595457Y679026D01*
X79660125Y669509D01*
X79870828Y638500D01*
X79870835Y638500D01*
X80079493Y638500D01*
X80183544Y646116D01*
X80287601Y653732D01*
X80559286Y714252D01*
X80819263Y813685D01*
X81061993Y949911D01*
X81282301Y1120028D01*
X81475492Y1320408D01*
X81637449Y1546782D01*
X81764719Y1794325D01*
X81779559Y1837823D01*
X81837806Y2008561D01*
X81854591Y2057761D01*
X81905148Y2331474D01*
X81914595Y2589966D01*
X81915314Y2609628D01*
X81915314Y2609632D01*
X81915314Y2609633D01*
X81884871Y2886306D01*
X81814469Y3155599D01*
X81806226Y3174997D01*
X81705610Y3411766D01*
X81705609Y3411768D01*
X81668522Y3472538D01*
X81560607Y3649364D01*
X81551377Y3660455D01*
X81382562Y3863308D01*
X81382556Y3863314D01*
X81175249Y4049061D01*
X80943124Y4202633D01*
X80943120Y4202635D01*
X80943117Y4202637D01*
X80691091Y4320782D01*
X80691089Y4320783D01*
X80691084Y4320785D01*
X80424551Y4400973D01*
X80424542Y4400975D01*
X80149182Y4441499D01*
X80149176Y4441500D01*
X80149172Y4441500D01*
X79940511Y4441500D01*
X79940507Y4441500D01*
X79732402Y4426269D01*
X79732396Y4426268D01*
X79460722Y4365751D01*
X79460710Y4365747D01*
X79200736Y4266315D01*
X78958002Y4130087D01*
X78958001Y4130086D01*
X78737699Y3959973D01*
X78737696Y3959970D01*
X78544513Y3759599D01*
X78544505Y3759589D01*
X78382557Y3533228D01*
X78382550Y3533217D01*
X78255279Y3285674D01*
X78165409Y3022242D01*
X78114851Y2748521D01*
X78104685Y2470375D01*
X75873252Y2470375D01*
X76364211Y2961335D01*
X76377522Y2972258D01*
X76392641Y2982359D01*
X76451697Y3070744D01*
X76462430Y3124700D01*
X76472436Y3175000D01*
X76468889Y3192832D01*
X76467200Y3209981D01*
X76467200Y5680025D01*
X76468889Y5697174D01*
X76472435Y5715001D01*
X76451697Y5819257D01*
X76431489Y5849500D01*
X76392641Y5907642D01*
X76377527Y5917740D01*
X76364206Y5928671D01*
X75942880Y6349997D01*
X80774353Y6349997D01*
X80794833Y6207550D01*
X80794834Y6207545D01*
X80794835Y6207543D01*
X80854623Y6076627D01*
X80948872Y5967857D01*
X80948874Y5967856D01*
X80948875Y5967855D01*
X81042568Y5907642D01*
X81069947Y5890047D01*
X81208039Y5849500D01*
X81208040Y5849500D01*
X81351960Y5849500D01*
X81351961Y5849500D01*
X81490053Y5890047D01*
X81611128Y5967857D01*
X81705377Y6076627D01*
X81765165Y6207543D01*
X81785647Y6350000D01*
X81785647Y6350004D01*
X81765166Y6492451D01*
X81765165Y6492452D01*
X81765165Y6492457D01*
X81705377Y6623373D01*
X81611128Y6732143D01*
X81611126Y6732144D01*
X81611124Y6732146D01*
X81490054Y6809953D01*
X81490050Y6809954D01*
X81351967Y6850499D01*
X81351961Y6850500D01*
X81208039Y6850500D01*
X81208038Y6850500D01*
X81208032Y6850499D01*
X81069949Y6809954D01*
X81069945Y6809953D01*
X80948875Y6732146D01*
X80948870Y6732142D01*
X80854622Y6623372D01*
X80794835Y6492457D01*
X80794833Y6492451D01*
X80774353Y6350004D01*
X80774353Y6349997D01*
X75942880Y6349997D01*
X75413423Y6879455D01*
X75388012Y6933949D01*
X75388573Y6954120D01*
X75393013Y6984999D01*
X75393013Y6985004D01*
X75374259Y7115440D01*
X75374258Y7115442D01*
X75374258Y7115446D01*
X75374256Y7115449D01*
X75374256Y7115452D01*
X75319444Y7235472D01*
X75311500Y7271987D01*
X75311500Y20668013D01*
X75319444Y20704528D01*
X75374256Y20824549D01*
X75374256Y20824551D01*
X75374258Y20824554D01*
X75393013Y20955000D01*
X75393013Y20955004D01*
X75374259Y21085440D01*
X75374258Y21085441D01*
X75374258Y21085446D01*
X75319511Y21205324D01*
X75319510Y21205325D01*
X75319510Y21205326D01*
X75247453Y21288483D01*
X75233209Y21304922D01*
X75233206Y21304924D01*
X75233205Y21304925D01*
X75122345Y21376171D01*
X75122342Y21376172D01*
X75057135Y21395319D01*
X75008716Y21430969D01*
X74994000Y21479658D01*
X74994000Y31748700D01*
X75014565Y31805201D01*
X75057136Y31833039D01*
X75060122Y31833916D01*
X75102343Y31846313D01*
X75213209Y31917562D01*
X75299511Y32017160D01*
X75354258Y32137038D01*
X75365811Y32217393D01*
X75373013Y32267481D01*
X75373013Y32267488D01*
X75354259Y32397924D01*
X75354258Y32397925D01*
X75354258Y32397930D01*
X75299511Y32517808D01*
X75299510Y32517809D01*
X75299510Y32517810D01*
X75256359Y32567607D01*
X75213209Y32617406D01*
X75213206Y32617408D01*
X75213205Y32617409D01*
X75102346Y32688654D01*
X75102343Y32688655D01*
X75077053Y32696081D01*
X74975898Y32725784D01*
X74975894Y32725784D01*
X74844106Y32725784D01*
X74844101Y32725784D01*
X74717657Y32688655D01*
X74717653Y32688654D01*
X74606794Y32617409D01*
X74606789Y32617404D01*
X74520489Y32517810D01*
X74465742Y32397931D01*
X74463998Y32385800D01*
X74439148Y32336157D01*
X74377158Y32274167D01*
X74363085Y32262738D01*
X74350542Y32254543D01*
X74327666Y32225152D01*
X74324061Y32221069D01*
X74320385Y32217394D01*
X74306599Y32198084D01*
X74272344Y32154073D01*
X74268876Y32147665D01*
X74268413Y32147916D01*
X74267750Y32146628D01*
X74268223Y32146396D01*
X74265026Y32139856D01*
X74265025Y32139854D01*
X74263483Y32134675D01*
X74249110Y32086398D01*
X74231000Y32033647D01*
X74229801Y32026459D01*
X74229277Y32026547D01*
X74229068Y32025116D01*
X74229596Y32025050D01*
X74228695Y32017824D01*
X74231000Y31962100D01*
X74231000Y21321183D01*
X74229129Y21303144D01*
X74226055Y21288484D01*
X74226054Y21288484D01*
X74230662Y21251524D01*
X74231000Y21246082D01*
X74231000Y21240887D01*
X74234903Y21217497D01*
X74241803Y21162141D01*
X74243882Y21155160D01*
X74243372Y21155009D01*
X74243813Y21153632D01*
X74244316Y21153804D01*
X74246681Y21146914D01*
X74273228Y21097859D01*
X74279297Y21085446D01*
X74297724Y21047754D01*
X74297725Y21047753D01*
X74301958Y21041823D01*
X74301526Y21041516D01*
X74302391Y21040357D01*
X74302809Y21040682D01*
X74307281Y21034937D01*
X74348318Y20997159D01*
X74459147Y20886331D01*
X74483997Y20836685D01*
X74485740Y20824558D01*
X74485742Y20824553D01*
X74540556Y20704528D01*
X74548500Y20668013D01*
X74548500Y8511989D01*
X74527935Y8455488D01*
X74475864Y8425424D01*
X74416650Y8435865D01*
X74380644Y8475474D01*
X74367013Y8505321D01*
X74367011Y8505323D01*
X74367011Y8505324D01*
X74280709Y8604922D01*
X74280708Y8604923D01*
X74280707Y8604924D01*
X74275957Y8609040D01*
X74278005Y8611405D01*
X74248662Y8649969D01*
X74244700Y8676061D01*
X74244700Y11814755D01*
X74246389Y11831904D01*
X74249935Y11849731D01*
X74229197Y11953988D01*
X74213036Y11978173D01*
X74170140Y12042372D01*
X74155027Y12052470D01*
X74141706Y12063401D01*
X73648145Y12556963D01*
X73622734Y12611457D01*
X73622400Y12619118D01*
X73622400Y31851792D01*
X73624090Y31868946D01*
X73627635Y31886762D01*
X73622400Y31913086D01*
X73622400Y31913091D01*
X73616522Y31942641D01*
X73612652Y31962100D01*
X73611388Y31968459D01*
X73609700Y31985602D01*
X73609700Y34503940D01*
X73630265Y34560441D01*
X73641503Y34570333D01*
X73640958Y34570962D01*
X73645704Y34575076D01*
X73645709Y34575078D01*
X73732011Y34674676D01*
X73786758Y34794554D01*
X73805513Y34925000D01*
X73805513Y34925004D01*
X73786759Y35055440D01*
X73786758Y35055441D01*
X73786758Y35055446D01*
X73732011Y35175324D01*
X73732010Y35175325D01*
X73732010Y35175326D01*
X73688859Y35225123D01*
X73645709Y35274922D01*
X73645706Y35274924D01*
X73645705Y35274925D01*
X73534846Y35346170D01*
X73534843Y35346171D01*
X73509553Y35353597D01*
X73408398Y35383300D01*
X73408394Y35383300D01*
X73276606Y35383300D01*
X73276601Y35383300D01*
X73150157Y35346171D01*
X73150153Y35346170D01*
X73039294Y35274925D01*
X73039289Y35274920D01*
X72952989Y35175326D01*
X72898242Y35055446D01*
X72898240Y35055440D01*
X72879487Y34925004D01*
X72879487Y34924997D01*
X72898240Y34794561D01*
X72898241Y34794556D01*
X72898242Y34794554D01*
X72952989Y34674676D01*
X72993900Y34627462D01*
X73039290Y34575079D01*
X73044042Y34570962D01*
X73041986Y34568590D01*
X73071324Y34530078D01*
X73075300Y34503940D01*
X73075300Y32289789D01*
X73054735Y32233288D01*
X73002664Y32203224D01*
X72943450Y32213665D01*
X72925246Y32227634D01*
X72873424Y32279455D01*
X72848013Y32333948D01*
X72848573Y32354120D01*
X72853013Y32384999D01*
X72853013Y32385004D01*
X72834259Y32515440D01*
X72834258Y32515441D01*
X72834258Y32515446D01*
X72779511Y32635324D01*
X72693209Y32734922D01*
X72693208Y32734923D01*
X72693207Y32734924D01*
X72688457Y32739040D01*
X72690505Y32741405D01*
X72661162Y32779969D01*
X72657200Y32806061D01*
X72657200Y36795025D01*
X72658889Y36812174D01*
X72662435Y36830001D01*
X72641697Y36934258D01*
X72625536Y36958443D01*
X72582640Y37022642D01*
X72567527Y37032740D01*
X72554206Y37043671D01*
X71333670Y38264208D01*
X71322739Y38277529D01*
X71312644Y38292637D01*
X71312643Y38292638D01*
X71312641Y38292641D01*
X71277746Y38315957D01*
X71224257Y38351697D01*
X71224254Y38351698D01*
X71120000Y38372436D01*
X71102169Y38368889D01*
X71085020Y38367200D01*
X69312530Y38367200D01*
X69256029Y38387765D01*
X69246100Y38397538D01*
X69244957Y38398857D01*
X69200709Y38449922D01*
X69200706Y38449924D01*
X69200705Y38449925D01*
X69089846Y38521170D01*
X69089843Y38521171D01*
X69064553Y38528597D01*
X68963398Y38558300D01*
X68963394Y38558300D01*
X68831606Y38558300D01*
X68831601Y38558300D01*
X68705157Y38521171D01*
X68705153Y38521170D01*
X68594294Y38449925D01*
X68594289Y38449920D01*
X68548900Y38397538D01*
X68496358Y38368304D01*
X68482470Y38367200D01*
X64550030Y38367200D01*
X64493529Y38387765D01*
X64483600Y38397538D01*
X64482457Y38398857D01*
X64438209Y38449922D01*
X64438206Y38449924D01*
X64438205Y38449925D01*
X64327346Y38521170D01*
X64327343Y38521171D01*
X64302053Y38528597D01*
X64200898Y38558300D01*
X64200894Y38558300D01*
X64069106Y38558300D01*
X64069101Y38558300D01*
X63942657Y38521171D01*
X63942653Y38521170D01*
X63831794Y38449925D01*
X63831789Y38449920D01*
X63786400Y38397538D01*
X63733858Y38368304D01*
X63719970Y38367200D01*
X61742088Y38367200D01*
X61685587Y38387765D01*
X61679933Y38392945D01*
X61252945Y38819933D01*
X61227534Y38874427D01*
X61227200Y38882088D01*
X61227200Y41840375D01*
X78104685Y41840375D01*
X78135129Y41563694D01*
X78205533Y41294394D01*
X78314389Y41038235D01*
X78314390Y41038233D01*
X78459395Y40800633D01*
X78637437Y40586693D01*
X78637442Y40586688D01*
X78844745Y40400944D01*
X78844747Y40400943D01*
X78844750Y40400940D01*
X79076875Y40247368D01*
X79076883Y40247363D01*
X79328909Y40129218D01*
X79328913Y40129217D01*
X79328915Y40129216D01*
X79478362Y40084254D01*
X79595451Y40049027D01*
X79595455Y40049027D01*
X79595457Y40049026D01*
X79660125Y40039509D01*
X79870828Y40008500D01*
X79870835Y40008500D01*
X80079493Y40008500D01*
X80183544Y40016116D01*
X80287601Y40023732D01*
X80559286Y40084252D01*
X80819263Y40183685D01*
X81061993Y40319911D01*
X81282301Y40490028D01*
X81475492Y40690408D01*
X81637449Y40916782D01*
X81764719Y41164325D01*
X81854591Y41427761D01*
X81905148Y41701474D01*
X81915314Y41979632D01*
X81884871Y42256306D01*
X81814469Y42525599D01*
X81759193Y42655675D01*
X81705610Y42781766D01*
X81705609Y42781768D01*
X81705607Y42781772D01*
X81560607Y43019364D01*
X81560604Y43019368D01*
X81382562Y43233308D01*
X81382556Y43233314D01*
X81274678Y43329973D01*
X81175255Y43419056D01*
X81175253Y43419058D01*
X81175249Y43419061D01*
X80943124Y43572633D01*
X80943120Y43572635D01*
X80943117Y43572637D01*
X80691091Y43690782D01*
X80691089Y43690783D01*
X80691084Y43690785D01*
X80424551Y43770973D01*
X80424542Y43770975D01*
X80149182Y43811499D01*
X80149176Y43811500D01*
X80149172Y43811500D01*
X79940511Y43811500D01*
X79940507Y43811500D01*
X79732402Y43796269D01*
X79732396Y43796268D01*
X79460722Y43735751D01*
X79460710Y43735747D01*
X79200736Y43636315D01*
X78958002Y43500087D01*
X78958001Y43500086D01*
X78737699Y43329973D01*
X78737696Y43329970D01*
X78544513Y43129599D01*
X78544505Y43129589D01*
X78382557Y42903228D01*
X78382550Y42903217D01*
X78255279Y42655674D01*
X78165409Y42392242D01*
X78114851Y42118521D01*
X78104685Y41840375D01*
X61227200Y41840375D01*
X61227200Y42024231D01*
X61247765Y42080732D01*
X61283347Y42106195D01*
X61346275Y42130574D01*
X61460515Y42174830D01*
X61636692Y42283914D01*
X61789826Y42423514D01*
X61914700Y42588875D01*
X62007064Y42774365D01*
X62063771Y42973670D01*
X62082890Y43180000D01*
X62063771Y43386330D01*
X62007064Y43585635D01*
X61914700Y43771125D01*
X61789826Y43936486D01*
X61712733Y44006766D01*
X61673380Y44042641D01*
X61645480Y44095903D01*
X61658343Y44154638D01*
X61705951Y44191364D01*
X61732598Y44195500D01*
X62727402Y44195500D01*
X62783903Y44174935D01*
X62813967Y44122864D01*
X62803526Y44063650D01*
X62786620Y44042641D01*
X62670173Y43936485D01*
X62545302Y43771129D01*
X62545300Y43771126D01*
X62545300Y43771125D01*
X62479984Y43639953D01*
X62452936Y43585634D01*
X62452934Y43585629D01*
X62396229Y43386335D01*
X62396229Y43386334D01*
X62377110Y43180001D01*
X62377110Y43180000D01*
X62396229Y42973667D01*
X62396229Y42973666D01*
X62450830Y42781768D01*
X62452936Y42774365D01*
X62545300Y42588875D01*
X62670174Y42423514D01*
X62761584Y42340183D01*
X62823305Y42283916D01*
X62823314Y42283910D01*
X62940759Y42211192D01*
X62999485Y42174830D01*
X63192707Y42099976D01*
X63192711Y42099976D01*
X63192715Y42099974D01*
X63294074Y42081027D01*
X63396393Y42061900D01*
X63396394Y42061900D01*
X63603606Y42061900D01*
X63603607Y42061900D01*
X63738741Y42087162D01*
X63807284Y42099974D01*
X63807286Y42099975D01*
X63807293Y42099976D01*
X64000515Y42174830D01*
X64176692Y42283914D01*
X64329826Y42423514D01*
X64454700Y42588875D01*
X64547064Y42774365D01*
X64603771Y42973670D01*
X64622890Y43180000D01*
X64603771Y43386330D01*
X64547064Y43585635D01*
X64454700Y43771125D01*
X64329826Y43936486D01*
X64252733Y44006766D01*
X64213380Y44042641D01*
X64185480Y44095903D01*
X64198343Y44154638D01*
X64245951Y44191364D01*
X64272598Y44195500D01*
X65267402Y44195500D01*
X65323903Y44174935D01*
X65353967Y44122864D01*
X65343526Y44063650D01*
X65326620Y44042641D01*
X65210173Y43936485D01*
X65085302Y43771129D01*
X65085300Y43771126D01*
X65085300Y43771125D01*
X65019984Y43639953D01*
X64992936Y43585634D01*
X64992934Y43585629D01*
X64936229Y43386335D01*
X64936229Y43386334D01*
X64917110Y43180001D01*
X64917110Y43180000D01*
X64936229Y42973667D01*
X64936229Y42973666D01*
X64990830Y42781768D01*
X64992936Y42774365D01*
X65085300Y42588875D01*
X65210174Y42423514D01*
X65301584Y42340183D01*
X65363305Y42283916D01*
X65363314Y42283910D01*
X65480759Y42211192D01*
X65539485Y42174830D01*
X65732707Y42099976D01*
X65732711Y42099976D01*
X65732715Y42099974D01*
X65834074Y42081027D01*
X65936393Y42061900D01*
X65936394Y42061900D01*
X66143606Y42061900D01*
X66143607Y42061900D01*
X66278741Y42087162D01*
X66347284Y42099974D01*
X66347286Y42099975D01*
X66347293Y42099976D01*
X66540515Y42174830D01*
X66716692Y42283914D01*
X66869826Y42423514D01*
X66994700Y42588875D01*
X67087064Y42774365D01*
X67143771Y42973670D01*
X67162890Y43180000D01*
X67143771Y43386330D01*
X67087064Y43585635D01*
X66994700Y43771125D01*
X66869826Y43936486D01*
X66792733Y44006766D01*
X66753380Y44042641D01*
X66725480Y44095903D01*
X66738343Y44154638D01*
X66785951Y44191364D01*
X66812598Y44195500D01*
X67808144Y44195500D01*
X67864645Y44174935D01*
X67894709Y44122864D01*
X67884268Y44063650D01*
X67867362Y44042641D01*
X67750546Y43936149D01*
X67750542Y43936145D01*
X67625727Y43770863D01*
X67533402Y43585450D01*
X67476726Y43386252D01*
X67476723Y43386240D01*
X67476442Y43383200D01*
X68110218Y43383200D01*
X68072000Y43253039D01*
X68072000Y43106961D01*
X68110218Y42976800D01*
X67476442Y42976800D01*
X67476723Y42973761D01*
X67476726Y42973749D01*
X67533402Y42774551D01*
X67625727Y42589138D01*
X67750542Y42423856D01*
X67750546Y42423852D01*
X67903607Y42284317D01*
X67903616Y42284311D01*
X68079704Y42175282D01*
X68079717Y42175276D01*
X68272840Y42100460D01*
X68272843Y42100459D01*
X68376800Y42081027D01*
X68376800Y42714331D01*
X68435408Y42687565D01*
X68543666Y42672000D01*
X68616334Y42672000D01*
X68724592Y42687565D01*
X68783200Y42714331D01*
X68783200Y42081027D01*
X68887156Y42100459D01*
X68887159Y42100460D01*
X69080282Y42175276D01*
X69080295Y42175282D01*
X69256383Y42284311D01*
X69256392Y42284317D01*
X69409453Y42423852D01*
X69409457Y42423856D01*
X69534272Y42589138D01*
X69626597Y42774551D01*
X69683273Y42973749D01*
X69683276Y42973761D01*
X69683558Y42976800D01*
X69049782Y42976800D01*
X69088000Y43106961D01*
X69088000Y43253039D01*
X69049782Y43383200D01*
X69683558Y43383200D01*
X69683276Y43386240D01*
X69683273Y43386252D01*
X69626597Y43585450D01*
X69534272Y43770863D01*
X69409457Y43936145D01*
X69409453Y43936149D01*
X69292638Y44042641D01*
X69264738Y44095903D01*
X69277601Y44154638D01*
X69325209Y44191364D01*
X69351856Y44195500D01*
X82207600Y44195500D01*
X82264101Y44174935D01*
X82294165Y44122864D01*
X82295500Y44107600D01*
X82295500Y15865647D01*
X82274935Y15809146D01*
X82222864Y15779082D01*
X82163650Y15789523D01*
X82158766Y15792561D01*
X82094570Y15835455D01*
X82077232Y15838904D01*
X82042561Y15845800D01*
X82042559Y15845800D01*
X80809772Y15845800D01*
X80753271Y15866365D01*
X80723207Y15918436D01*
X80729811Y15970207D01*
X80737070Y15986101D01*
X80738976Y15989800D01*
X80758374Y16023395D01*
X80760639Y16033324D01*
X80766376Y16050272D01*
X80771758Y16062054D01*
X80779264Y16114270D01*
X80779918Y16117789D01*
X80789076Y16157912D01*
X80788582Y16164501D01*
X80789231Y16183586D01*
X80790513Y16192500D01*
X80782305Y16249588D01*
X80781988Y16252486D01*
X80778765Y16295498D01*
X80777663Y16298306D01*
X80772480Y16317919D01*
X80771758Y16322946D01*
X80745476Y16380495D01*
X80744542Y16382696D01*
X80728355Y16423940D01*
X80726999Y16426288D01*
X80717498Y16441756D01*
X80717011Y16442824D01*
X80683849Y16481095D01*
X80670354Y16496670D01*
X80642332Y16531809D01*
X80637504Y16536289D01*
X80637784Y16536592D01*
X80635635Y16538506D01*
X80635461Y16538304D01*
X80630712Y16542419D01*
X80630709Y16542422D01*
X80561958Y16586606D01*
X80528332Y16609531D01*
X80522584Y16612300D01*
X80521419Y16612952D01*
X80519839Y16613673D01*
X80417265Y16643791D01*
X80395832Y16650402D01*
X80395216Y16650539D01*
X80393395Y16650800D01*
X80393394Y16650800D01*
X80261606Y16650800D01*
X80259532Y16650800D01*
X80251145Y16650200D01*
X79720677Y16650200D01*
X79715752Y16650477D01*
X79675195Y16655047D01*
X79675194Y16655047D01*
X79675193Y16655047D01*
X79615813Y16643813D01*
X79615813Y16643812D01*
X79556064Y16634806D01*
X79549774Y16632865D01*
X79549701Y16633100D01*
X79545755Y16631802D01*
X79545837Y16631569D01*
X79539625Y16629396D01*
X79486205Y16601163D01*
X79431753Y16574941D01*
X79426316Y16571233D01*
X79426178Y16571435D01*
X79422791Y16569032D01*
X79422937Y16568834D01*
X79417636Y16564922D01*
X79374919Y16522205D01*
X79330614Y16481095D01*
X79326504Y16475942D01*
X79326311Y16476096D01*
X79318067Y16465354D01*
X79071281Y16218569D01*
X79067605Y16215283D01*
X79052340Y16203109D01*
X79035692Y16189832D01*
X79035691Y16189831D01*
X79035689Y16189829D01*
X79031433Y16183586D01*
X79001645Y16139895D01*
X78985784Y16118405D01*
X78965768Y16091284D01*
X78962692Y16085463D01*
X78962476Y16085578D01*
X78960604Y16081871D01*
X78960825Y16081764D01*
X78957970Y16075836D01*
X78940156Y16018086D01*
X78920199Y15961055D01*
X78918975Y15954583D01*
X78918734Y15954629D01*
X78918038Y15950532D01*
X78918281Y15950495D01*
X78917299Y15943985D01*
X78917299Y15933695D01*
X78896731Y15877195D01*
X78844658Y15847134D01*
X78829399Y15845800D01*
X76707436Y15845800D01*
X76707434Y15845799D01*
X76655434Y15835457D01*
X76655433Y15835457D01*
X76596454Y15796048D01*
X76596452Y15796046D01*
X76557045Y15737069D01*
X76546700Y15685060D01*
X76546700Y13749937D01*
X76546701Y13749935D01*
X76557043Y13697935D01*
X76557043Y13697934D01*
X76557044Y13697932D01*
X76557045Y13697931D01*
X76596453Y13638953D01*
X76655431Y13599545D01*
X76707439Y13589200D01*
X82042560Y13589201D01*
X82042563Y13589201D01*
X82042565Y13589202D01*
X82094565Y13599544D01*
X82094566Y13599544D01*
X82094566Y13599545D01*
X82094569Y13599545D01*
X82153547Y13638953D01*
X82153547Y13638954D01*
X82158765Y13642440D01*
X82217169Y13656732D01*
X82271096Y13630138D01*
X82295312Y13575103D01*
X82295500Y13569354D01*
X82295500Y12465647D01*
X82274935Y12409146D01*
X82222864Y12379082D01*
X82163650Y12389523D01*
X82158766Y12392561D01*
X82094570Y12435455D01*
X82077232Y12438904D01*
X82042561Y12445800D01*
X82042559Y12445800D01*
X76707436Y12445800D01*
X76707434Y12445799D01*
X76655434Y12435457D01*
X76655433Y12435457D01*
X76596454Y12396048D01*
X76596452Y12396046D01*
X76585117Y12379082D01*
X76557045Y12337069D01*
X76552720Y12315323D01*
X76546700Y12285060D01*
X76546700Y10349937D01*
X76546701Y10349935D01*
X76557043Y10297935D01*
X76557043Y10297934D01*
X76557044Y10297932D01*
X76557045Y10297931D01*
X76596453Y10238953D01*
X76655431Y10199545D01*
X76707439Y10189200D01*
X78830825Y10189201D01*
X78887326Y10168636D01*
X78917193Y10117643D01*
X78923688Y10083314D01*
X78932693Y10023571D01*
X78934636Y10017274D01*
X78934398Y10017201D01*
X78935695Y10013260D01*
X78935929Y10013341D01*
X78938104Y10007125D01*
X78938105Y10007124D01*
X78966339Y9953701D01*
X78979970Y9925396D01*
X78992560Y9899253D01*
X78996270Y9893812D01*
X78996067Y9893674D01*
X78998467Y9890292D01*
X78998665Y9890437D01*
X79002573Y9885142D01*
X79002574Y9885141D01*
X79002576Y9885138D01*
X79045214Y9842500D01*
X79045307Y9842407D01*
X79086408Y9798111D01*
X79091557Y9794005D01*
X79091402Y9793811D01*
X79102149Y9785566D01*
X79348935Y9538780D01*
X79352219Y9535105D01*
X79377668Y9503192D01*
X79427605Y9469146D01*
X79476215Y9433270D01*
X79476220Y9433269D01*
X79482043Y9430190D01*
X79481926Y9429970D01*
X79485624Y9428104D01*
X79485733Y9428328D01*
X79491663Y9425473D01*
X79491668Y9425469D01*
X79549400Y9407661D01*
X79606447Y9387699D01*
X79606448Y9387699D01*
X79612925Y9386473D01*
X79612878Y9386228D01*
X79616958Y9385535D01*
X79616996Y9385782D01*
X79623511Y9384800D01*
X79683925Y9384800D01*
X79744325Y9382540D01*
X79744328Y9382542D01*
X79744330Y9382541D01*
X79750872Y9383277D01*
X79750899Y9383032D01*
X79764333Y9384800D01*
X79933645Y9384800D01*
X79942032Y9384200D01*
X79944106Y9384200D01*
X80075893Y9384200D01*
X80075894Y9384200D01*
X80110550Y9394377D01*
X80116376Y9395665D01*
X80146433Y9400194D01*
X80165059Y9409165D01*
X80178434Y9414309D01*
X80202341Y9421328D01*
X80202343Y9421329D01*
X80236020Y9442973D01*
X80240708Y9445596D01*
X80270744Y9460059D01*
X80283369Y9471775D01*
X80295627Y9481280D01*
X80313209Y9492578D01*
X80342075Y9525893D01*
X80345387Y9529319D01*
X80351619Y9535101D01*
X80371886Y9553905D01*
X80378746Y9565790D01*
X80388439Y9579400D01*
X80399511Y9592176D01*
X80419574Y9636111D01*
X80421471Y9639792D01*
X80440874Y9673395D01*
X80443139Y9683324D01*
X80448876Y9700272D01*
X80454258Y9712054D01*
X80461764Y9764270D01*
X80462418Y9767789D01*
X80468344Y9793750D01*
X80471576Y9807910D01*
X80471081Y9814501D01*
X80471731Y9833586D01*
X80473013Y9842500D01*
X80464805Y9899588D01*
X80464488Y9902486D01*
X80461265Y9945498D01*
X80460163Y9948306D01*
X80454980Y9967919D01*
X80454258Y9972946D01*
X80427976Y10030495D01*
X80427042Y10032696D01*
X80412720Y10069187D01*
X80411221Y10129296D01*
X80448710Y10176305D01*
X80494544Y10189201D01*
X82042564Y10189201D01*
X82042565Y10189202D01*
X82094565Y10199544D01*
X82094566Y10199544D01*
X82094566Y10199545D01*
X82094569Y10199545D01*
X82153547Y10238953D01*
X82153547Y10238954D01*
X82158765Y10242440D01*
X82217169Y10256732D01*
X82271096Y10230138D01*
X82295312Y10175103D01*
X82295500Y10169354D01*
X82295500Y342400D01*
X82274935Y285899D01*
X82222864Y255835D01*
X82207600Y254500D01*
X342400Y254500D01*
X285899Y275065D01*
X255835Y327136D01*
X254500Y342400D01*
X254500Y2470375D01*
X634685Y2470375D01*
X648220Y2347363D01*
X665129Y2193694D01*
X732126Y1937424D01*
X735533Y1924394D01*
X844389Y1668235D01*
X844390Y1668233D01*
X844392Y1668229D01*
X844393Y1668228D01*
X973270Y1457054D01*
X989395Y1430633D01*
X1167437Y1216693D01*
X1167442Y1216688D01*
X1374745Y1030944D01*
X1374747Y1030943D01*
X1374750Y1030940D01*
X1606875Y877368D01*
X1606883Y877363D01*
X1858909Y759218D01*
X1858913Y759217D01*
X1858915Y759216D01*
X2008362Y714254D01*
X2125451Y679027D01*
X2125455Y679027D01*
X2125457Y679026D01*
X2190125Y669509D01*
X2400828Y638500D01*
X2400835Y638500D01*
X2609493Y638500D01*
X2713544Y646116D01*
X2817601Y653732D01*
X3089286Y714252D01*
X3349263Y813685D01*
X3591993Y949911D01*
X3812301Y1120028D01*
X4005492Y1320408D01*
X4167449Y1546782D01*
X4294719Y1794325D01*
X4309559Y1837823D01*
X4367806Y2008561D01*
X4384591Y2057761D01*
X4391641Y2095928D01*
X7462698Y2095928D01*
X7462698Y546165D01*
X7462699Y546165D01*
X10363596Y546165D01*
X10363597Y546165D01*
X10363597Y2095928D01*
X7462698Y2095928D01*
X4391641Y2095928D01*
X4435148Y2331474D01*
X4444595Y2589966D01*
X4445314Y2609628D01*
X4445314Y2609632D01*
X4445313Y2609633D01*
X4414871Y2886306D01*
X4344469Y3155599D01*
X4336226Y3174997D01*
X4235610Y3411766D01*
X4235609Y3411768D01*
X4198522Y3472538D01*
X4090607Y3649364D01*
X4081377Y3660455D01*
X3912562Y3863308D01*
X3912556Y3863314D01*
X3705249Y4049061D01*
X3473124Y4202633D01*
X3473120Y4202635D01*
X3473117Y4202637D01*
X3221091Y4320782D01*
X3221089Y4320783D01*
X3221084Y4320785D01*
X2954551Y4400973D01*
X2954542Y4400975D01*
X2679182Y4441499D01*
X2679176Y4441500D01*
X2679172Y4441500D01*
X2470511Y4441500D01*
X2470507Y4441500D01*
X2262402Y4426269D01*
X2262396Y4426268D01*
X1990722Y4365751D01*
X1990710Y4365747D01*
X1730736Y4266315D01*
X1488002Y4130087D01*
X1488001Y4130086D01*
X1267699Y3959973D01*
X1267696Y3959970D01*
X1074513Y3759599D01*
X1074505Y3759589D01*
X912557Y3533228D01*
X912550Y3533217D01*
X785279Y3285674D01*
X695409Y3022242D01*
X644851Y2748521D01*
X634685Y2470375D01*
X254500Y2470375D01*
X254500Y41840375D01*
X634685Y41840375D01*
X665129Y41563694D01*
X735533Y41294394D01*
X844389Y41038235D01*
X844390Y41038233D01*
X989395Y40800633D01*
X1167437Y40586693D01*
X1167442Y40586688D01*
X1374745Y40400944D01*
X1374747Y40400943D01*
X1374750Y40400940D01*
X1606875Y40247368D01*
X1606883Y40247363D01*
X1858909Y40129218D01*
X1858913Y40129217D01*
X1858915Y40129216D01*
X2008362Y40084254D01*
X2125451Y40049027D01*
X2125455Y40049027D01*
X2125457Y40049026D01*
X2190125Y40039509D01*
X2400828Y40008500D01*
X2400835Y40008500D01*
X2609493Y40008500D01*
X2713544Y40016116D01*
X2817601Y40023732D01*
X3089286Y40084252D01*
X3349263Y40183685D01*
X3591993Y40319911D01*
X3812301Y40490028D01*
X4005492Y40690408D01*
X4167449Y40916782D01*
X4294719Y41164325D01*
X4384591Y41427761D01*
X4435148Y41701474D01*
X4445314Y41979632D01*
X4414871Y42256306D01*
X4344469Y42525599D01*
X4289193Y42655675D01*
X4235610Y42781766D01*
X4235609Y42781768D01*
X4235607Y42781772D01*
X4090607Y43019364D01*
X4090604Y43019368D01*
X3956928Y43179997D01*
X5844353Y43179997D01*
X5864833Y43037550D01*
X5864834Y43037545D01*
X5864835Y43037543D01*
X5924623Y42906627D01*
X6018872Y42797857D01*
X6139947Y42720047D01*
X6278039Y42679500D01*
X6278040Y42679500D01*
X6421960Y42679500D01*
X6421961Y42679500D01*
X6560053Y42720047D01*
X6681128Y42797857D01*
X6775377Y42906627D01*
X6835165Y43037543D01*
X6855647Y43180000D01*
X6855647Y43180001D01*
X6855647Y43180004D01*
X6835166Y43322451D01*
X6835165Y43322452D01*
X6835165Y43322457D01*
X6775377Y43453373D01*
X6681128Y43562143D01*
X6681126Y43562144D01*
X6681124Y43562146D01*
X6560054Y43639953D01*
X6560050Y43639954D01*
X6421967Y43680499D01*
X6421961Y43680500D01*
X6278039Y43680500D01*
X6278038Y43680500D01*
X6278032Y43680499D01*
X6139949Y43639954D01*
X6139945Y43639953D01*
X6018875Y43562146D01*
X6018870Y43562142D01*
X5924622Y43453372D01*
X5864835Y43322457D01*
X5864833Y43322451D01*
X5844353Y43180004D01*
X5844353Y43179997D01*
X3956928Y43179997D01*
X3912562Y43233308D01*
X3912556Y43233314D01*
X3804678Y43329973D01*
X3705255Y43419056D01*
X3705253Y43419058D01*
X3705249Y43419061D01*
X3473124Y43572633D01*
X3473120Y43572635D01*
X3473117Y43572637D01*
X3221091Y43690782D01*
X3221089Y43690783D01*
X3221084Y43690785D01*
X2954551Y43770973D01*
X2954542Y43770975D01*
X2679182Y43811499D01*
X2679176Y43811500D01*
X2679172Y43811500D01*
X2470511Y43811500D01*
X2470507Y43811500D01*
X2262402Y43796269D01*
X2262396Y43796268D01*
X1990722Y43735751D01*
X1990710Y43735747D01*
X1730736Y43636315D01*
X1488002Y43500087D01*
X1488001Y43500086D01*
X1267699Y43329973D01*
X1267696Y43329970D01*
X1074513Y43129599D01*
X1074505Y43129589D01*
X912557Y42903228D01*
X912550Y42903217D01*
X785279Y42655674D01*
X695409Y42392242D01*
X644851Y42118521D01*
X634685Y41840375D01*
X254500Y41840375D01*
X254500Y44107600D01*
X275065Y44164101D01*
X327136Y44194165D01*
X342400Y44195500D01*
X60187402Y44195500D01*
X60243903Y44174935D01*
G37*
%TD.AperFunction*%
%TD*%
M02*
