%TF.GenerationSoftware,KiCad,Pcbnew,7.0.6*%
%TF.CreationDate,2024-01-20T21:08:05-07:00*%
%TF.ProjectId,SparkFun_AirQuality_Combo,53706172-6b46-4756-9e5f-416972517561,rev?*%
%TF.SameCoordinates,Original*%
%TF.FileFunction,Copper,L1,Top*%
%TF.FilePolarity,Positive*%
%FSLAX46Y46*%
G04 Gerber Fmt 4.6, Leading zero omitted, Abs format (unit mm)*
G04 Created by KiCad (PCBNEW 7.0.6) date 2024-01-20 21:08:05*
%MOMM*%
%LPD*%
G01*
G04 APERTURE LIST*
G04 Aperture macros list*
%AMRoundRect*
0 Rectangle with rounded corners*
0 $1 Rounding radius*
0 $2 $3 $4 $5 $6 $7 $8 $9 X,Y pos of 4 corners*
0 Add a 4 corners polygon primitive as box body*
4,1,4,$2,$3,$4,$5,$6,$7,$8,$9,$2,$3,0*
0 Add four circle primitives for the rounded corners*
1,1,$1+$1,$2,$3*
1,1,$1+$1,$4,$5*
1,1,$1+$1,$6,$7*
1,1,$1+$1,$8,$9*
0 Add four rect primitives between the rounded corners*
20,1,$1+$1,$2,$3,$4,$5,0*
20,1,$1+$1,$4,$5,$6,$7,0*
20,1,$1+$1,$6,$7,$8,$9,0*
20,1,$1+$1,$8,$9,$2,$3,0*%
%AMOutline5P*
0 Free polygon, 5 corners , with rotation*
0 The origin of the aperture is its center*
0 number of corners: always 5*
0 $1 to $10 corner X, Y*
0 $11 Rotation angle, in degrees counterclockwise*
0 create outline with 5 corners*
4,1,5,$1,$2,$3,$4,$5,$6,$7,$8,$9,$10,$1,$2,$11*%
%AMOutline6P*
0 Free polygon, 6 corners , with rotation*
0 The origin of the aperture is its center*
0 number of corners: always 6*
0 $1 to $12 corner X, Y*
0 $13 Rotation angle, in degrees counterclockwise*
0 create outline with 6 corners*
4,1,6,$1,$2,$3,$4,$5,$6,$7,$8,$9,$10,$11,$12,$1,$2,$13*%
%AMOutline7P*
0 Free polygon, 7 corners , with rotation*
0 The origin of the aperture is its center*
0 number of corners: always 7*
0 $1 to $14 corner X, Y*
0 $15 Rotation angle, in degrees counterclockwise*
0 create outline with 7 corners*
4,1,7,$1,$2,$3,$4,$5,$6,$7,$8,$9,$10,$11,$12,$13,$14,$1,$2,$15*%
%AMOutline8P*
0 Free polygon, 8 corners , with rotation*
0 The origin of the aperture is its center*
0 number of corners: always 8*
0 $1 to $16 corner X, Y*
0 $17 Rotation angle, in degrees counterclockwise*
0 create outline with 8 corners*
4,1,8,$1,$2,$3,$4,$5,$6,$7,$8,$9,$10,$11,$12,$13,$14,$15,$16,$1,$2,$17*%
G04 Aperture macros list end*
%TA.AperFunction,SMDPad,CuDef*%
%ADD10R,0.630000X0.830000*%
%TD*%
%TA.AperFunction,SMDPad,CuDef*%
%ADD11R,1.700000X0.600000*%
%TD*%
%TA.AperFunction,SMDPad,CuDef*%
%ADD12R,2.700000X1.000000*%
%TD*%
%TA.AperFunction,SMDPad,CuDef*%
%ADD13R,0.550000X1.200000*%
%TD*%
%TA.AperFunction,SMDPad,CuDef*%
%ADD14RoundRect,0.225000X-0.225000X-0.250000X0.225000X-0.250000X0.225000X0.250000X-0.225000X0.250000X0*%
%TD*%
%TA.AperFunction,SMDPad,CuDef*%
%ADD15RoundRect,0.218750X-0.218750X-0.256250X0.218750X-0.256250X0.218750X0.256250X-0.218750X0.256250X0*%
%TD*%
%TA.AperFunction,SMDPad,CuDef*%
%ADD16C,0.500000*%
%TD*%
%TA.AperFunction,SMDPad,CuDef*%
%ADD17RoundRect,0.250000X0.475000X-0.250000X0.475000X0.250000X-0.475000X0.250000X-0.475000X-0.250000X0*%
%TD*%
%TA.AperFunction,SMDPad,CuDef*%
%ADD18R,0.600000X1.350000*%
%TD*%
%TA.AperFunction,SMDPad,CuDef*%
%ADD19R,1.200000X2.000000*%
%TD*%
%TA.AperFunction,SMDPad,CuDef*%
%ADD20RoundRect,0.200000X0.275000X-0.200000X0.275000X0.200000X-0.275000X0.200000X-0.275000X-0.200000X0*%
%TD*%
%TA.AperFunction,SMDPad,CuDef*%
%ADD21RoundRect,0.225000X-0.250000X0.225000X-0.250000X-0.225000X0.250000X-0.225000X0.250000X0.225000X0*%
%TD*%
%TA.AperFunction,SMDPad,CuDef*%
%ADD22RoundRect,0.200000X-0.275000X0.200000X-0.275000X-0.200000X0.275000X-0.200000X0.275000X0.200000X0*%
%TD*%
%TA.AperFunction,ComponentPad*%
%ADD23C,1.879600*%
%TD*%
%TA.AperFunction,SMDPad,CuDef*%
%ADD24RoundRect,0.200000X-0.200000X-0.275000X0.200000X-0.275000X0.200000X0.275000X-0.200000X0.275000X0*%
%TD*%
%TA.AperFunction,SMDPad,CuDef*%
%ADD25Outline5P,-0.400000X0.750000X0.400000X0.750000X0.400000X-0.470000X0.120000X-0.750000X-0.400000X-0.750000X270.000000*%
%TD*%
%TA.AperFunction,SMDPad,CuDef*%
%ADD26R,1.500000X0.800000*%
%TD*%
%TA.AperFunction,SMDPad,CuDef*%
%ADD27R,0.800000X1.500000*%
%TD*%
%TA.AperFunction,SMDPad,CuDef*%
%ADD28R,4.800000X4.800000*%
%TD*%
%TA.AperFunction,SMDPad,CuDef*%
%ADD29RoundRect,0.225000X0.225000X0.250000X-0.225000X0.250000X-0.225000X-0.250000X0.225000X-0.250000X0*%
%TD*%
%TA.AperFunction,ViaPad*%
%ADD30C,0.560000*%
%TD*%
%TA.AperFunction,Conductor*%
%ADD31C,0.558800*%
%TD*%
%TA.AperFunction,Conductor*%
%ADD32C,0.406400*%
%TD*%
%TA.AperFunction,Conductor*%
%ADD33C,0.177800*%
%TD*%
G04 APERTURE END LIST*
D10*
%TO.P,D2,A,A*%
%TO.N,Net-(U5-SW)*%
X78302500Y16192500D03*
%TO.P,D2,C,C*%
%TO.N,5V*%
X76002500Y16192500D03*
%TD*%
D11*
%TO.P,U1,1,VDD*%
%TO.N,5V*%
X69340000Y15825000D03*
%TO.P,U1,2,GND*%
%TO.N,GND*%
X69340000Y14575000D03*
%TO.P,U1,3,SDA*%
%TO.N,SDA*%
X69340000Y13325000D03*
%TO.P,U1,4,SCL*%
%TO.N,SCL*%
X69340000Y12075000D03*
%TO.P,U1,5,SEL*%
%TO.N,GND*%
X69340000Y10825000D03*
%TO.P,U1,6,NC*%
%TO.N,unconnected-(U1-NC-Pad6)*%
X69340000Y9575000D03*
D12*
%TO.P,U1,NC1*%
%TO.N,N/C*%
X66140000Y7725000D03*
%TO.P,U1,NC2*%
X66140000Y17675000D03*
%TD*%
D13*
%TO.P,U5,1,SW*%
%TO.N,Net-(U5-SW)*%
X78102500Y14317600D03*
%TO.P,U5,2,GND*%
%TO.N,GND*%
X77152500Y14317600D03*
%TO.P,U5,3,FB*%
%TO.N,Net-(U5-FB)*%
X76202500Y14317600D03*
%TO.P,U5,4,~{SHDN}*%
%TO.N,3.3V*%
X76202500Y11717400D03*
%TO.P,U5,5,IN*%
X78102500Y11717400D03*
%TD*%
D14*
%TO.P,C4,1*%
%TO.N,3.3V*%
X74790000Y33655000D03*
%TO.P,C4,2*%
%TO.N,GND*%
X76340000Y33655000D03*
%TD*%
D15*
%TO.P,D1,1,K*%
%TO.N,GND*%
X66090700Y3492500D03*
%TO.P,D1,2,A*%
%TO.N,Net-(D1-A)*%
X67665700Y3492500D03*
%TD*%
D16*
%TO.P,FID3,*%
%TO.N,*%
X6350000Y43180000D03*
%TD*%
D17*
%TO.P,L2,1,1*%
%TO.N,3.3V*%
X80327500Y12067500D03*
%TO.P,L2,2,2*%
%TO.N,Net-(U5-SW)*%
X80327500Y13967500D03*
%TD*%
D18*
%TO.P,J1,1,Pin_1*%
%TO.N,GND*%
X72160000Y5080000D03*
%TO.P,J1,2,Pin_2*%
%TO.N,3.3V*%
X73160000Y5080000D03*
%TO.P,J1,3,Pin_3*%
%TO.N,SDA*%
X74160000Y5080000D03*
%TO.P,J1,4,Pin_4*%
%TO.N,SCL*%
X75160000Y5080000D03*
D19*
%TO.P,J1,NC1,NC*%
%TO.N,unconnected-(J1-NC-PadNC1)*%
X76460000Y1405000D03*
%TO.P,J1,NC2,NC*%
%TO.N,unconnected-(J1-NC-PadNC2)*%
X70860000Y1405000D03*
%TD*%
D16*
%TO.P,FID4,*%
%TO.N,*%
X81280000Y6350000D03*
%TD*%
D18*
%TO.P,J2,1,Pin_1*%
%TO.N,GND*%
X75160000Y39370000D03*
%TO.P,J2,2,Pin_2*%
%TO.N,3.3V*%
X74160000Y39370000D03*
%TO.P,J2,3,Pin_3*%
%TO.N,SDA*%
X73160000Y39370000D03*
%TO.P,J2,4,Pin_4*%
%TO.N,SCL*%
X72160000Y39370000D03*
D19*
%TO.P,J2,NC1,NC*%
%TO.N,unconnected-(J2-NC-PadNC1)*%
X70860000Y43045000D03*
%TO.P,J2,NC2,NC*%
%TO.N,unconnected-(J2-NC-PadNC2)*%
X76460000Y43045000D03*
%TD*%
D20*
%TO.P,R2,1*%
%TO.N,Net-(JP1-A)*%
X64135000Y35370000D03*
%TO.P,R2,2*%
%TO.N,SCL*%
X64135000Y37020000D03*
%TD*%
D21*
%TO.P,C9,1*%
%TO.N,5V*%
X72707500Y15697500D03*
%TO.P,C9,2*%
%TO.N,GND*%
X72707500Y14147500D03*
%TD*%
D22*
%TO.P,R6,1*%
%TO.N,Net-(U5-FB)*%
X74295000Y11937500D03*
%TO.P,R6,2*%
%TO.N,GND*%
X74295000Y10287500D03*
%TD*%
D23*
%TO.P,J3,1,Pin_1*%
%TO.N,GND*%
X68580000Y43180000D03*
%TO.P,J3,2,Pin_2*%
%TO.N,3.3V*%
X66040000Y43180000D03*
%TO.P,J3,3,Pin_3*%
%TO.N,SDA*%
X63500000Y43180000D03*
%TO.P,J3,4,Pin_4*%
%TO.N,SCL*%
X60960000Y43180000D03*
%TD*%
D24*
%TO.P,R3,1*%
%TO.N,Net-(JP2-A)*%
X66053200Y1587500D03*
%TO.P,R3,2*%
%TO.N,Net-(D1-A)*%
X67703200Y1587500D03*
%TD*%
D25*
%TO.P,U3,1,NC*%
%TO.N,unconnected-(U3-NC-Pad1)*%
X77660000Y24170000D03*
D26*
%TO.P,U3,2,NC*%
%TO.N,unconnected-(U3-NC-Pad2)*%
X77660000Y25420000D03*
%TO.P,U3,3,NC*%
%TO.N,unconnected-(U3-NC-Pad3)*%
X77660000Y26670000D03*
%TO.P,U3,4,NC*%
%TO.N,unconnected-(U3-NC-Pad4)*%
X77660000Y27920000D03*
%TO.P,U3,5,NC*%
%TO.N,unconnected-(U3-NC-Pad5)*%
X77660000Y29170000D03*
D27*
%TO.P,U3,6,GND*%
%TO.N,GND*%
X76160000Y30670000D03*
%TO.P,U3,7,VDD*%
%TO.N,3.3V*%
X74910000Y30670000D03*
%TO.P,U3,8,NC*%
%TO.N,unconnected-(U3-NC-Pad8)*%
X73660000Y30670000D03*
%TO.P,U3,9,SCL*%
%TO.N,SCL*%
X72410000Y30670000D03*
%TO.P,U3,10,SDA*%
%TO.N,SDA*%
X71160000Y30670000D03*
D26*
%TO.P,U3,11,NC*%
%TO.N,unconnected-(U3-NC-Pad11)*%
X69660000Y29170000D03*
%TO.P,U3,12,NC*%
%TO.N,unconnected-(U3-NC-Pad12)*%
X69660000Y27920000D03*
%TO.P,U3,13,NC*%
%TO.N,unconnected-(U3-NC-Pad13)*%
X69660000Y26670000D03*
%TO.P,U3,14,NC*%
%TO.N,unconnected-(U3-NC-Pad14)*%
X69660000Y25420000D03*
%TO.P,U3,15,NC*%
%TO.N,unconnected-(U3-NC-Pad15)*%
X69660000Y24170000D03*
D27*
%TO.P,U3,16,NC*%
%TO.N,unconnected-(U3-NC-Pad16)*%
X71160000Y22670000D03*
%TO.P,U3,17,NC*%
%TO.N,unconnected-(U3-NC-Pad17)*%
X72410000Y22670000D03*
%TO.P,U3,18,NC*%
%TO.N,unconnected-(U3-NC-Pad18)*%
X73660000Y22670000D03*
%TO.P,U3,19,VDDH*%
%TO.N,3.3V*%
X74910000Y22670000D03*
%TO.P,U3,20,GND*%
%TO.N,GND*%
X76160000Y22670000D03*
D28*
%TO.P,U3,21,GND*%
X73660000Y26670000D03*
%TD*%
D20*
%TO.P,R1,1*%
%TO.N,Net-(JP1-B)*%
X66675000Y35370000D03*
%TO.P,R1,2*%
%TO.N,SDA*%
X66675000Y37020000D03*
%TD*%
D29*
%TO.P,C3,1*%
%TO.N,3.3V*%
X71895000Y33655000D03*
%TO.P,C3,2*%
%TO.N,GND*%
X70345000Y33655000D03*
%TD*%
D22*
%TO.P,R5,1*%
%TO.N,5V*%
X74295000Y15747500D03*
%TO.P,R5,2*%
%TO.N,Net-(U5-FB)*%
X74295000Y14097500D03*
%TD*%
D21*
%TO.P,C5,1*%
%TO.N,5V*%
X71120000Y15697500D03*
%TO.P,C5,2*%
%TO.N,GND*%
X71120000Y14147500D03*
%TD*%
D29*
%TO.P,C7,1*%
%TO.N,3.3V*%
X77927500Y9842500D03*
%TO.P,C7,2*%
%TO.N,GND*%
X76377500Y9842500D03*
%TD*%
D30*
%TO.N,3.3V*%
X80010000Y9842500D03*
%TO.N,Net-(U5-SW)*%
X80327500Y16192500D03*
%TO.N,3.3V*%
X74930000Y6985000D03*
X74930000Y20955000D03*
X74910000Y32267484D03*
X71869200Y34925000D03*
%TO.N,GND*%
X76200000Y8572500D03*
X71755000Y28575000D03*
X77152500Y13017500D03*
X75565000Y24765000D03*
X69215000Y33972500D03*
X64770000Y4127500D03*
X72072500Y3810000D03*
X70802500Y10795000D03*
X72072500Y6350000D03*
X75565000Y28575000D03*
X71755000Y24765000D03*
X76200000Y32385000D03*
X75247500Y40640000D03*
X71120000Y13017500D03*
X77470000Y33655000D03*
X76200000Y39052500D03*
X76200000Y20955000D03*
%TO.N,SDA*%
X73977500Y8255000D03*
X73977500Y3810000D03*
X73342500Y34925000D03*
%TO.N,SCL*%
X73025000Y12065000D03*
X72390000Y32385000D03*
X68897500Y38100000D03*
X74930000Y3175000D03*
X64135000Y38100000D03*
%TO.N,Net-(JP1-A)*%
X64135000Y33337500D03*
%TO.N,Net-(JP1-B)*%
X66675000Y33337500D03*
%TO.N,Net-(JP2-A)*%
X64452500Y1587500D03*
%TD*%
D31*
%TO.N,3.3V*%
X80010000Y9842500D02*
X77927500Y9842500D01*
%TO.N,Net-(U5-SW)*%
X80327500Y16192500D02*
X78302500Y16192500D01*
D32*
%TO.N,3.3V*%
X66040000Y43180000D02*
X66040000Y41592500D01*
X71895000Y33655000D02*
X74790000Y33655000D01*
X66675000Y40957500D02*
X73660000Y40957500D01*
D33*
X71869200Y34925000D02*
X71869200Y33680800D01*
D32*
X73160000Y5080000D02*
X73160000Y6485000D01*
X73660000Y6985000D02*
X77152500Y6985000D01*
X77927500Y9842500D02*
X77927500Y10617500D01*
X78102500Y11717400D02*
X79027400Y11717400D01*
X73160000Y6485000D02*
X73660000Y6985000D01*
X66040000Y41592500D02*
X66675000Y40957500D01*
X74160000Y40457500D02*
X74160000Y39370000D01*
X76202500Y11717400D02*
X78102500Y11717400D01*
X74790000Y32387484D02*
X74790000Y33655000D01*
X77927500Y7760000D02*
X77927500Y9842500D01*
X77152500Y6985000D02*
X77927500Y7760000D01*
X74790000Y35700000D02*
X74790000Y33655000D01*
D33*
X71869200Y33680800D02*
X71895000Y33655000D01*
D32*
X78105000Y10795000D02*
X78102500Y10797500D01*
X77927500Y10617500D02*
X78105000Y10795000D01*
X74910000Y22670000D02*
X74910000Y20975000D01*
X74910000Y20975000D02*
X74930000Y20955000D01*
X74910000Y30670000D02*
X74910000Y32267484D01*
X78102500Y10797500D02*
X78102500Y11717400D01*
X73660000Y40957500D02*
X74160000Y40457500D01*
X79377500Y12067500D02*
X80327500Y12067500D01*
X79027400Y11717400D02*
X79377500Y12067500D01*
X74160000Y39370000D02*
X74160000Y36330000D01*
X74160000Y36330000D02*
X74790000Y35700000D01*
X74910000Y32267484D02*
X74790000Y32387484D01*
%TO.N,5V*%
X74295000Y15747500D02*
X75120000Y15747500D01*
X72707500Y15697500D02*
X74245000Y15697500D01*
X71120000Y15697500D02*
X72707500Y15697500D01*
X69340000Y15825000D02*
X70992500Y15825000D01*
X70992500Y15825000D02*
X71120000Y15697500D01*
X75565000Y16192500D02*
X76002500Y16192500D01*
X74245000Y15697500D02*
X74295000Y15747500D01*
X75120000Y15747500D02*
X75565000Y16192500D01*
D33*
%TO.N,Net-(D1-A)*%
X67703200Y1587500D02*
X67703200Y3455000D01*
X67703200Y3455000D02*
X67665700Y3492500D01*
%TO.N,SDA*%
X66992500Y9842500D02*
X68580000Y8255000D01*
X67300000Y13325000D02*
X66992500Y13017500D01*
X66675000Y39370000D02*
X66357500Y39687500D01*
X63500000Y40640000D02*
X63500000Y43180000D01*
X66675000Y37020000D02*
X66675000Y39370000D01*
X69340000Y13325000D02*
X67300000Y13325000D01*
X73160000Y39370000D02*
X73160000Y37020679D01*
X74160000Y3992500D02*
X73977500Y3810000D01*
X74160000Y5080000D02*
X74160000Y3992500D01*
X68580000Y8255000D02*
X73977500Y8255000D01*
X64452500Y39687500D02*
X63500000Y40640000D01*
X71160000Y36980000D02*
X71120000Y37020000D01*
X71120000Y37020000D02*
X73159321Y37020000D01*
X66357500Y39687500D02*
X64452500Y39687500D01*
X73342500Y34925000D02*
X73160000Y35107500D01*
X71160000Y30670000D02*
X71160000Y36980000D01*
X73159321Y37020000D02*
X73160000Y37020679D01*
X71120000Y37020000D02*
X66675000Y37020000D01*
X73160000Y35107500D02*
X73160000Y37020679D01*
X66992500Y13017500D02*
X66992500Y9842500D01*
%TO.N,SCL*%
X69340000Y12075000D02*
X73015000Y12075000D01*
X64135000Y37020000D02*
X64135000Y38100000D01*
X73015000Y12075000D02*
X73025000Y12065000D01*
X72410000Y32365000D02*
X72390000Y32385000D01*
X72160000Y39370000D02*
X70167500Y39370000D01*
X72410000Y30670000D02*
X72410000Y32365000D01*
X75160000Y3405000D02*
X75160000Y5080000D01*
X74930000Y3175000D02*
X75160000Y3405000D01*
X70167500Y39370000D02*
X68897500Y38100000D01*
%TO.N,Net-(JP1-A)*%
X64135000Y35370000D02*
X64135000Y33337500D01*
%TO.N,Net-(JP1-B)*%
X66675000Y35370000D02*
X66675000Y33337500D01*
%TO.N,Net-(JP2-A)*%
X64452500Y1587500D02*
X66053200Y1587500D01*
D32*
%TO.N,Net-(U5-SW)*%
X78302500Y16192500D02*
X78302500Y15437500D01*
X78302500Y15437500D02*
X78102500Y15237500D01*
X78102500Y14317600D02*
X79977400Y14317600D01*
X78102500Y15237500D02*
X78102500Y14317600D01*
X79977400Y14317600D02*
X80327500Y13967500D01*
D33*
%TO.N,Net-(U5-FB)*%
X75595100Y14317600D02*
X75375000Y14097500D01*
X75375000Y14097500D02*
X74295000Y14097500D01*
X76202500Y14317600D02*
X75595100Y14317600D01*
X74295000Y11937500D02*
X74295000Y14097500D01*
%TD*%
%TA.AperFunction,Conductor*%
%TO.N,GND*%
G36*
X60243903Y44174935D02*
G01*
X60273967Y44122864D01*
X60263526Y44063650D01*
X60246620Y44042641D01*
X60130173Y43936485D01*
X60005302Y43771129D01*
X60005300Y43771126D01*
X60005300Y43771125D01*
X59939984Y43639953D01*
X59912936Y43585634D01*
X59912934Y43585629D01*
X59856229Y43386335D01*
X59856229Y43386334D01*
X59837110Y43180001D01*
X59837110Y43180000D01*
X59856229Y42973667D01*
X59856229Y42973666D01*
X59910830Y42781768D01*
X59912936Y42774365D01*
X60005300Y42588875D01*
X60130174Y42423514D01*
X60221584Y42340183D01*
X60283305Y42283916D01*
X60283314Y42283910D01*
X60400759Y42211192D01*
X60459485Y42174830D01*
X60652707Y42099976D01*
X60652711Y42099976D01*
X60652715Y42099974D01*
X60754074Y42081027D01*
X60856393Y42061900D01*
X60856394Y42061900D01*
X61063606Y42061900D01*
X61063607Y42061900D01*
X61198741Y42087162D01*
X61267284Y42099974D01*
X61267286Y42099975D01*
X61267293Y42099976D01*
X61460515Y42174830D01*
X61636692Y42283914D01*
X61789826Y42423514D01*
X61914700Y42588875D01*
X62007064Y42774365D01*
X62063771Y42973670D01*
X62082890Y43180000D01*
X62063771Y43386330D01*
X62007064Y43585635D01*
X61914700Y43771125D01*
X61789826Y43936486D01*
X61712733Y44006766D01*
X61673380Y44042641D01*
X61645480Y44095903D01*
X61658343Y44154638D01*
X61705951Y44191364D01*
X61732598Y44195500D01*
X62727402Y44195500D01*
X62783903Y44174935D01*
X62813967Y44122864D01*
X62803526Y44063650D01*
X62786620Y44042641D01*
X62670173Y43936485D01*
X62545302Y43771129D01*
X62545300Y43771126D01*
X62545300Y43771125D01*
X62479984Y43639953D01*
X62452936Y43585634D01*
X62452934Y43585629D01*
X62396229Y43386335D01*
X62396229Y43386334D01*
X62377110Y43180001D01*
X62377110Y43180000D01*
X62396229Y42973667D01*
X62396229Y42973666D01*
X62450830Y42781768D01*
X62452936Y42774365D01*
X62545300Y42588875D01*
X62670174Y42423514D01*
X62761584Y42340183D01*
X62823305Y42283916D01*
X62823314Y42283910D01*
X62940759Y42211192D01*
X62999485Y42174830D01*
X62999489Y42174829D01*
X62999488Y42174829D01*
X63176653Y42106195D01*
X63221910Y42066609D01*
X63232800Y42024231D01*
X63232800Y40674981D01*
X63231111Y40657832D01*
X63227564Y40640001D01*
X63248303Y40535742D01*
X63278849Y40490028D01*
X63307356Y40447362D01*
X63307360Y40447358D01*
X63322470Y40437262D01*
X63335792Y40426330D01*
X64238831Y39523291D01*
X64249762Y39509970D01*
X64259859Y39494859D01*
X64348244Y39435803D01*
X64426182Y39420300D01*
X64426183Y39420300D01*
X64452500Y39415065D01*
X64470326Y39418612D01*
X64487475Y39420300D01*
X66210412Y39420300D01*
X66266913Y39399735D01*
X66272566Y39394555D01*
X66382054Y39285068D01*
X66407465Y39230574D01*
X66407800Y39222913D01*
X66407800Y37680689D01*
X66387235Y37624188D01*
X66335164Y37594124D01*
X66332603Y37593712D01*
X66290565Y37587587D01*
X66290563Y37587587D01*
X66290561Y37587586D01*
X66290559Y37587585D01*
X66177142Y37532139D01*
X66087861Y37442858D01*
X66032415Y37329441D01*
X66032414Y37329439D01*
X66032413Y37329437D01*
X66032413Y37329435D01*
X66021700Y37255904D01*
X66021700Y36784096D01*
X66032413Y36710565D01*
X66032413Y36710564D01*
X66032414Y36710562D01*
X66032415Y36710560D01*
X66087861Y36597143D01*
X66087863Y36597141D01*
X66087864Y36597139D01*
X66177139Y36507864D01*
X66177140Y36507864D01*
X66177142Y36507862D01*
X66270386Y36462278D01*
X66290565Y36452413D01*
X66364096Y36441700D01*
X66364100Y36441700D01*
X66985899Y36441700D01*
X66985904Y36441700D01*
X67059435Y36452413D01*
X67172861Y36507864D01*
X67262136Y36597139D01*
X67314136Y36703507D01*
X67357425Y36745233D01*
X67393104Y36752800D01*
X70804900Y36752800D01*
X70861401Y36732235D01*
X70891465Y36680164D01*
X70892800Y36664900D01*
X70892800Y34336039D01*
X70872235Y34279538D01*
X70820164Y34249474D01*
X70764995Y34257719D01*
X70696022Y34292862D01*
X70696023Y34292862D01*
X70601701Y34307800D01*
X70548200Y34307800D01*
X70548200Y33002201D01*
X70548201Y33002200D01*
X70601700Y33002200D01*
X70601700Y33002201D01*
X70696023Y33017139D01*
X70696024Y33017139D01*
X70764994Y33052281D01*
X70824673Y33059609D01*
X70875100Y33026862D01*
X70892800Y32973962D01*
X70892800Y31686200D01*
X70872235Y31629699D01*
X70820164Y31599635D01*
X70804901Y31598300D01*
X70742436Y31598300D01*
X70742434Y31598299D01*
X70690434Y31587957D01*
X70690433Y31587957D01*
X70631454Y31548548D01*
X70631452Y31548546D01*
X70631209Y31548182D01*
X70592045Y31489569D01*
X70590531Y31481955D01*
X70581700Y31437560D01*
X70581700Y29902437D01*
X70581701Y29902435D01*
X70593733Y29841939D01*
X70590939Y29841384D01*
X70592991Y29794409D01*
X70556388Y29746707D01*
X70497686Y29733693D01*
X70488061Y29736272D01*
X70488060Y29736266D01*
X70479569Y29737955D01*
X70427561Y29748300D01*
X70427559Y29748300D01*
X68892436Y29748300D01*
X68892434Y29748299D01*
X68840434Y29737957D01*
X68840433Y29737957D01*
X68781454Y29698548D01*
X68781452Y29698546D01*
X68742045Y29639569D01*
X68731700Y29587560D01*
X68731700Y28752437D01*
X68731701Y28752435D01*
X68742043Y28700435D01*
X68742043Y28700434D01*
X68742044Y28700432D01*
X68742045Y28700431D01*
X68781453Y28641453D01*
X68816424Y28618086D01*
X68851977Y28569599D01*
X68848045Y28509600D01*
X68816426Y28471916D01*
X68781454Y28448548D01*
X68781452Y28448546D01*
X68742045Y28389569D01*
X68731700Y28337560D01*
X68731700Y27502437D01*
X68731701Y27502435D01*
X68742043Y27450435D01*
X68742043Y27450434D01*
X68742044Y27450432D01*
X68742045Y27450431D01*
X68781453Y27391453D01*
X68814930Y27369084D01*
X68816424Y27368086D01*
X68851978Y27319596D01*
X68848045Y27259598D01*
X68816424Y27221914D01*
X68781454Y27198548D01*
X68781452Y27198546D01*
X68742045Y27139569D01*
X68731700Y27087560D01*
X68731700Y26252437D01*
X68731701Y26252435D01*
X68742043Y26200435D01*
X68742043Y26200434D01*
X68742044Y26200432D01*
X68742045Y26200431D01*
X68781453Y26141453D01*
X68816424Y26118086D01*
X68851977Y26069599D01*
X68848045Y26009600D01*
X68816426Y25971916D01*
X68781454Y25948548D01*
X68781452Y25948546D01*
X68742045Y25889569D01*
X68731700Y25837560D01*
X68731700Y25002437D01*
X68731701Y25002435D01*
X68742043Y24950435D01*
X68742043Y24950434D01*
X68742044Y24950432D01*
X68742045Y24950431D01*
X68781453Y24891453D01*
X68814930Y24869084D01*
X68816424Y24868086D01*
X68851978Y24819596D01*
X68848045Y24759598D01*
X68816424Y24721914D01*
X68781454Y24698548D01*
X68781452Y24698546D01*
X68742045Y24639569D01*
X68731700Y24587560D01*
X68731700Y23752437D01*
X68731701Y23752435D01*
X68742043Y23700435D01*
X68742043Y23700434D01*
X68742044Y23700432D01*
X68742045Y23700431D01*
X68781453Y23641453D01*
X68840431Y23602045D01*
X68892439Y23591700D01*
X70427560Y23591701D01*
X70427563Y23591701D01*
X70427565Y23591702D01*
X70488061Y23603733D01*
X70488616Y23600938D01*
X70535572Y23602998D01*
X70583283Y23566405D01*
X70596310Y23507706D01*
X70593727Y23498062D01*
X70593734Y23498060D01*
X70592045Y23489570D01*
X70592045Y23489569D01*
X70590531Y23481955D01*
X70581700Y23437560D01*
X70581700Y21902437D01*
X70581701Y21902435D01*
X70592043Y21850435D01*
X70592043Y21850434D01*
X70592044Y21850432D01*
X70592045Y21850431D01*
X70631453Y21791453D01*
X70690431Y21752045D01*
X70742439Y21741700D01*
X71577560Y21741701D01*
X71577563Y21741701D01*
X71577565Y21741702D01*
X71629565Y21752044D01*
X71629566Y21752044D01*
X71629566Y21752045D01*
X71629569Y21752045D01*
X71688547Y21791453D01*
X71711915Y21826426D01*
X71760403Y21861978D01*
X71820401Y21858046D01*
X71858084Y21826427D01*
X71881453Y21791453D01*
X71940431Y21752045D01*
X71992439Y21741700D01*
X72827560Y21741701D01*
X72827563Y21741701D01*
X72827565Y21741702D01*
X72879565Y21752044D01*
X72879566Y21752044D01*
X72879566Y21752045D01*
X72879569Y21752045D01*
X72938547Y21791453D01*
X72961915Y21826426D01*
X73010403Y21861978D01*
X73070401Y21858046D01*
X73108084Y21826427D01*
X73131453Y21791453D01*
X73190431Y21752045D01*
X73242439Y21741700D01*
X74077560Y21741701D01*
X74077563Y21741701D01*
X74077565Y21741702D01*
X74129565Y21752044D01*
X74129566Y21752044D01*
X74129566Y21752045D01*
X74129569Y21752045D01*
X74188547Y21791453D01*
X74211915Y21826426D01*
X74260403Y21861978D01*
X74320401Y21858046D01*
X74358084Y21826427D01*
X74381453Y21791453D01*
X74440431Y21752045D01*
X74457747Y21748601D01*
X74509151Y21717410D01*
X74528500Y21662390D01*
X74528500Y21198195D01*
X74520557Y21161681D01*
X74485741Y21085445D01*
X74485740Y21085442D01*
X74466987Y20955004D01*
X74466987Y20954997D01*
X74485740Y20824561D01*
X74485742Y20824555D01*
X74540489Y20704675D01*
X74591497Y20645809D01*
X74626791Y20605078D01*
X74626793Y20605077D01*
X74626794Y20605076D01*
X74737653Y20533831D01*
X74737654Y20533831D01*
X74737657Y20533829D01*
X74823782Y20508541D01*
X74864101Y20496701D01*
X74864104Y20496701D01*
X74864106Y20496700D01*
X74864107Y20496700D01*
X74995893Y20496700D01*
X74995894Y20496700D01*
X74995896Y20496701D01*
X74995898Y20496701D01*
X75010927Y20501115D01*
X75122343Y20533829D01*
X75233209Y20605078D01*
X75319511Y20704676D01*
X75374258Y20824554D01*
X75393013Y20955000D01*
X75393013Y20955004D01*
X75374259Y21085440D01*
X75374258Y21085441D01*
X75374258Y21085446D01*
X75319511Y21205324D01*
X75319510Y21205325D01*
X75319510Y21205326D01*
X75319507Y21205330D01*
X75312968Y21212877D01*
X75291511Y21269045D01*
X75291500Y21270437D01*
X75291500Y21662390D01*
X75312065Y21718891D01*
X75362255Y21748602D01*
X75379569Y21752045D01*
X75438547Y21791453D01*
X75462216Y21826877D01*
X75510702Y21862428D01*
X75570700Y21858496D01*
X75608385Y21826876D01*
X75631811Y21791818D01*
X75631817Y21791812D01*
X75690624Y21752517D01*
X75742486Y21742201D01*
X75956800Y21742201D01*
X75956800Y22466800D01*
X76363200Y22466800D01*
X76363200Y21742202D01*
X76363201Y21742201D01*
X76577509Y21742201D01*
X76629375Y21752517D01*
X76688182Y21791812D01*
X76688188Y21791818D01*
X76727483Y21850625D01*
X76737800Y21902488D01*
X76737800Y22466800D01*
X76363200Y22466800D01*
X75956800Y22466800D01*
X75956800Y23597799D01*
X75956799Y23597800D01*
X76363200Y23597800D01*
X76363200Y22873201D01*
X76363201Y22873200D01*
X76737798Y22873200D01*
X76737799Y22873202D01*
X76737799Y23437509D01*
X76727483Y23489376D01*
X76688188Y23548183D01*
X76688182Y23548189D01*
X76629375Y23587484D01*
X76577513Y23597800D01*
X76363200Y23597800D01*
X75956799Y23597800D01*
X75742486Y23597800D01*
X75742484Y23597799D01*
X75690628Y23587486D01*
X75690624Y23587484D01*
X75631817Y23548189D01*
X75631810Y23548182D01*
X75608384Y23513124D01*
X75559894Y23477572D01*
X75499896Y23481506D01*
X75462214Y23513127D01*
X75438549Y23548544D01*
X75438547Y23548547D01*
X75379569Y23587955D01*
X75327561Y23598300D01*
X75327559Y23598300D01*
X74492436Y23598300D01*
X74492434Y23598299D01*
X74440434Y23587957D01*
X74440433Y23587957D01*
X74381454Y23548548D01*
X74381452Y23548546D01*
X74358086Y23513576D01*
X74309596Y23478022D01*
X74249598Y23481955D01*
X74211914Y23513576D01*
X74210916Y23515070D01*
X74188547Y23548547D01*
X74129569Y23587955D01*
X74077561Y23598300D01*
X74077559Y23598300D01*
X73242436Y23598300D01*
X73242434Y23598299D01*
X73190434Y23587957D01*
X73190433Y23587957D01*
X73131454Y23548548D01*
X73131452Y23548546D01*
X73108086Y23513576D01*
X73059596Y23478022D01*
X72999598Y23481955D01*
X72961914Y23513576D01*
X72960916Y23515070D01*
X72938547Y23548547D01*
X72879569Y23587955D01*
X72827561Y23598300D01*
X72827559Y23598300D01*
X71992436Y23598300D01*
X71992434Y23598299D01*
X71940434Y23587957D01*
X71940433Y23587957D01*
X71881454Y23548548D01*
X71881452Y23548546D01*
X71858086Y23513576D01*
X71809596Y23478022D01*
X71749598Y23481955D01*
X71711914Y23513576D01*
X71710916Y23515070D01*
X71688547Y23548547D01*
X71629569Y23587955D01*
X71577561Y23598300D01*
X71577559Y23598300D01*
X70742436Y23598300D01*
X70742434Y23598299D01*
X70681939Y23586267D01*
X70681383Y23589059D01*
X70634401Y23587011D01*
X70586702Y23623619D01*
X70573693Y23682322D01*
X70576270Y23691940D01*
X70576266Y23691940D01*
X70577955Y23700432D01*
X70588300Y23752439D01*
X70588299Y24587560D01*
X70588299Y24587561D01*
X70588299Y24587564D01*
X70588298Y24587566D01*
X70577956Y24639566D01*
X70577956Y24639567D01*
X70577955Y24639569D01*
X70538547Y24698547D01*
X70503574Y24721916D01*
X70468022Y24770403D01*
X70471954Y24830401D01*
X70503573Y24868085D01*
X70538547Y24891453D01*
X70577955Y24950431D01*
X70588300Y25002439D01*
X70588299Y25837560D01*
X70588299Y25837561D01*
X70588299Y25837564D01*
X70588298Y25837566D01*
X70577956Y25889566D01*
X70577956Y25889567D01*
X70577955Y25889569D01*
X70538547Y25948547D01*
X70538543Y25948550D01*
X70503574Y25971916D01*
X70468021Y26020405D01*
X70471955Y26080404D01*
X70503574Y26118086D01*
X70538547Y26141453D01*
X70577955Y26200431D01*
X70588300Y26252439D01*
X70588300Y26466800D01*
X71082201Y26466800D01*
X71082201Y24252492D01*
X71092516Y24200625D01*
X71131811Y24141818D01*
X71131817Y24141812D01*
X71190624Y24102517D01*
X71242487Y24092201D01*
X73456797Y24092201D01*
X73456798Y24092202D01*
X73863200Y24092202D01*
X73863201Y24092201D01*
X76077509Y24092201D01*
X76129375Y24102517D01*
X76188182Y24141812D01*
X76188188Y24141818D01*
X76227483Y24200625D01*
X76237800Y24252488D01*
X76237800Y26466800D01*
X73863201Y26466800D01*
X73863200Y26466799D01*
X73863200Y24092202D01*
X73456798Y24092202D01*
X73456799Y24092203D01*
X73456799Y26466800D01*
X71082201Y26466800D01*
X70588300Y26466800D01*
X70588299Y26873201D01*
X71082200Y26873201D01*
X71082201Y26873200D01*
X73456799Y26873200D01*
X73456799Y26873202D01*
X73863199Y26873202D01*
X73863201Y26873200D01*
X76237798Y26873200D01*
X76237799Y26873201D01*
X76237799Y29087509D01*
X76227483Y29139376D01*
X76188188Y29198183D01*
X76188182Y29198189D01*
X76129375Y29237484D01*
X76077513Y29247800D01*
X73863201Y29247800D01*
X73863199Y29247799D01*
X73863199Y26873202D01*
X73456799Y26873202D01*
X73456799Y29247799D01*
X73456798Y29247800D01*
X71242491Y29247800D01*
X71190624Y29237484D01*
X71131817Y29198189D01*
X71131811Y29198183D01*
X71092516Y29139376D01*
X71082200Y29087513D01*
X71082200Y26873201D01*
X70588299Y26873201D01*
X70588299Y27087560D01*
X70588299Y27087561D01*
X70588299Y27087564D01*
X70588298Y27087566D01*
X70577956Y27139566D01*
X70577956Y27139567D01*
X70577955Y27139569D01*
X70538547Y27198547D01*
X70503574Y27221916D01*
X70468022Y27270403D01*
X70471954Y27330401D01*
X70503573Y27368085D01*
X70538547Y27391453D01*
X70577955Y27450431D01*
X70588300Y27502439D01*
X70588299Y28337560D01*
X70588299Y28337561D01*
X70588299Y28337564D01*
X70588298Y28337566D01*
X70577956Y28389566D01*
X70577956Y28389567D01*
X70577955Y28389569D01*
X70538547Y28448547D01*
X70538543Y28448550D01*
X70503574Y28471916D01*
X70468021Y28520405D01*
X70471955Y28580404D01*
X70503574Y28618086D01*
X70538547Y28641453D01*
X70577955Y28700431D01*
X70588300Y28752439D01*
X70588299Y29587560D01*
X70588299Y29587561D01*
X70588299Y29587564D01*
X70588298Y29587566D01*
X70576267Y29648061D01*
X70579061Y29648617D01*
X70577005Y29695581D01*
X70613602Y29743288D01*
X70672302Y29756310D01*
X70681938Y29753729D01*
X70681940Y29753734D01*
X70690430Y29752046D01*
X70690431Y29752045D01*
X70742439Y29741700D01*
X71577560Y29741701D01*
X71577563Y29741701D01*
X71577565Y29741702D01*
X71629565Y29752044D01*
X71629566Y29752044D01*
X71629566Y29752045D01*
X71629569Y29752045D01*
X71688547Y29791453D01*
X71711915Y29826426D01*
X71760403Y29861978D01*
X71820401Y29858046D01*
X71858084Y29826427D01*
X71881453Y29791453D01*
X71940431Y29752045D01*
X71992439Y29741700D01*
X72827560Y29741701D01*
X72827563Y29741701D01*
X72827565Y29741702D01*
X72879565Y29752044D01*
X72879566Y29752044D01*
X72879566Y29752045D01*
X72879569Y29752045D01*
X72938547Y29791453D01*
X72961915Y29826426D01*
X73010403Y29861978D01*
X73070401Y29858046D01*
X73108084Y29826427D01*
X73131453Y29791453D01*
X73190431Y29752045D01*
X73242439Y29741700D01*
X74077560Y29741701D01*
X74077563Y29741701D01*
X74077565Y29741702D01*
X74129565Y29752044D01*
X74129566Y29752044D01*
X74129566Y29752045D01*
X74129569Y29752045D01*
X74188547Y29791453D01*
X74211915Y29826426D01*
X74260403Y29861978D01*
X74320401Y29858046D01*
X74358084Y29826427D01*
X74381453Y29791453D01*
X74440431Y29752045D01*
X74492439Y29741700D01*
X75327560Y29741701D01*
X75327563Y29741701D01*
X75327565Y29741702D01*
X75379565Y29752044D01*
X75379566Y29752044D01*
X75379566Y29752045D01*
X75379569Y29752045D01*
X75438547Y29791453D01*
X75462216Y29826877D01*
X75510702Y29862428D01*
X75570700Y29858496D01*
X75608385Y29826876D01*
X75631811Y29791818D01*
X75631817Y29791812D01*
X75690624Y29752517D01*
X75742486Y29742201D01*
X75956800Y29742201D01*
X75956800Y29742202D01*
X76363200Y29742202D01*
X76363201Y29742201D01*
X76577509Y29742201D01*
X76637866Y29754205D01*
X76638387Y29751582D01*
X76685852Y29753662D01*
X76733561Y29717068D01*
X76746585Y29658368D01*
X76743472Y29646744D01*
X76731700Y29587560D01*
X76731700Y28752437D01*
X76731701Y28752435D01*
X76742043Y28700435D01*
X76742043Y28700434D01*
X76742044Y28700432D01*
X76742045Y28700431D01*
X76781453Y28641453D01*
X76816424Y28618086D01*
X76851977Y28569599D01*
X76848045Y28509600D01*
X76816426Y28471916D01*
X76781454Y28448548D01*
X76781452Y28448546D01*
X76742045Y28389569D01*
X76731700Y28337560D01*
X76731700Y27502437D01*
X76731701Y27502435D01*
X76742043Y27450435D01*
X76742043Y27450434D01*
X76742044Y27450432D01*
X76742045Y27450431D01*
X76781453Y27391453D01*
X76814930Y27369084D01*
X76816424Y27368086D01*
X76851978Y27319596D01*
X76848045Y27259598D01*
X76816424Y27221914D01*
X76781454Y27198548D01*
X76781452Y27198546D01*
X76742045Y27139569D01*
X76731700Y27087560D01*
X76731700Y26252437D01*
X76731701Y26252435D01*
X76742043Y26200435D01*
X76742043Y26200434D01*
X76742044Y26200432D01*
X76742045Y26200431D01*
X76781453Y26141453D01*
X76816424Y26118086D01*
X76851977Y26069599D01*
X76848045Y26009600D01*
X76816426Y25971916D01*
X76781454Y25948548D01*
X76781452Y25948546D01*
X76742045Y25889569D01*
X76731700Y25837560D01*
X76731700Y25002437D01*
X76731701Y25002435D01*
X76742043Y24950435D01*
X76742043Y24950434D01*
X76742044Y24950432D01*
X76742045Y24950431D01*
X76781453Y24891453D01*
X76814930Y24869084D01*
X76816424Y24868086D01*
X76851978Y24819596D01*
X76848045Y24759598D01*
X76816424Y24721914D01*
X76781454Y24698548D01*
X76781452Y24698546D01*
X76742045Y24639569D01*
X76731700Y24587560D01*
X76731700Y24032437D01*
X76742045Y23980431D01*
X76771505Y23936341D01*
X77076341Y23631506D01*
X77120431Y23602045D01*
X77172439Y23591700D01*
X78427560Y23591701D01*
X78427563Y23591701D01*
X78427565Y23591702D01*
X78479565Y23602044D01*
X78479566Y23602044D01*
X78479566Y23602045D01*
X78479569Y23602045D01*
X78538547Y23641453D01*
X78577955Y23700431D01*
X78588300Y23752439D01*
X78588299Y24587560D01*
X78588299Y24587561D01*
X78588299Y24587564D01*
X78588298Y24587566D01*
X78577956Y24639566D01*
X78577956Y24639567D01*
X78577955Y24639569D01*
X78538547Y24698547D01*
X78503574Y24721916D01*
X78468022Y24770403D01*
X78471954Y24830401D01*
X78503573Y24868085D01*
X78538547Y24891453D01*
X78577955Y24950431D01*
X78588300Y25002439D01*
X78588299Y25837560D01*
X78588299Y25837561D01*
X78588299Y25837564D01*
X78588298Y25837566D01*
X78577956Y25889566D01*
X78577956Y25889567D01*
X78577955Y25889569D01*
X78538547Y25948547D01*
X78538543Y25948550D01*
X78503574Y25971916D01*
X78468021Y26020405D01*
X78471955Y26080404D01*
X78503574Y26118086D01*
X78538547Y26141453D01*
X78577955Y26200431D01*
X78588300Y26252439D01*
X78588299Y27087560D01*
X78588299Y27087561D01*
X78588299Y27087564D01*
X78588298Y27087566D01*
X78577956Y27139566D01*
X78577956Y27139567D01*
X78577955Y27139569D01*
X78538547Y27198547D01*
X78503574Y27221916D01*
X78468022Y27270403D01*
X78471954Y27330401D01*
X78503573Y27368085D01*
X78538547Y27391453D01*
X78577955Y27450431D01*
X78588300Y27502439D01*
X78588299Y28337560D01*
X78588299Y28337561D01*
X78588299Y28337564D01*
X78588298Y28337566D01*
X78577956Y28389566D01*
X78577956Y28389567D01*
X78577955Y28389569D01*
X78538547Y28448547D01*
X78538543Y28448550D01*
X78503574Y28471916D01*
X78468021Y28520405D01*
X78471955Y28580404D01*
X78503574Y28618086D01*
X78538547Y28641453D01*
X78577955Y28700431D01*
X78588300Y28752439D01*
X78588299Y29587560D01*
X78588299Y29587561D01*
X78588299Y29587564D01*
X78588298Y29587566D01*
X78577956Y29639566D01*
X78577956Y29639567D01*
X78577955Y29639569D01*
X78538547Y29698547D01*
X78479569Y29737955D01*
X78427561Y29748300D01*
X78427559Y29748300D01*
X76892436Y29748300D01*
X76892434Y29748299D01*
X76831939Y29736267D01*
X76831432Y29738815D01*
X76783738Y29736735D01*
X76736038Y29773340D01*
X76723027Y29832042D01*
X76725975Y29843044D01*
X76737800Y29902488D01*
X76737800Y30466800D01*
X76363201Y30466800D01*
X76363200Y30466799D01*
X76363200Y29742202D01*
X75956800Y29742202D01*
X75956800Y30873201D01*
X76363200Y30873201D01*
X76363201Y30873200D01*
X76737798Y30873200D01*
X76737799Y30873202D01*
X76737799Y31437509D01*
X76727483Y31489376D01*
X76688188Y31548183D01*
X76688182Y31548189D01*
X76629375Y31587484D01*
X76577513Y31597800D01*
X76363201Y31597800D01*
X76363200Y31597799D01*
X76363200Y30873201D01*
X75956800Y30873201D01*
X75956800Y31597799D01*
X75956799Y31597800D01*
X75742486Y31597800D01*
X75742484Y31597799D01*
X75690628Y31587486D01*
X75690624Y31587484D01*
X75631817Y31548189D01*
X75631810Y31548182D01*
X75608384Y31513124D01*
X75559894Y31477572D01*
X75499896Y31481506D01*
X75462214Y31513127D01*
X75438549Y31548544D01*
X75438547Y31548547D01*
X75379569Y31587955D01*
X75362250Y31591400D01*
X75310847Y31622594D01*
X75291500Y31677611D01*
X75291500Y31980497D01*
X75299444Y32017012D01*
X75354256Y32137033D01*
X75354256Y32137035D01*
X75354258Y32137038D01*
X75365157Y32212843D01*
X75373013Y32267481D01*
X75373013Y32267488D01*
X75354259Y32397924D01*
X75354258Y32397925D01*
X75354258Y32397930D01*
X75299511Y32517808D01*
X75213209Y32617406D01*
X75213208Y32617407D01*
X75213204Y32617410D01*
X75211873Y32618265D01*
X75211207Y32619140D01*
X75208459Y32621521D01*
X75208957Y32622097D01*
X75175462Y32666114D01*
X75171500Y32692208D01*
X75171500Y32978242D01*
X75192065Y33034743D01*
X75219493Y33056562D01*
X75255009Y33074657D01*
X75345343Y33164991D01*
X75403342Y33278820D01*
X75418300Y33373261D01*
X75418300Y33373300D01*
X75712200Y33373300D01*
X75727138Y33278977D01*
X75727138Y33278976D01*
X75785063Y33165293D01*
X75875292Y33075064D01*
X75988975Y33017139D01*
X76083299Y33002201D01*
X76083300Y33002200D01*
X76136799Y33002200D01*
X76136800Y33002201D01*
X76543200Y33002201D01*
X76543201Y33002200D01*
X76596700Y33002200D01*
X76596700Y33002201D01*
X76691023Y33017139D01*
X76691024Y33017139D01*
X76804707Y33075064D01*
X76894936Y33165293D01*
X76952861Y33278976D01*
X76952861Y33278977D01*
X76967799Y33373300D01*
X76967800Y33373300D01*
X76967800Y33451799D01*
X76967799Y33451800D01*
X76543201Y33451800D01*
X76543200Y33451799D01*
X76543200Y33002201D01*
X76136800Y33002201D01*
X76136800Y33451799D01*
X76136799Y33451800D01*
X75712201Y33451800D01*
X75712200Y33451799D01*
X75712200Y33373300D01*
X75418300Y33373300D01*
X75418299Y33858201D01*
X75712200Y33858201D01*
X75712201Y33858200D01*
X76136799Y33858200D01*
X76136800Y33858202D01*
X76543200Y33858202D01*
X76543201Y33858200D01*
X76967799Y33858200D01*
X76967800Y33858201D01*
X76967800Y33936701D01*
X76952861Y34031024D01*
X76952861Y34031025D01*
X76894936Y34144708D01*
X76804707Y34234937D01*
X76691024Y34292862D01*
X76596701Y34307800D01*
X76543201Y34307800D01*
X76543200Y34307799D01*
X76543200Y33858202D01*
X76136800Y33858202D01*
X76136800Y34307799D01*
X76136799Y34307800D01*
X76083299Y34307800D01*
X75988976Y34292862D01*
X75988975Y34292862D01*
X75875292Y34234937D01*
X75785063Y34144708D01*
X75727138Y34031025D01*
X75727138Y34031024D01*
X75712200Y33936701D01*
X75712200Y33858201D01*
X75418299Y33858201D01*
X75418299Y33936738D01*
X75403342Y34031180D01*
X75345343Y34145009D01*
X75255009Y34235343D01*
X75255006Y34235345D01*
X75219492Y34253441D01*
X75178487Y34297416D01*
X75171500Y34331759D01*
X75171500Y35651317D01*
X75173371Y35669357D01*
X75175486Y35679441D01*
X75176445Y35684016D01*
X75171838Y35720977D01*
X75171500Y35726419D01*
X75171500Y35731609D01*
X75167595Y35755008D01*
X75162877Y35792861D01*
X75160696Y35810360D01*
X75160694Y35810363D01*
X75158617Y35817344D01*
X75159127Y35817497D01*
X75158687Y35818872D01*
X75158182Y35818698D01*
X75155817Y35825589D01*
X75129276Y35874632D01*
X75129275Y35874633D01*
X75104777Y35924746D01*
X75104775Y35924748D01*
X75104775Y35924749D01*
X75100547Y35930671D01*
X75100979Y35930980D01*
X75100114Y35932141D01*
X75099694Y35931813D01*
X75095218Y35937564D01*
X75083555Y35948300D01*
X75054192Y35975331D01*
X74567244Y36462279D01*
X74541834Y36516772D01*
X74541500Y36524433D01*
X74541500Y38488034D01*
X74562065Y38544535D01*
X74580563Y38561119D01*
X74588547Y38566453D01*
X74588551Y38566460D01*
X74594668Y38572575D01*
X74596197Y38571046D01*
X74635698Y38600013D01*
X74695697Y38596084D01*
X74724593Y38571837D01*
X74725693Y38572936D01*
X74731817Y38566812D01*
X74790624Y38527517D01*
X74842486Y38517201D01*
X74956800Y38517201D01*
X74956800Y39166800D01*
X75363200Y39166800D01*
X75363200Y38517202D01*
X75363201Y38517201D01*
X75477509Y38517201D01*
X75529375Y38527517D01*
X75588182Y38566812D01*
X75588188Y38566818D01*
X75627483Y38625625D01*
X75637800Y38677488D01*
X75637800Y39166799D01*
X75637799Y39166800D01*
X75363200Y39166800D01*
X74956800Y39166800D01*
X74956800Y39573201D01*
X75363200Y39573201D01*
X75363201Y39573200D01*
X75637798Y39573200D01*
X75637798Y39573201D01*
X75637799Y40062509D01*
X75627483Y40114376D01*
X75588188Y40173183D01*
X75588182Y40173189D01*
X75529375Y40212484D01*
X75477513Y40222800D01*
X75363201Y40222800D01*
X75363200Y40222799D01*
X75363200Y39573201D01*
X74956800Y39573201D01*
X74956800Y40222800D01*
X74842486Y40222800D01*
X74842484Y40222799D01*
X74790628Y40212486D01*
X74790624Y40212484D01*
X74731817Y40173189D01*
X74725693Y40167064D01*
X74724058Y40168699D01*
X74684894Y40139985D01*
X74624896Y40143921D01*
X74595679Y40168437D01*
X74594668Y40167425D01*
X74588549Y40173544D01*
X74588547Y40173547D01*
X74588543Y40173550D01*
X74580562Y40178883D01*
X74545010Y40227374D01*
X74541500Y40251967D01*
X74541500Y40408817D01*
X74543371Y40426857D01*
X74546445Y40441517D01*
X74541838Y40478477D01*
X74541500Y40483919D01*
X74541500Y40489109D01*
X74537595Y40512508D01*
X74532890Y40550255D01*
X74530696Y40567860D01*
X74530694Y40567863D01*
X74528617Y40574844D01*
X74529127Y40574997D01*
X74528687Y40576372D01*
X74528182Y40576198D01*
X74525817Y40583089D01*
X74499276Y40632132D01*
X74486712Y40657832D01*
X74474777Y40682246D01*
X74474775Y40682248D01*
X74474775Y40682249D01*
X74470547Y40688171D01*
X74470979Y40688480D01*
X74470114Y40689641D01*
X74469694Y40689313D01*
X74465218Y40695064D01*
X74451074Y40708084D01*
X74424192Y40732831D01*
X73964184Y41192839D01*
X73952751Y41206919D01*
X73944560Y41219456D01*
X73915170Y41242332D01*
X73911087Y41245937D01*
X73907413Y41249610D01*
X73907406Y41249617D01*
X73888099Y41263402D01*
X73859822Y41285409D01*
X73844085Y41297658D01*
X73844083Y41297659D01*
X73837680Y41301125D01*
X73837931Y41301590D01*
X73836646Y41302251D01*
X73836414Y41301776D01*
X73829872Y41304974D01*
X73829870Y41304975D01*
X73776413Y41320890D01*
X73776412Y41320890D01*
X73723662Y41339000D01*
X73716475Y41340199D01*
X73716562Y41340724D01*
X73715134Y41340932D01*
X73715069Y41340404D01*
X73707841Y41341305D01*
X73652116Y41339000D01*
X66869433Y41339000D01*
X66812932Y41359565D01*
X66807278Y41364745D01*
X66447245Y41724779D01*
X66421834Y41779273D01*
X66421500Y41786934D01*
X66421500Y41840375D01*
X78104685Y41840375D01*
X78104686Y41840368D01*
X78135129Y41563694D01*
X78193871Y41339000D01*
X78205533Y41294394D01*
X78314389Y41038235D01*
X78314390Y41038233D01*
X78459395Y40800633D01*
X78637437Y40586693D01*
X78637443Y40586687D01*
X78651526Y40574069D01*
X78844745Y40400944D01*
X78844747Y40400943D01*
X78844750Y40400940D01*
X79069924Y40251967D01*
X79076883Y40247363D01*
X79328909Y40129218D01*
X79328913Y40129217D01*
X79328915Y40129216D01*
X79378241Y40114376D01*
X79595451Y40049027D01*
X79595455Y40049027D01*
X79595457Y40049026D01*
X79660125Y40039509D01*
X79870828Y40008500D01*
X79870835Y40008500D01*
X80079493Y40008500D01*
X80183544Y40016116D01*
X80287601Y40023732D01*
X80559286Y40084252D01*
X80819263Y40183685D01*
X81061993Y40319911D01*
X81282301Y40490028D01*
X81475492Y40690408D01*
X81637449Y40916782D01*
X81764719Y41164325D01*
X81791904Y41244009D01*
X81825096Y41341305D01*
X81854591Y41427761D01*
X81905148Y41701474D01*
X81913005Y41916455D01*
X81915314Y41979628D01*
X81915314Y41979632D01*
X81910054Y42027439D01*
X81884871Y42256306D01*
X81814469Y42525599D01*
X81759193Y42655675D01*
X81705610Y42781766D01*
X81705609Y42781768D01*
X81705607Y42781772D01*
X81560607Y43019364D01*
X81560604Y43019368D01*
X81382562Y43233308D01*
X81382556Y43233314D01*
X81274678Y43329973D01*
X81175255Y43419056D01*
X81175253Y43419058D01*
X81175249Y43419061D01*
X80943124Y43572633D01*
X80943120Y43572635D01*
X80943117Y43572637D01*
X80691091Y43690782D01*
X80691089Y43690783D01*
X80691084Y43690785D01*
X80424551Y43770973D01*
X80424542Y43770975D01*
X80149182Y43811499D01*
X80149176Y43811500D01*
X80149172Y43811500D01*
X79940511Y43811500D01*
X79940507Y43811500D01*
X79732402Y43796269D01*
X79732396Y43796268D01*
X79460722Y43735751D01*
X79460710Y43735747D01*
X79200736Y43636315D01*
X78958002Y43500087D01*
X78958001Y43500086D01*
X78737699Y43329973D01*
X78737696Y43329970D01*
X78544513Y43129599D01*
X78544505Y43129589D01*
X78382557Y42903228D01*
X78382550Y42903217D01*
X78255279Y42655674D01*
X78165409Y42392242D01*
X78114851Y42118521D01*
X78104685Y41840375D01*
X66421500Y41840375D01*
X66421500Y42068512D01*
X66442065Y42125013D01*
X66477643Y42150474D01*
X66540515Y42174830D01*
X66716692Y42283914D01*
X66869826Y42423514D01*
X66994700Y42588875D01*
X67087064Y42774365D01*
X67143771Y42973670D01*
X67162890Y43180000D01*
X67143771Y43386330D01*
X67087064Y43585635D01*
X66994700Y43771125D01*
X66869826Y43936486D01*
X66792733Y44006766D01*
X66753380Y44042641D01*
X66725480Y44095903D01*
X66738343Y44154638D01*
X66785951Y44191364D01*
X66812598Y44195500D01*
X67808144Y44195500D01*
X67864645Y44174935D01*
X67894709Y44122864D01*
X67884268Y44063650D01*
X67867362Y44042641D01*
X67750546Y43936149D01*
X67750542Y43936145D01*
X67625727Y43770863D01*
X67533402Y43585450D01*
X67476726Y43386252D01*
X67476723Y43386240D01*
X67476442Y43383200D01*
X68110218Y43383200D01*
X68072000Y43253039D01*
X68072000Y43106961D01*
X68110218Y42976800D01*
X67476442Y42976800D01*
X67476723Y42973761D01*
X67476726Y42973749D01*
X67533402Y42774551D01*
X67625727Y42589138D01*
X67750542Y42423856D01*
X67750546Y42423852D01*
X67903607Y42284317D01*
X67903616Y42284311D01*
X68079704Y42175282D01*
X68079717Y42175276D01*
X68272840Y42100460D01*
X68272843Y42100459D01*
X68376800Y42081027D01*
X68376800Y42714331D01*
X68435408Y42687565D01*
X68543666Y42672000D01*
X68616334Y42672000D01*
X68724592Y42687565D01*
X68783200Y42714331D01*
X68783200Y42081027D01*
X68887156Y42100459D01*
X68887159Y42100460D01*
X69080282Y42175276D01*
X69080295Y42175282D01*
X69256383Y42284311D01*
X69256392Y42284317D01*
X69409453Y42423852D01*
X69409457Y42423856D01*
X69534272Y42589138D01*
X69626597Y42774551D01*
X69683273Y42973749D01*
X69683276Y42973761D01*
X69683558Y42976800D01*
X69049782Y42976800D01*
X69088000Y43106961D01*
X69088000Y43253039D01*
X69049782Y43383200D01*
X69683558Y43383200D01*
X69683276Y43386240D01*
X69683273Y43386252D01*
X69626597Y43585450D01*
X69534272Y43770863D01*
X69409457Y43936145D01*
X69409453Y43936149D01*
X69292638Y44042641D01*
X69264738Y44095903D01*
X69277601Y44154638D01*
X69325209Y44191364D01*
X69351856Y44195500D01*
X70001037Y44195500D01*
X70057538Y44174935D01*
X70087602Y44122864D01*
X70087248Y44090452D01*
X70081700Y44062560D01*
X70081700Y42027437D01*
X70081701Y42027435D01*
X70092043Y41975435D01*
X70092043Y41975434D01*
X70092044Y41975432D01*
X70092045Y41975431D01*
X70131453Y41916453D01*
X70190431Y41877045D01*
X70242439Y41866700D01*
X71477560Y41866701D01*
X71477563Y41866701D01*
X71477565Y41866702D01*
X71529565Y41877044D01*
X71529566Y41877044D01*
X71529566Y41877045D01*
X71529569Y41877045D01*
X71588547Y41916453D01*
X71627955Y41975431D01*
X71638300Y42027439D01*
X71638299Y44062560D01*
X71638299Y44062561D01*
X71638299Y44062564D01*
X71632752Y44090453D01*
X71641900Y44149880D01*
X71687106Y44189524D01*
X71718963Y44195500D01*
X75601037Y44195500D01*
X75657538Y44174935D01*
X75687602Y44122864D01*
X75687248Y44090452D01*
X75681700Y44062560D01*
X75681700Y42027437D01*
X75681701Y42027435D01*
X75692043Y41975435D01*
X75692043Y41975434D01*
X75692044Y41975432D01*
X75692045Y41975431D01*
X75731453Y41916453D01*
X75790431Y41877045D01*
X75842439Y41866700D01*
X77077560Y41866701D01*
X77077563Y41866701D01*
X77077565Y41866702D01*
X77129565Y41877044D01*
X77129566Y41877044D01*
X77129566Y41877045D01*
X77129569Y41877045D01*
X77188547Y41916453D01*
X77227955Y41975431D01*
X77238300Y42027439D01*
X77238299Y44062560D01*
X77238299Y44062561D01*
X77238299Y44062564D01*
X77232752Y44090453D01*
X77241900Y44149880D01*
X77287106Y44189524D01*
X77318963Y44195500D01*
X82207600Y44195500D01*
X82264101Y44174935D01*
X82294165Y44122864D01*
X82295500Y44107600D01*
X82295500Y342400D01*
X82274935Y285899D01*
X82222864Y255835D01*
X82207600Y254500D01*
X77318963Y254500D01*
X77262462Y275065D01*
X77232398Y327136D01*
X77232752Y359548D01*
X77238300Y387439D01*
X77238299Y2422560D01*
X77238299Y2422561D01*
X77238299Y2422564D01*
X77238298Y2422566D01*
X77228790Y2470375D01*
X78104685Y2470375D01*
X78104686Y2470368D01*
X78135129Y2193694D01*
X78202127Y1937420D01*
X78205533Y1924394D01*
X78314389Y1668235D01*
X78314390Y1668233D01*
X78314392Y1668229D01*
X78314393Y1668228D01*
X78443270Y1457054D01*
X78459395Y1430633D01*
X78637437Y1216693D01*
X78637443Y1216687D01*
X78652652Y1203060D01*
X78844745Y1030944D01*
X78844747Y1030943D01*
X78844750Y1030940D01*
X79076875Y877368D01*
X79076883Y877363D01*
X79328909Y759218D01*
X79328913Y759217D01*
X79328915Y759216D01*
X79478362Y714254D01*
X79595451Y679027D01*
X79595455Y679027D01*
X79595457Y679026D01*
X79660125Y669509D01*
X79870828Y638500D01*
X79870835Y638500D01*
X80079493Y638500D01*
X80183544Y646116D01*
X80287601Y653732D01*
X80559286Y714252D01*
X80819263Y813685D01*
X81061993Y949911D01*
X81282301Y1120028D01*
X81475492Y1320408D01*
X81637449Y1546782D01*
X81764719Y1794325D01*
X81779560Y1837826D01*
X81825311Y1971935D01*
X81854591Y2057761D01*
X81905148Y2331474D01*
X81915314Y2609632D01*
X81884871Y2886306D01*
X81814469Y3155599D01*
X81806226Y3174997D01*
X81705610Y3411766D01*
X81705609Y3411768D01*
X81705607Y3411772D01*
X81560607Y3649364D01*
X81522045Y3695701D01*
X81382562Y3863308D01*
X81382556Y3863314D01*
X81238374Y3992501D01*
X81175255Y4049056D01*
X81175253Y4049058D01*
X81175249Y4049061D01*
X80943124Y4202633D01*
X80943120Y4202635D01*
X80943117Y4202637D01*
X80691091Y4320782D01*
X80691089Y4320783D01*
X80691084Y4320785D01*
X80424551Y4400973D01*
X80424542Y4400975D01*
X80149182Y4441499D01*
X80149176Y4441500D01*
X80149172Y4441500D01*
X79940511Y4441500D01*
X79940507Y4441500D01*
X79732402Y4426269D01*
X79732396Y4426268D01*
X79460722Y4365751D01*
X79460710Y4365747D01*
X79200736Y4266315D01*
X78958002Y4130087D01*
X78958001Y4130086D01*
X78737699Y3959973D01*
X78737696Y3959970D01*
X78544513Y3759599D01*
X78544505Y3759589D01*
X78382557Y3533228D01*
X78382550Y3533217D01*
X78255279Y3285674D01*
X78165409Y3022242D01*
X78114851Y2748521D01*
X78104685Y2470375D01*
X77228790Y2470375D01*
X77227956Y2474566D01*
X77227956Y2474567D01*
X77227955Y2474569D01*
X77188547Y2533547D01*
X77129569Y2572955D01*
X77077561Y2583300D01*
X77077559Y2583300D01*
X75842436Y2583300D01*
X75842434Y2583299D01*
X75790434Y2572957D01*
X75790433Y2572957D01*
X75731454Y2533548D01*
X75731452Y2533546D01*
X75692045Y2474569D01*
X75681700Y2422560D01*
X75681700Y387437D01*
X75687248Y359547D01*
X75678100Y300120D01*
X75632894Y260476D01*
X75601037Y254500D01*
X71718963Y254500D01*
X71662462Y275065D01*
X71632398Y327136D01*
X71632752Y359548D01*
X71638300Y387439D01*
X71638299Y2422560D01*
X71638299Y2422561D01*
X71638299Y2422564D01*
X71638298Y2422566D01*
X71627956Y2474566D01*
X71627956Y2474567D01*
X71627955Y2474569D01*
X71588547Y2533547D01*
X71529569Y2572955D01*
X71477561Y2583300D01*
X71477559Y2583300D01*
X70242436Y2583300D01*
X70242434Y2583299D01*
X70190434Y2572957D01*
X70190433Y2572957D01*
X70131454Y2533548D01*
X70131452Y2533546D01*
X70092045Y2474569D01*
X70081700Y2422560D01*
X70081700Y387437D01*
X70087248Y359547D01*
X70078100Y300120D01*
X70032894Y260476D01*
X70001037Y254500D01*
X342400Y254500D01*
X285899Y275065D01*
X255835Y327136D01*
X254500Y342400D01*
X254500Y2470375D01*
X634685Y2470375D01*
X634686Y2470368D01*
X665129Y2193694D01*
X732127Y1937420D01*
X735533Y1924394D01*
X844389Y1668235D01*
X844390Y1668233D01*
X844392Y1668229D01*
X844393Y1668228D01*
X973270Y1457054D01*
X989395Y1430633D01*
X1167437Y1216693D01*
X1167443Y1216687D01*
X1182652Y1203060D01*
X1374745Y1030944D01*
X1374747Y1030943D01*
X1374750Y1030940D01*
X1606875Y877368D01*
X1606883Y877363D01*
X1858909Y759218D01*
X1858913Y759217D01*
X1858915Y759216D01*
X2008362Y714254D01*
X2125451Y679027D01*
X2125455Y679027D01*
X2125457Y679026D01*
X2190125Y669509D01*
X2400828Y638500D01*
X2400835Y638500D01*
X2609493Y638500D01*
X2713544Y646116D01*
X2817601Y653732D01*
X3089286Y714252D01*
X3349263Y813685D01*
X3591993Y949911D01*
X3812301Y1120028D01*
X4005492Y1320408D01*
X4167449Y1546782D01*
X4188382Y1587497D01*
X63989487Y1587497D01*
X64008240Y1457061D01*
X64008242Y1457055D01*
X64062989Y1337175D01*
X64103900Y1289962D01*
X64149291Y1237578D01*
X64149293Y1237577D01*
X64149294Y1237576D01*
X64260153Y1166331D01*
X64260154Y1166331D01*
X64260157Y1166329D01*
X64346282Y1141041D01*
X64386601Y1129201D01*
X64386604Y1129201D01*
X64386606Y1129200D01*
X64386607Y1129200D01*
X64518393Y1129200D01*
X64518394Y1129200D01*
X64518396Y1129201D01*
X64518398Y1129201D01*
X64533427Y1133615D01*
X64644843Y1166329D01*
X64755709Y1237578D01*
X64801099Y1289962D01*
X64853642Y1319196D01*
X64867530Y1320300D01*
X65392511Y1320300D01*
X65449012Y1299735D01*
X65479076Y1247664D01*
X65479488Y1245104D01*
X65485613Y1203065D01*
X65485613Y1203064D01*
X65485614Y1203062D01*
X65485615Y1203060D01*
X65541061Y1089643D01*
X65541063Y1089641D01*
X65541064Y1089639D01*
X65630339Y1000364D01*
X65630340Y1000364D01*
X65630342Y1000362D01*
X65731142Y951084D01*
X65743765Y944913D01*
X65817296Y934200D01*
X65817300Y934200D01*
X66289099Y934200D01*
X66289104Y934200D01*
X66362635Y944913D01*
X66476061Y1000364D01*
X66565336Y1089639D01*
X66620787Y1203065D01*
X66631500Y1276596D01*
X66631500Y1898404D01*
X66620787Y1971935D01*
X66602828Y2008671D01*
X66565338Y2085358D01*
X66565336Y2085360D01*
X66565336Y2085361D01*
X66476061Y2174636D01*
X66476059Y2174637D01*
X66476057Y2174639D01*
X66362640Y2230085D01*
X66362638Y2230086D01*
X66362636Y2230087D01*
X66362635Y2230087D01*
X66289104Y2240800D01*
X65817296Y2240800D01*
X65743765Y2230087D01*
X65743763Y2230087D01*
X65743761Y2230086D01*
X65743759Y2230085D01*
X65630342Y2174639D01*
X65541061Y2085358D01*
X65485615Y1971941D01*
X65485614Y1971939D01*
X65485613Y1971937D01*
X65485613Y1971935D01*
X65480585Y1937420D01*
X65479493Y1929926D01*
X65450996Y1876981D01*
X65395134Y1854739D01*
X65392511Y1854700D01*
X64867530Y1854700D01*
X64811029Y1875265D01*
X64801100Y1885038D01*
X64789518Y1898404D01*
X64755709Y1937422D01*
X64755706Y1937424D01*
X64755705Y1937425D01*
X64644846Y2008670D01*
X64644843Y2008671D01*
X64619553Y2016097D01*
X64518398Y2045800D01*
X64518394Y2045800D01*
X64386606Y2045800D01*
X64386601Y2045800D01*
X64260157Y2008671D01*
X64260153Y2008670D01*
X64149294Y1937425D01*
X64149289Y1937420D01*
X64062989Y1837826D01*
X64008242Y1717946D01*
X64008240Y1717940D01*
X63989487Y1587504D01*
X63989487Y1587497D01*
X4188382Y1587497D01*
X4294719Y1794325D01*
X4309560Y1837826D01*
X4355311Y1971935D01*
X4384591Y2057761D01*
X4435148Y2331474D01*
X4445314Y2609632D01*
X4414871Y2886306D01*
X4344469Y3155599D01*
X4336226Y3174997D01*
X4323458Y3205042D01*
X65475400Y3205042D01*
X65490106Y3112184D01*
X65547133Y3000261D01*
X65635960Y2911434D01*
X65747883Y2854407D01*
X65747882Y2854407D01*
X65840741Y2839701D01*
X65840742Y2839700D01*
X65887499Y2839700D01*
X65887500Y2839701D01*
X66293900Y2839701D01*
X66293901Y2839700D01*
X66340658Y2839700D01*
X66340658Y2839701D01*
X66433516Y2854407D01*
X66545439Y2911434D01*
X66634266Y3000261D01*
X66691293Y3112184D01*
X66705993Y3205006D01*
X67049900Y3205006D01*
X67049901Y3205004D01*
X67064625Y3112028D01*
X67064627Y3112022D01*
X67121723Y2999965D01*
X67121724Y2999964D01*
X67121726Y2999961D01*
X67210661Y2911026D01*
X67210663Y2911025D01*
X67210664Y2911024D01*
X67322724Y2853926D01*
X67331860Y2852480D01*
X67361850Y2847730D01*
X67414438Y2818581D01*
X67435987Y2762448D01*
X67436000Y2760912D01*
X67436000Y2305605D01*
X67415435Y2249104D01*
X67386706Y2226637D01*
X67280342Y2174639D01*
X67191061Y2085358D01*
X67135615Y1971941D01*
X67135614Y1971939D01*
X67135613Y1971937D01*
X67135613Y1971935D01*
X67124900Y1898404D01*
X67124900Y1898400D01*
X67124900Y1276601D01*
X67124899Y1276601D01*
X67124900Y1276596D01*
X67135613Y1203065D01*
X67135613Y1203064D01*
X67135614Y1203062D01*
X67135615Y1203060D01*
X67191061Y1089643D01*
X67191063Y1089641D01*
X67191064Y1089639D01*
X67280339Y1000364D01*
X67280340Y1000364D01*
X67280342Y1000362D01*
X67381142Y951084D01*
X67393765Y944913D01*
X67467296Y934200D01*
X67467300Y934200D01*
X67939099Y934200D01*
X67939104Y934200D01*
X68012635Y944913D01*
X68126061Y1000364D01*
X68215336Y1089639D01*
X68270787Y1203065D01*
X68281500Y1276596D01*
X68281500Y1898404D01*
X68270787Y1971935D01*
X68252828Y2008671D01*
X68215338Y2085358D01*
X68215336Y2085360D01*
X68215336Y2085361D01*
X68126061Y2174636D01*
X68126059Y2174637D01*
X68126057Y2174639D01*
X68019694Y2226637D01*
X67977966Y2269927D01*
X67970400Y2305605D01*
X67970400Y2780559D01*
X67990965Y2837060D01*
X68018390Y2858877D01*
X68120739Y2911026D01*
X68209674Y2999961D01*
X68266774Y3112025D01*
X68281500Y3205003D01*
X68281499Y3779996D01*
X68266774Y3872975D01*
X68266772Y3872979D01*
X68209676Y3985036D01*
X68209675Y3985037D01*
X68209674Y3985039D01*
X68120739Y4073974D01*
X68120736Y4073976D01*
X68120735Y4073977D01*
X68008675Y4131075D01*
X67938062Y4142258D01*
X67915697Y4145800D01*
X67915695Y4145800D01*
X67415705Y4145800D01*
X67415703Y4145799D01*
X67322727Y4131075D01*
X67322721Y4131073D01*
X67210664Y4073977D01*
X67121723Y3985036D01*
X67064625Y3872976D01*
X67064625Y3872975D01*
X67049900Y3779996D01*
X67049900Y3205006D01*
X66705993Y3205006D01*
X66705999Y3205042D01*
X66706000Y3205042D01*
X66706000Y3289299D01*
X66705999Y3289300D01*
X66293901Y3289300D01*
X66293900Y3289299D01*
X66293900Y2839701D01*
X65887500Y2839701D01*
X65887500Y3289299D01*
X65887499Y3289300D01*
X65475401Y3289300D01*
X65475400Y3289299D01*
X65475400Y3205042D01*
X4323458Y3205042D01*
X4235610Y3411766D01*
X4235609Y3411768D01*
X4235607Y3411772D01*
X4090607Y3649364D01*
X4052045Y3695701D01*
X65475400Y3695701D01*
X65475401Y3695700D01*
X65887499Y3695700D01*
X65887500Y3695701D01*
X65887500Y4145299D01*
X65887499Y4145300D01*
X66293900Y4145300D01*
X66293900Y3695701D01*
X66293901Y3695700D01*
X66705999Y3695700D01*
X66706000Y3695701D01*
X66706000Y3779959D01*
X66691293Y3872817D01*
X66634266Y3984740D01*
X66545439Y4073567D01*
X66433516Y4130594D01*
X66433517Y4130594D01*
X66340659Y4145300D01*
X66293900Y4145300D01*
X65887499Y4145300D01*
X65840741Y4145300D01*
X65747883Y4130594D01*
X65635960Y4073567D01*
X65547133Y3984740D01*
X65490106Y3872817D01*
X65475400Y3779959D01*
X65475400Y3695701D01*
X4052045Y3695701D01*
X3912562Y3863308D01*
X3912556Y3863314D01*
X3768374Y3992501D01*
X3705255Y4049056D01*
X3705253Y4049058D01*
X3705249Y4049061D01*
X3473124Y4202633D01*
X3473120Y4202635D01*
X3473117Y4202637D01*
X3221091Y4320782D01*
X3221089Y4320783D01*
X3221084Y4320785D01*
X2999360Y4387492D01*
X71682201Y4387492D01*
X71692516Y4335625D01*
X71731811Y4276818D01*
X71731817Y4276812D01*
X71790624Y4237517D01*
X71842486Y4227201D01*
X71956800Y4227201D01*
X71956800Y4227202D01*
X72363200Y4227202D01*
X72363201Y4227201D01*
X72477509Y4227201D01*
X72529375Y4237517D01*
X72588182Y4276812D01*
X72594307Y4282936D01*
X72595944Y4281299D01*
X72635085Y4310010D01*
X72695084Y4306089D01*
X72724319Y4281563D01*
X72725332Y4282575D01*
X72731450Y4276457D01*
X72731453Y4276453D01*
X72790431Y4237045D01*
X72842439Y4226700D01*
X73477560Y4226701D01*
X73477563Y4226701D01*
X73533667Y4237860D01*
X73593094Y4228713D01*
X73632738Y4183506D01*
X73634049Y4123393D01*
X73617245Y4094087D01*
X73587988Y4060323D01*
X73533242Y3940446D01*
X73533240Y3940440D01*
X73514487Y3810004D01*
X73514487Y3809997D01*
X73533240Y3679561D01*
X73533241Y3679556D01*
X73533242Y3679554D01*
X73554366Y3633300D01*
X73587989Y3559675D01*
X73618101Y3524925D01*
X73674291Y3460078D01*
X73674293Y3460077D01*
X73674294Y3460076D01*
X73785153Y3388831D01*
X73785154Y3388831D01*
X73785157Y3388829D01*
X73871282Y3363541D01*
X73911601Y3351701D01*
X73911604Y3351701D01*
X73911606Y3351700D01*
X73911607Y3351700D01*
X74043393Y3351700D01*
X74043394Y3351700D01*
X74043396Y3351701D01*
X74043398Y3351701D01*
X74058427Y3356115D01*
X74169843Y3388829D01*
X74280709Y3460078D01*
X74367011Y3559676D01*
X74421758Y3679554D01*
X74436199Y3779996D01*
X74440513Y3809997D01*
X74440513Y3810002D01*
X74424035Y3924604D01*
X74424828Y3954261D01*
X74432436Y3992500D01*
X74428888Y4010332D01*
X74427200Y4027480D01*
X74427200Y4144546D01*
X74447765Y4201047D01*
X74497953Y4230757D01*
X74529569Y4237045D01*
X74588547Y4276453D01*
X74588551Y4276460D01*
X74594668Y4282575D01*
X74596329Y4280914D01*
X74635401Y4309563D01*
X74695399Y4305632D01*
X74724212Y4281456D01*
X74725332Y4282575D01*
X74731450Y4276457D01*
X74731453Y4276453D01*
X74746626Y4266315D01*
X74790431Y4237045D01*
X74822048Y4230756D01*
X74873452Y4199564D01*
X74892800Y4144545D01*
X74892800Y3707527D01*
X74872235Y3651026D01*
X74829665Y3623188D01*
X74737657Y3596172D01*
X74737653Y3596170D01*
X74626794Y3524925D01*
X74626789Y3524920D01*
X74540489Y3425326D01*
X74485742Y3305446D01*
X74485740Y3305440D01*
X74466987Y3175004D01*
X74466987Y3174997D01*
X74485740Y3044561D01*
X74485742Y3044555D01*
X74540489Y2924675D01*
X74591497Y2865809D01*
X74626791Y2825078D01*
X74626793Y2825077D01*
X74626794Y2825076D01*
X74737653Y2753831D01*
X74737654Y2753831D01*
X74737657Y2753829D01*
X74823782Y2728541D01*
X74864101Y2716701D01*
X74864104Y2716701D01*
X74864106Y2716700D01*
X74864107Y2716700D01*
X74995893Y2716700D01*
X74995894Y2716700D01*
X74995896Y2716701D01*
X74995898Y2716701D01*
X75010927Y2721115D01*
X75122343Y2753829D01*
X75233209Y2825078D01*
X75319511Y2924676D01*
X75374258Y3044554D01*
X75393013Y3175000D01*
X75386236Y3222129D01*
X75398549Y3280978D01*
X75400135Y3283441D01*
X75411697Y3300743D01*
X75432435Y3405000D01*
X75428889Y3422828D01*
X75427200Y3439976D01*
X75427200Y4144546D01*
X75447765Y4201047D01*
X75497953Y4230757D01*
X75529569Y4237045D01*
X75588547Y4276453D01*
X75627955Y4335431D01*
X75638300Y4387439D01*
X75638299Y5772560D01*
X75638299Y5772561D01*
X75638299Y5772564D01*
X75638298Y5772566D01*
X75627956Y5824566D01*
X75627956Y5824567D01*
X75627955Y5824569D01*
X75588547Y5883547D01*
X75529569Y5922955D01*
X75477561Y5933300D01*
X75477559Y5933300D01*
X74842436Y5933300D01*
X74842434Y5933299D01*
X74790434Y5922957D01*
X74790433Y5922957D01*
X74731454Y5883548D01*
X74725332Y5877425D01*
X74723671Y5879086D01*
X74684591Y5850436D01*
X74624593Y5854373D01*
X74595786Y5878544D01*
X74594668Y5877425D01*
X74588549Y5883544D01*
X74588547Y5883547D01*
X74529569Y5922955D01*
X74477561Y5933300D01*
X74477559Y5933300D01*
X73842436Y5933300D01*
X73842434Y5933299D01*
X73790434Y5922957D01*
X73790433Y5922957D01*
X73731454Y5883548D01*
X73725332Y5877425D01*
X73723671Y5879086D01*
X73684591Y5850436D01*
X73624593Y5854373D01*
X73595786Y5878544D01*
X73594668Y5877425D01*
X73588549Y5883544D01*
X73588547Y5883547D01*
X73588543Y5883550D01*
X73580562Y5888883D01*
X73545010Y5937374D01*
X73541500Y5961967D01*
X73541500Y6290568D01*
X73562065Y6347069D01*
X73564748Y6349997D01*
X80774353Y6349997D01*
X80794833Y6207550D01*
X80794834Y6207545D01*
X80794835Y6207543D01*
X80854623Y6076627D01*
X80948872Y5967857D01*
X80948874Y5967856D01*
X80948875Y5967855D01*
X81045954Y5905466D01*
X81069947Y5890047D01*
X81208039Y5849500D01*
X81208040Y5849500D01*
X81351960Y5849500D01*
X81351961Y5849500D01*
X81490053Y5890047D01*
X81611128Y5967857D01*
X81705377Y6076627D01*
X81765165Y6207543D01*
X81785647Y6350000D01*
X81785647Y6350004D01*
X81765166Y6492451D01*
X81765165Y6492452D01*
X81765165Y6492457D01*
X81705377Y6623373D01*
X81611128Y6732143D01*
X81611126Y6732144D01*
X81611124Y6732146D01*
X81490054Y6809953D01*
X81490050Y6809954D01*
X81351967Y6850499D01*
X81351961Y6850500D01*
X81208039Y6850500D01*
X81208038Y6850500D01*
X81208032Y6850499D01*
X81069949Y6809954D01*
X81069945Y6809953D01*
X80948875Y6732146D01*
X80948870Y6732142D01*
X80854622Y6623372D01*
X80794835Y6492457D01*
X80794833Y6492451D01*
X80774353Y6350004D01*
X80774353Y6349997D01*
X73564748Y6349997D01*
X73567245Y6352723D01*
X73792278Y6577755D01*
X73846772Y6603166D01*
X73854433Y6603500D01*
X74650118Y6603500D01*
X74697640Y6589547D01*
X74737657Y6563829D01*
X74737656Y6563829D01*
X74864101Y6526701D01*
X74864104Y6526701D01*
X74864106Y6526700D01*
X74864107Y6526700D01*
X74995893Y6526700D01*
X74995894Y6526700D01*
X74995896Y6526701D01*
X74995898Y6526701D01*
X75046512Y6541563D01*
X75122343Y6563829D01*
X75162359Y6589547D01*
X75209882Y6603500D01*
X77103818Y6603500D01*
X77121855Y6601630D01*
X77136517Y6598555D01*
X77167593Y6602429D01*
X77173477Y6603162D01*
X77178919Y6603500D01*
X77184109Y6603500D01*
X77184111Y6603500D01*
X77207504Y6607404D01*
X77262860Y6614304D01*
X77262863Y6614306D01*
X77269844Y6616383D01*
X77269996Y6615870D01*
X77271366Y6616309D01*
X77271193Y6616815D01*
X77278080Y6619180D01*
X77278082Y6619182D01*
X77278086Y6619182D01*
X77327141Y6645730D01*
X77377246Y6670224D01*
X77377250Y6670229D01*
X77383179Y6674460D01*
X77383491Y6674023D01*
X77384644Y6674884D01*
X77384315Y6675307D01*
X77390060Y6679779D01*
X77390059Y6679779D01*
X77390062Y6679780D01*
X77427841Y6720820D01*
X78162842Y7455821D01*
X78176912Y7467246D01*
X78189456Y7475440D01*
X78200164Y7489200D01*
X78212334Y7504834D01*
X78215947Y7508925D01*
X78219614Y7512591D01*
X78219619Y7512598D01*
X78233399Y7531899D01*
X78267656Y7575913D01*
X78267658Y7575915D01*
X78267659Y7575920D01*
X78271124Y7582321D01*
X78271595Y7582066D01*
X78272256Y7583351D01*
X78271775Y7583586D01*
X78274975Y7590132D01*
X78290888Y7643583D01*
X78309000Y7696339D01*
X78309000Y7696346D01*
X78310199Y7703524D01*
X78310723Y7703437D01*
X78310931Y7704866D01*
X78310404Y7704931D01*
X78311305Y7712160D01*
X78309000Y7767895D01*
X78309000Y9165742D01*
X78329565Y9222243D01*
X78356993Y9244062D01*
X78392509Y9262157D01*
X78482843Y9352491D01*
X78482844Y9352494D01*
X78487734Y9357383D01*
X78489879Y9355238D01*
X78529846Y9382191D01*
X78551104Y9384800D01*
X79933645Y9384800D01*
X79942032Y9384200D01*
X79944106Y9384200D01*
X80075893Y9384200D01*
X80075894Y9384200D01*
X80110550Y9394377D01*
X80116376Y9395665D01*
X80146433Y9400194D01*
X80165059Y9409165D01*
X80178434Y9414309D01*
X80202341Y9421328D01*
X80202343Y9421329D01*
X80236020Y9442973D01*
X80240708Y9445596D01*
X80270744Y9460059D01*
X80283369Y9471775D01*
X80295627Y9481280D01*
X80313209Y9492578D01*
X80342075Y9525893D01*
X80345387Y9529319D01*
X80371886Y9553905D01*
X80378746Y9565790D01*
X80388439Y9579400D01*
X80399511Y9592176D01*
X80419574Y9636111D01*
X80421471Y9639792D01*
X80440874Y9673395D01*
X80443139Y9683324D01*
X80448876Y9700272D01*
X80454258Y9712054D01*
X80461764Y9764270D01*
X80462418Y9767789D01*
X80471576Y9807912D01*
X80471082Y9814501D01*
X80471731Y9833586D01*
X80473013Y9842500D01*
X80464805Y9899588D01*
X80464488Y9902486D01*
X80461265Y9945498D01*
X80460163Y9948306D01*
X80454980Y9967919D01*
X80454258Y9972946D01*
X80450156Y9981927D01*
X80427976Y10030495D01*
X80427042Y10032696D01*
X80410855Y10073940D01*
X80409499Y10076288D01*
X80399998Y10091756D01*
X80399511Y10092824D01*
X80372290Y10124239D01*
X80352854Y10146670D01*
X80324832Y10181809D01*
X80320004Y10186289D01*
X80320284Y10186592D01*
X80318135Y10188506D01*
X80317961Y10188304D01*
X80313212Y10192419D01*
X80313209Y10192422D01*
X80244458Y10236606D01*
X80210832Y10259531D01*
X80205084Y10262300D01*
X80203919Y10262952D01*
X80202339Y10263673D01*
X80099765Y10293791D01*
X80078332Y10300402D01*
X80077716Y10300539D01*
X80075895Y10300800D01*
X80075894Y10300800D01*
X79944106Y10300800D01*
X79942032Y10300800D01*
X79933645Y10300200D01*
X78551104Y10300200D01*
X78494603Y10320765D01*
X78487981Y10327865D01*
X78487734Y10327617D01*
X78482844Y10332507D01*
X78482843Y10332509D01*
X78397370Y10417982D01*
X78371960Y10472474D01*
X78387523Y10530552D01*
X78395562Y10539365D01*
X78395436Y10539472D01*
X78400139Y10545026D01*
X78400142Y10545028D01*
X78423733Y10584622D01*
X78425699Y10587630D01*
X78452475Y10625130D01*
X78453942Y10630061D01*
X78462680Y10649983D01*
X78465316Y10654404D01*
X78474771Y10699502D01*
X78475660Y10703009D01*
X78477760Y10710063D01*
X78488805Y10747159D01*
X78488592Y10752304D01*
X78490389Y10773979D01*
X78490786Y10775878D01*
X78491445Y10779016D01*
X78485743Y10824751D01*
X78485446Y10828339D01*
X78484000Y10863324D01*
X78484000Y10930398D01*
X78502378Y10980892D01*
X78501237Y10981655D01*
X78504355Y10986322D01*
X78504565Y10986898D01*
X78505212Y10987605D01*
X78506044Y10988852D01*
X78506047Y10988853D01*
X78545455Y11047831D01*
X78555800Y11099839D01*
X78555800Y11248001D01*
X78576365Y11304501D01*
X78628436Y11334565D01*
X78643700Y11335900D01*
X78978718Y11335900D01*
X78996755Y11334030D01*
X79011417Y11330955D01*
X79042493Y11334829D01*
X79048377Y11335562D01*
X79053819Y11335900D01*
X79059009Y11335900D01*
X79059011Y11335900D01*
X79082404Y11339804D01*
X79137760Y11346704D01*
X79137763Y11346706D01*
X79144744Y11348783D01*
X79144896Y11348270D01*
X79146266Y11348709D01*
X79146093Y11349215D01*
X79152980Y11351580D01*
X79152982Y11351582D01*
X79152986Y11351582D01*
X79202041Y11378130D01*
X79252146Y11402624D01*
X79252150Y11402629D01*
X79258079Y11406860D01*
X79258391Y11406423D01*
X79259544Y11407284D01*
X79259215Y11407707D01*
X79264960Y11412179D01*
X79264959Y11412179D01*
X79264962Y11412180D01*
X79302741Y11453220D01*
X79395239Y11545719D01*
X79449732Y11571129D01*
X79507810Y11555566D01*
X79528117Y11535759D01*
X79546220Y11511230D01*
X79546227Y11511223D01*
X79650108Y11434556D01*
X79650109Y11434555D01*
X79771971Y11391914D01*
X79771973Y11391914D01*
X79771975Y11391913D01*
X79800907Y11389200D01*
X80854092Y11389201D01*
X80883025Y11391913D01*
X80978623Y11425364D01*
X81004890Y11434555D01*
X81004890Y11434556D01*
X81004892Y11434556D01*
X81108775Y11511225D01*
X81185444Y11615108D01*
X81215708Y11701596D01*
X81228086Y11736972D01*
X81228087Y11736977D01*
X81228094Y11737048D01*
X81230800Y11765907D01*
X81230799Y12369092D01*
X81228087Y12398025D01*
X81197529Y12485355D01*
X81185445Y12519891D01*
X81185444Y12519892D01*
X81108777Y12623773D01*
X81108772Y12623778D01*
X81004891Y12700445D01*
X81004890Y12700446D01*
X80883028Y12743087D01*
X80883023Y12743088D01*
X80854094Y12745800D01*
X79800910Y12745800D01*
X79800899Y12745799D01*
X79771981Y12743088D01*
X79771977Y12743088D01*
X79771975Y12743087D01*
X79771971Y12743086D01*
X79771968Y12743085D01*
X79650109Y12700446D01*
X79650108Y12700445D01*
X79546227Y12623778D01*
X79546222Y12623773D01*
X79469555Y12519892D01*
X79466900Y12512303D01*
X79428828Y12465765D01*
X79394806Y12454110D01*
X79356523Y12449338D01*
X79351081Y12449000D01*
X79345886Y12449000D01*
X79328343Y12446073D01*
X79322495Y12445097D01*
X79318244Y12444567D01*
X79267138Y12438196D01*
X79260163Y12436119D01*
X79260012Y12436624D01*
X79258628Y12436180D01*
X79258799Y12435682D01*
X79251910Y12433318D01*
X79202858Y12406772D01*
X79152752Y12382276D01*
X79146828Y12378046D01*
X79146523Y12378473D01*
X79145358Y12377604D01*
X79145680Y12377190D01*
X79139937Y12372721D01*
X79102159Y12331682D01*
X78895122Y12124645D01*
X78840628Y12099234D01*
X78832967Y12098900D01*
X78643699Y12098900D01*
X78587198Y12119465D01*
X78557134Y12171536D01*
X78555799Y12186800D01*
X78555799Y12334965D01*
X78555798Y12334966D01*
X78545456Y12386966D01*
X78545456Y12386967D01*
X78541719Y12392560D01*
X78506047Y12445947D01*
X78447069Y12485355D01*
X78395061Y12495700D01*
X78395059Y12495700D01*
X77809936Y12495700D01*
X77809934Y12495699D01*
X77757934Y12485357D01*
X77757933Y12485357D01*
X77698954Y12445948D01*
X77698952Y12445946D01*
X77659545Y12386969D01*
X77649200Y12334960D01*
X77649200Y12186800D01*
X77628635Y12130299D01*
X77576564Y12100235D01*
X77561300Y12098900D01*
X76743699Y12098900D01*
X76687198Y12119465D01*
X76657134Y12171536D01*
X76655799Y12186800D01*
X76655799Y12334965D01*
X76655798Y12334966D01*
X76645456Y12386966D01*
X76645456Y12386967D01*
X76641719Y12392560D01*
X76606047Y12445947D01*
X76547069Y12485355D01*
X76495061Y12495700D01*
X76495059Y12495700D01*
X75909936Y12495700D01*
X75909934Y12495699D01*
X75857934Y12485357D01*
X75857933Y12485357D01*
X75798954Y12445948D01*
X75798952Y12445946D01*
X75759545Y12386969D01*
X75749200Y12334960D01*
X75749200Y11099837D01*
X75749201Y11099835D01*
X75759543Y11047835D01*
X75759543Y11047834D01*
X75759544Y11047832D01*
X75759545Y11047831D01*
X75798953Y10988853D01*
X75857931Y10949445D01*
X75909939Y10939100D01*
X76495060Y10939101D01*
X76495063Y10939101D01*
X76495065Y10939102D01*
X76547065Y10949444D01*
X76547066Y10949444D01*
X76547066Y10949445D01*
X76547069Y10949445D01*
X76606047Y10988853D01*
X76645455Y11047831D01*
X76655800Y11099839D01*
X76655800Y11248001D01*
X76676365Y11304501D01*
X76728436Y11334565D01*
X76743700Y11335900D01*
X77561301Y11335900D01*
X77617802Y11315335D01*
X77647866Y11263264D01*
X77649201Y11248000D01*
X77649201Y11099835D01*
X77659543Y11047835D01*
X77659543Y11047834D01*
X77659544Y11047832D01*
X77659545Y11047831D01*
X77680340Y11016709D01*
X77694632Y10958306D01*
X77669808Y10907970D01*
X77670017Y10907807D01*
X77669228Y10906794D01*
X77668038Y10904380D01*
X77666789Y10903207D01*
X77665545Y10902063D01*
X77642666Y10872668D01*
X77639061Y10868585D01*
X77635385Y10864910D01*
X77621599Y10845600D01*
X77587344Y10801589D01*
X77583876Y10795181D01*
X77583413Y10795432D01*
X77582750Y10794144D01*
X77583223Y10793912D01*
X77580026Y10787372D01*
X77580025Y10787370D01*
X77572845Y10763252D01*
X77564110Y10733914D01*
X77546000Y10681163D01*
X77544801Y10673975D01*
X77544277Y10674063D01*
X77544068Y10672632D01*
X77544596Y10672566D01*
X77543695Y10665340D01*
X77546000Y10609616D01*
X77546000Y10519259D01*
X77525435Y10462758D01*
X77498008Y10440941D01*
X77462493Y10422845D01*
X77372156Y10332508D01*
X77314157Y10218678D01*
X77299200Y10124238D01*
X77299200Y9560764D01*
X77299201Y9560762D01*
X77314157Y9466323D01*
X77314157Y9466322D01*
X77314158Y9466320D01*
X77372157Y9352491D01*
X77462491Y9262157D01*
X77498005Y9244062D01*
X77539012Y9200088D01*
X77546000Y9165742D01*
X77546000Y7954434D01*
X77525435Y7897933D01*
X77520255Y7892279D01*
X77020222Y7392245D01*
X76965728Y7366834D01*
X76958067Y7366500D01*
X75209882Y7366500D01*
X75162359Y7380454D01*
X75122341Y7406172D01*
X75122343Y7406172D01*
X74995898Y7443300D01*
X74995894Y7443300D01*
X74864106Y7443300D01*
X74864101Y7443300D01*
X74737657Y7406172D01*
X74697641Y7380454D01*
X74650118Y7366500D01*
X73708683Y7366500D01*
X73690645Y7368371D01*
X73675984Y7371445D01*
X73675983Y7371445D01*
X73639023Y7366838D01*
X73633581Y7366500D01*
X73628388Y7366500D01*
X73616691Y7364548D01*
X73604993Y7362596D01*
X73549640Y7355696D01*
X73549638Y7355696D01*
X73542661Y7353618D01*
X73542510Y7354123D01*
X73541129Y7353681D01*
X73541301Y7353182D01*
X73534413Y7350818D01*
X73485368Y7324277D01*
X73435257Y7299779D01*
X73429330Y7295547D01*
X73429023Y7295977D01*
X73427864Y7295113D01*
X73428188Y7294696D01*
X73422438Y7290221D01*
X73384669Y7249193D01*
X72924658Y6789183D01*
X72910585Y6777754D01*
X72898042Y6769559D01*
X72875166Y6740168D01*
X72871561Y6736085D01*
X72867885Y6732410D01*
X72854099Y6713100D01*
X72819844Y6669089D01*
X72816376Y6662681D01*
X72815913Y6662932D01*
X72815250Y6661644D01*
X72815723Y6661412D01*
X72812526Y6654872D01*
X72812525Y6654870D01*
X72801900Y6619182D01*
X72796610Y6601414D01*
X72778500Y6548663D01*
X72777301Y6541475D01*
X72776777Y6541563D01*
X72776568Y6540132D01*
X72777096Y6540066D01*
X72776194Y6532839D01*
X72778499Y6477117D01*
X72778499Y5961967D01*
X72757934Y5905466D01*
X72739439Y5888885D01*
X72731459Y5883553D01*
X72725332Y5877425D01*
X72723804Y5878953D01*
X72684282Y5849983D01*
X72624284Y5853924D01*
X72595405Y5878163D01*
X72594307Y5877064D01*
X72588182Y5883189D01*
X72529375Y5922484D01*
X72477513Y5932800D01*
X72363201Y5932800D01*
X72363200Y5932799D01*
X72363200Y4227202D01*
X71956800Y4227202D01*
X71956800Y4876799D01*
X71956799Y4876800D01*
X71682202Y4876800D01*
X71682201Y4876799D01*
X71682201Y4387492D01*
X2999360Y4387492D01*
X2954551Y4400973D01*
X2954542Y4400975D01*
X2679182Y4441499D01*
X2679176Y4441500D01*
X2679172Y4441500D01*
X2470511Y4441500D01*
X2470507Y4441500D01*
X2262402Y4426269D01*
X2262396Y4426268D01*
X1990722Y4365751D01*
X1990710Y4365747D01*
X1730736Y4266315D01*
X1488002Y4130087D01*
X1488001Y4130086D01*
X1267699Y3959973D01*
X1267696Y3959970D01*
X1074513Y3759599D01*
X1074505Y3759589D01*
X912557Y3533228D01*
X912550Y3533217D01*
X785279Y3285674D01*
X695409Y3022242D01*
X644851Y2748521D01*
X634685Y2470375D01*
X254500Y2470375D01*
X254500Y5283201D01*
X71682200Y5283201D01*
X71682201Y5283200D01*
X71956799Y5283200D01*
X71956800Y5283202D01*
X71956800Y5932800D01*
X71842486Y5932800D01*
X71842484Y5932799D01*
X71790628Y5922486D01*
X71790624Y5922484D01*
X71731817Y5883189D01*
X71731811Y5883183D01*
X71692516Y5824376D01*
X71682200Y5772513D01*
X71682200Y5283201D01*
X254500Y5283201D01*
X254500Y7207437D01*
X64611700Y7207437D01*
X64611701Y7207435D01*
X64622043Y7155435D01*
X64622043Y7155434D01*
X64622044Y7155432D01*
X64622045Y7155431D01*
X64661453Y7096453D01*
X64720431Y7057045D01*
X64772439Y7046700D01*
X67507560Y7046701D01*
X67507563Y7046701D01*
X67507565Y7046702D01*
X67559565Y7057044D01*
X67559566Y7057044D01*
X67559566Y7057045D01*
X67559569Y7057045D01*
X67618547Y7096453D01*
X67657955Y7155431D01*
X67668300Y7207439D01*
X67668299Y8242560D01*
X67668299Y8242561D01*
X67668299Y8242564D01*
X67668298Y8242566D01*
X67657956Y8294566D01*
X67657956Y8294567D01*
X67657955Y8294569D01*
X67618547Y8353547D01*
X67559569Y8392955D01*
X67507561Y8403300D01*
X67507559Y8403300D01*
X64772436Y8403300D01*
X64772434Y8403299D01*
X64720434Y8392957D01*
X64720433Y8392957D01*
X64661454Y8353548D01*
X64661452Y8353546D01*
X64622045Y8294569D01*
X64611700Y8242560D01*
X64611700Y7207437D01*
X254500Y7207437D01*
X254500Y9842501D01*
X66720064Y9842501D01*
X66735627Y9764260D01*
X66740803Y9738243D01*
X66755055Y9716914D01*
X66759875Y9709700D01*
X66799858Y9649860D01*
X66799860Y9649858D01*
X66814970Y9639762D01*
X66828292Y9628830D01*
X68366331Y8090791D01*
X68377262Y8077470D01*
X68387359Y8062359D01*
X68409671Y8047451D01*
X68475743Y8003303D01*
X68580000Y7982565D01*
X68597828Y7986111D01*
X68614976Y7987800D01*
X73562470Y7987800D01*
X73618971Y7967235D01*
X73628900Y7957462D01*
X73674291Y7905078D01*
X73674293Y7905077D01*
X73674294Y7905076D01*
X73785153Y7833831D01*
X73785154Y7833831D01*
X73785157Y7833829D01*
X73871282Y7808541D01*
X73911601Y7796701D01*
X73911604Y7796701D01*
X73911606Y7796700D01*
X73911607Y7796700D01*
X74043393Y7796700D01*
X74043394Y7796700D01*
X74043396Y7796701D01*
X74043398Y7796701D01*
X74058427Y7801115D01*
X74169843Y7833829D01*
X74280709Y7905078D01*
X74367011Y8004676D01*
X74421758Y8124554D01*
X74422034Y8126478D01*
X74440513Y8254997D01*
X74440513Y8255004D01*
X74421759Y8385440D01*
X74421758Y8385441D01*
X74421758Y8385446D01*
X74367011Y8505324D01*
X74367010Y8505325D01*
X74367010Y8505326D01*
X74323860Y8555123D01*
X74280709Y8604922D01*
X74280706Y8604924D01*
X74280705Y8604925D01*
X74169846Y8676170D01*
X74169843Y8676171D01*
X74144553Y8683597D01*
X74043398Y8713300D01*
X74043394Y8713300D01*
X73911606Y8713300D01*
X73911601Y8713300D01*
X73785157Y8676171D01*
X73785153Y8676170D01*
X73674294Y8604925D01*
X73674289Y8604920D01*
X73628900Y8552538D01*
X73576358Y8523304D01*
X73562470Y8522200D01*
X68727088Y8522200D01*
X68670587Y8542765D01*
X68664933Y8547945D01*
X67955441Y9257437D01*
X68311700Y9257437D01*
X68311701Y9257435D01*
X68322043Y9205435D01*
X68322043Y9205434D01*
X68322044Y9205432D01*
X68322045Y9205431D01*
X68361453Y9146453D01*
X68420431Y9107045D01*
X68472439Y9096700D01*
X70207560Y9096701D01*
X70207563Y9096701D01*
X70207565Y9096702D01*
X70259565Y9107044D01*
X70259566Y9107044D01*
X70259566Y9107045D01*
X70259569Y9107045D01*
X70318547Y9146453D01*
X70357955Y9205431D01*
X70368300Y9257439D01*
X70368299Y9639300D01*
X75749700Y9639300D01*
X75749700Y9560800D01*
X75764638Y9466477D01*
X75764638Y9466476D01*
X75822563Y9352793D01*
X75912792Y9262564D01*
X76026475Y9204639D01*
X76120799Y9189701D01*
X76120800Y9189700D01*
X76174299Y9189700D01*
X76174299Y9639300D01*
X76580700Y9639300D01*
X76580700Y9189701D01*
X76580701Y9189700D01*
X76634200Y9189700D01*
X76634200Y9189701D01*
X76728523Y9204639D01*
X76728524Y9204639D01*
X76842207Y9262564D01*
X76932436Y9352793D01*
X76990361Y9466476D01*
X76990361Y9466477D01*
X77005299Y9560800D01*
X77005300Y9560800D01*
X77005300Y9639299D01*
X77005299Y9639300D01*
X76580700Y9639300D01*
X76174299Y9639300D01*
X75749700Y9639300D01*
X70368299Y9639300D01*
X70368299Y9892560D01*
X70368299Y9892561D01*
X70368299Y9892564D01*
X70368298Y9892566D01*
X70357956Y9944566D01*
X70357956Y9944567D01*
X70355466Y9948294D01*
X70318547Y10003547D01*
X70259569Y10042955D01*
X70215861Y10051649D01*
X73642200Y10051649D01*
X73652900Y9978206D01*
X73652901Y9978204D01*
X73708273Y9864938D01*
X73797437Y9775774D01*
X73910703Y9720402D01*
X73910705Y9720401D01*
X73984148Y9709700D01*
X74091799Y9709700D01*
X74091800Y9709701D01*
X74091800Y10084299D01*
X74091799Y10084300D01*
X74498200Y10084300D01*
X74498200Y9709701D01*
X74498201Y9709700D01*
X74605851Y9709700D01*
X74679294Y9720401D01*
X74679296Y9720402D01*
X74792562Y9775774D01*
X74881726Y9864938D01*
X74937098Y9978204D01*
X74937099Y9978206D01*
X74946933Y10045701D01*
X75749700Y10045701D01*
X75749701Y10045700D01*
X76174299Y10045700D01*
X76174299Y10045701D01*
X76580700Y10045701D01*
X76580701Y10045700D01*
X77005299Y10045700D01*
X77005300Y10045702D01*
X77005300Y10124201D01*
X76990361Y10218524D01*
X76990361Y10218525D01*
X76932436Y10332208D01*
X76842207Y10422437D01*
X76728524Y10480362D01*
X76634201Y10495300D01*
X76580701Y10495300D01*
X76580700Y10495299D01*
X76580700Y10045701D01*
X76174299Y10045701D01*
X76174299Y10495300D01*
X76120799Y10495300D01*
X76026476Y10480362D01*
X76026475Y10480362D01*
X75912792Y10422437D01*
X75822563Y10332208D01*
X75764638Y10218525D01*
X75764638Y10218524D01*
X75749700Y10124201D01*
X75749700Y10045701D01*
X74946933Y10045701D01*
X74947800Y10051649D01*
X74947800Y10084300D01*
X74498200Y10084300D01*
X74091799Y10084300D01*
X73642201Y10084300D01*
X73642200Y10084299D01*
X73642200Y10051649D01*
X70215861Y10051649D01*
X70207561Y10053300D01*
X70207559Y10053300D01*
X68472436Y10053300D01*
X68472434Y10053299D01*
X68420434Y10042957D01*
X68420433Y10042957D01*
X68361454Y10003548D01*
X68361452Y10003546D01*
X68344519Y9978204D01*
X68322045Y9944569D01*
X68318637Y9927433D01*
X68311700Y9892560D01*
X68311700Y9257437D01*
X67955441Y9257437D01*
X67285445Y9927433D01*
X67260034Y9981927D01*
X67259700Y9989588D01*
X67259700Y10507492D01*
X68312201Y10507492D01*
X68322516Y10455625D01*
X68361811Y10396818D01*
X68361817Y10396812D01*
X68420624Y10357517D01*
X68472487Y10347201D01*
X69136798Y10347201D01*
X69136800Y10347202D01*
X69136800Y10621799D01*
X69136799Y10621800D01*
X69543200Y10621800D01*
X69543200Y10347202D01*
X69543201Y10347201D01*
X70207509Y10347201D01*
X70259375Y10357517D01*
X70318182Y10396812D01*
X70318188Y10396818D01*
X70357483Y10455625D01*
X70364461Y10490702D01*
X73642200Y10490702D01*
X73642201Y10490700D01*
X74091799Y10490700D01*
X74091800Y10490701D01*
X74498200Y10490701D01*
X74498201Y10490700D01*
X74947799Y10490700D01*
X74947800Y10490701D01*
X74947800Y10523352D01*
X74937099Y10596795D01*
X74937098Y10596797D01*
X74881726Y10710063D01*
X74792562Y10799227D01*
X74679296Y10854599D01*
X74679294Y10854600D01*
X74605852Y10865300D01*
X74498201Y10865300D01*
X74498200Y10865299D01*
X74498200Y10490701D01*
X74091800Y10490701D01*
X74091800Y10865299D01*
X74091799Y10865300D01*
X73984148Y10865300D01*
X73910705Y10854600D01*
X73910703Y10854599D01*
X73797437Y10799227D01*
X73708273Y10710063D01*
X73652901Y10596797D01*
X73652900Y10596795D01*
X73642200Y10523352D01*
X73642200Y10490702D01*
X70364461Y10490702D01*
X70367800Y10507488D01*
X70367800Y10621799D01*
X70367799Y10621800D01*
X69543200Y10621800D01*
X69136799Y10621800D01*
X68312202Y10621800D01*
X68312201Y10621799D01*
X68312201Y10507492D01*
X67259700Y10507492D01*
X67259700Y11028201D01*
X68312200Y11028201D01*
X68312201Y11028200D01*
X69136799Y11028200D01*
X69136800Y11028201D01*
X69543200Y11028201D01*
X69543201Y11028200D01*
X70367798Y11028200D01*
X70367799Y11028201D01*
X70367799Y11142509D01*
X70357483Y11194376D01*
X70318188Y11253183D01*
X70318182Y11253189D01*
X70259375Y11292484D01*
X70207513Y11302800D01*
X69543201Y11302800D01*
X69543200Y11302799D01*
X69543200Y11028201D01*
X69136800Y11028201D01*
X69136800Y11302800D01*
X68472486Y11302800D01*
X68472484Y11302799D01*
X68420628Y11292486D01*
X68420624Y11292484D01*
X68361817Y11253189D01*
X68361811Y11253183D01*
X68322516Y11194376D01*
X68312200Y11142513D01*
X68312200Y11028201D01*
X67259700Y11028201D01*
X67259700Y11757437D01*
X68311700Y11757437D01*
X68311701Y11757435D01*
X68322043Y11705435D01*
X68322043Y11705434D01*
X68322044Y11705432D01*
X68322045Y11705431D01*
X68361453Y11646453D01*
X68420431Y11607045D01*
X68472439Y11596700D01*
X70207560Y11596701D01*
X70207563Y11596701D01*
X70207565Y11596702D01*
X70259565Y11607044D01*
X70259566Y11607044D01*
X70259566Y11607045D01*
X70259569Y11607045D01*
X70318547Y11646453D01*
X70357955Y11705431D01*
X70364243Y11737048D01*
X70395436Y11788452D01*
X70450455Y11807800D01*
X72601305Y11807800D01*
X72657806Y11787235D01*
X72667735Y11777462D01*
X72721791Y11715078D01*
X72721793Y11715077D01*
X72721794Y11715076D01*
X72832653Y11643831D01*
X72832654Y11643831D01*
X72832657Y11643829D01*
X72918040Y11618758D01*
X72959101Y11606701D01*
X72959104Y11606701D01*
X72959106Y11606700D01*
X72959107Y11606700D01*
X73090893Y11606700D01*
X73090894Y11606700D01*
X73090896Y11606701D01*
X73090898Y11606701D01*
X73105927Y11611115D01*
X73217343Y11643829D01*
X73328209Y11715078D01*
X73414511Y11814676D01*
X73469258Y11934554D01*
X73469259Y11934566D01*
X73469460Y11935244D01*
X73469756Y11935648D01*
X73471869Y11940272D01*
X73472836Y11939831D01*
X73505110Y11983663D01*
X73563542Y11997838D01*
X73617416Y11971138D01*
X73641523Y11916056D01*
X73641700Y11910480D01*
X73641700Y11701596D01*
X73652413Y11628065D01*
X73652413Y11628064D01*
X73652414Y11628062D01*
X73652415Y11628060D01*
X73707861Y11514643D01*
X73707863Y11514641D01*
X73707864Y11514639D01*
X73797139Y11425364D01*
X73797140Y11425364D01*
X73797142Y11425362D01*
X73871109Y11389202D01*
X73910565Y11369913D01*
X73984096Y11359200D01*
X73984100Y11359200D01*
X74605899Y11359200D01*
X74605904Y11359200D01*
X74679435Y11369913D01*
X74792861Y11425364D01*
X74882136Y11514639D01*
X74937587Y11628065D01*
X74948300Y11701596D01*
X74948300Y12173404D01*
X74937587Y12246935D01*
X74931416Y12259558D01*
X74882138Y12360358D01*
X74882136Y12360360D01*
X74882136Y12360361D01*
X74792861Y12449636D01*
X74792859Y12449637D01*
X74792857Y12449639D01*
X74679440Y12505085D01*
X74679438Y12505086D01*
X74679436Y12505087D01*
X74679435Y12505087D01*
X74637424Y12511208D01*
X74584481Y12539704D01*
X74562239Y12595566D01*
X74562200Y12598189D01*
X74562200Y13436812D01*
X74582765Y13493313D01*
X74634836Y13523377D01*
X74637352Y13523782D01*
X74679435Y13529913D01*
X74792861Y13585364D01*
X74882136Y13674639D01*
X74934136Y13781007D01*
X74977425Y13822733D01*
X75013104Y13830300D01*
X75340020Y13830300D01*
X75357168Y13828612D01*
X75375000Y13825064D01*
X75479257Y13845803D01*
X75545329Y13889951D01*
X75545328Y13889951D01*
X75567641Y13904859D01*
X75567642Y13904862D01*
X75569017Y13905780D01*
X75572274Y13911795D01*
X75577744Y13919981D01*
X75588664Y13933288D01*
X75599151Y13943774D01*
X75653644Y13969181D01*
X75711722Y13953616D01*
X75746207Y13904361D01*
X75749201Y13881615D01*
X75749201Y13700035D01*
X75759543Y13648035D01*
X75759543Y13648034D01*
X75759544Y13648032D01*
X75759545Y13648031D01*
X75798953Y13589053D01*
X75857931Y13549645D01*
X75909939Y13539300D01*
X76495060Y13539301D01*
X76495063Y13539301D01*
X76495065Y13539302D01*
X76547065Y13549644D01*
X76547066Y13549644D01*
X76547066Y13549645D01*
X76547069Y13549645D01*
X76606047Y13589053D01*
X76606051Y13589060D01*
X76612168Y13595175D01*
X76613697Y13593646D01*
X76653198Y13622613D01*
X76713197Y13618684D01*
X76742093Y13594437D01*
X76743193Y13595536D01*
X76749317Y13589412D01*
X76808124Y13550117D01*
X76859986Y13539801D01*
X76949300Y13539801D01*
X76949300Y13539802D01*
X77355700Y13539802D01*
X77355701Y13539801D01*
X77445009Y13539801D01*
X77496875Y13550117D01*
X77555682Y13589412D01*
X77561807Y13595536D01*
X77563444Y13593899D01*
X77602585Y13622610D01*
X77662584Y13618689D01*
X77691819Y13594163D01*
X77692832Y13595175D01*
X77698950Y13589057D01*
X77698953Y13589053D01*
X77757931Y13549645D01*
X77809939Y13539300D01*
X78395060Y13539301D01*
X78395063Y13539301D01*
X78395065Y13539302D01*
X78447065Y13549644D01*
X78447066Y13549644D01*
X78447066Y13549645D01*
X78447069Y13549645D01*
X78506047Y13589053D01*
X78545455Y13648031D01*
X78555800Y13700039D01*
X78555800Y13848201D01*
X78576365Y13904701D01*
X78628436Y13934765D01*
X78643700Y13936100D01*
X79336301Y13936100D01*
X79392802Y13915535D01*
X79422866Y13863464D01*
X79424201Y13848200D01*
X79424201Y13665900D01*
X79425991Y13646809D01*
X79426913Y13636975D01*
X79426914Y13636972D01*
X79426915Y13636969D01*
X79469554Y13515110D01*
X79469555Y13515109D01*
X79546222Y13411228D01*
X79546227Y13411223D01*
X79650108Y13334556D01*
X79650109Y13334555D01*
X79771971Y13291914D01*
X79771973Y13291914D01*
X79771975Y13291913D01*
X79800907Y13289200D01*
X80854092Y13289201D01*
X80883025Y13291913D01*
X80974425Y13323896D01*
X81004890Y13334555D01*
X81004890Y13334556D01*
X81004892Y13334556D01*
X81108775Y13411225D01*
X81185444Y13515108D01*
X81186331Y13517641D01*
X81228086Y13636972D01*
X81228087Y13636977D01*
X81230800Y13665907D01*
X81230799Y14269092D01*
X81228087Y14298025D01*
X81208530Y14353914D01*
X81185445Y14419891D01*
X81185444Y14419892D01*
X81108777Y14523773D01*
X81108772Y14523778D01*
X81004891Y14600445D01*
X81004890Y14600446D01*
X80883028Y14643087D01*
X80883023Y14643088D01*
X80854096Y14645800D01*
X80854093Y14645800D01*
X80205841Y14645800D01*
X80164000Y14656397D01*
X80155080Y14661225D01*
X80155331Y14661690D01*
X80154046Y14662351D01*
X80153814Y14661876D01*
X80147272Y14665074D01*
X80147270Y14665075D01*
X80093813Y14680990D01*
X80041062Y14699100D01*
X80033875Y14700299D01*
X80033962Y14700824D01*
X80032534Y14701032D01*
X80032469Y14700504D01*
X80025241Y14701405D01*
X79969516Y14699100D01*
X78643699Y14699100D01*
X78587198Y14719665D01*
X78557134Y14771736D01*
X78555799Y14787000D01*
X78555799Y14935165D01*
X78555798Y14935166D01*
X78545456Y14987166D01*
X78545456Y14987167D01*
X78545455Y14987169D01*
X78523942Y15019365D01*
X78509651Y15077767D01*
X78534873Y15130352D01*
X78537842Y15133321D01*
X78551915Y15144748D01*
X78564456Y15152940D01*
X78587333Y15182336D01*
X78590947Y15186425D01*
X78594614Y15190091D01*
X78594619Y15190098D01*
X78608399Y15209399D01*
X78642656Y15253413D01*
X78642658Y15253415D01*
X78642659Y15253420D01*
X78646124Y15259821D01*
X78646595Y15259566D01*
X78647256Y15260851D01*
X78646775Y15261086D01*
X78649975Y15267632D01*
X78657553Y15293084D01*
X78665888Y15321083D01*
X78684000Y15373839D01*
X78684000Y15373846D01*
X78685199Y15381024D01*
X78685723Y15380937D01*
X78685931Y15382366D01*
X78685404Y15382431D01*
X78686303Y15389654D01*
X78686305Y15389659D01*
X78684000Y15445385D01*
X78683999Y15560512D01*
X78704565Y15617012D01*
X78723065Y15633597D01*
X78746047Y15648953D01*
X78777305Y15695735D01*
X78825796Y15731289D01*
X78850392Y15734800D01*
X80251145Y15734800D01*
X80259532Y15734200D01*
X80261606Y15734200D01*
X80393393Y15734200D01*
X80393394Y15734200D01*
X80428050Y15744377D01*
X80433876Y15745665D01*
X80463933Y15750194D01*
X80482559Y15759165D01*
X80495934Y15764309D01*
X80519841Y15771328D01*
X80519843Y15771329D01*
X80553520Y15792973D01*
X80558208Y15795596D01*
X80588244Y15810059D01*
X80600869Y15821775D01*
X80613127Y15831280D01*
X80630709Y15842578D01*
X80659575Y15875893D01*
X80662887Y15879319D01*
X80689386Y15903905D01*
X80696246Y15915790D01*
X80705939Y15929400D01*
X80717011Y15942176D01*
X80737074Y15986111D01*
X80738971Y15989792D01*
X80758374Y16023395D01*
X80760639Y16033324D01*
X80766376Y16050272D01*
X80771758Y16062054D01*
X80779264Y16114270D01*
X80779918Y16117789D01*
X80789076Y16157912D01*
X80788582Y16164501D01*
X80789231Y16183586D01*
X80790513Y16192500D01*
X80782305Y16249588D01*
X80781988Y16252486D01*
X80778765Y16295498D01*
X80777663Y16298306D01*
X80772480Y16317919D01*
X80771758Y16322946D01*
X80745476Y16380495D01*
X80744542Y16382696D01*
X80728355Y16423940D01*
X80726999Y16426288D01*
X80717498Y16441756D01*
X80717011Y16442824D01*
X80690567Y16473342D01*
X80670354Y16496670D01*
X80642332Y16531809D01*
X80637504Y16536289D01*
X80637784Y16536592D01*
X80635635Y16538506D01*
X80635461Y16538304D01*
X80630712Y16542419D01*
X80630709Y16542422D01*
X80561958Y16586606D01*
X80528332Y16609531D01*
X80522584Y16612300D01*
X80521419Y16612952D01*
X80519839Y16613673D01*
X80417265Y16643791D01*
X80395832Y16650402D01*
X80395216Y16650539D01*
X80393395Y16650800D01*
X80393394Y16650800D01*
X80261606Y16650800D01*
X80259532Y16650800D01*
X80251145Y16650200D01*
X78850392Y16650200D01*
X78793891Y16670765D01*
X78777306Y16689265D01*
X78771896Y16697360D01*
X78746047Y16736047D01*
X78687069Y16775455D01*
X78635061Y16785800D01*
X78635059Y16785800D01*
X77969936Y16785800D01*
X77969934Y16785799D01*
X77917934Y16775457D01*
X77917933Y16775457D01*
X77858954Y16736048D01*
X77858953Y16736047D01*
X77819545Y16677069D01*
X77814201Y16650200D01*
X77809200Y16625060D01*
X77809200Y15759937D01*
X77809201Y15759935D01*
X77819543Y15707935D01*
X77819545Y15707931D01*
X77863038Y15642838D01*
X77877330Y15584434D01*
X77850736Y15530508D01*
X77843336Y15524631D01*
X77840542Y15522059D01*
X77817666Y15492668D01*
X77814061Y15488585D01*
X77810385Y15484910D01*
X77796599Y15465600D01*
X77762344Y15421589D01*
X77758876Y15415181D01*
X77758413Y15415432D01*
X77757750Y15414144D01*
X77758223Y15413912D01*
X77755026Y15407372D01*
X77755025Y15407370D01*
X77745042Y15373839D01*
X77739110Y15353914D01*
X77721000Y15301163D01*
X77719801Y15293975D01*
X77719277Y15294063D01*
X77719068Y15292632D01*
X77719596Y15292566D01*
X77718695Y15285340D01*
X77721000Y15229616D01*
X77720999Y15104603D01*
X77702617Y15054100D01*
X77703757Y15053338D01*
X77700644Y15048682D01*
X77700434Y15048102D01*
X77695267Y15042462D01*
X77692844Y15040038D01*
X77691317Y15041565D01*
X77651786Y15012585D01*
X77591788Y15016524D01*
X77562905Y15040763D01*
X77561807Y15039664D01*
X77555682Y15045789D01*
X77496875Y15085084D01*
X77445013Y15095400D01*
X77355701Y15095400D01*
X77355700Y15095399D01*
X77355700Y13539802D01*
X76949300Y13539802D01*
X76949300Y15095400D01*
X76859986Y15095400D01*
X76859984Y15095399D01*
X76808128Y15085086D01*
X76808124Y15085084D01*
X76749317Y15045789D01*
X76743193Y15039664D01*
X76741558Y15041299D01*
X76702394Y15012585D01*
X76642396Y15016521D01*
X76613179Y15041037D01*
X76612168Y15040025D01*
X76606049Y15046144D01*
X76606047Y15046147D01*
X76547069Y15085555D01*
X76495061Y15095900D01*
X76495059Y15095900D01*
X75909936Y15095900D01*
X75909934Y15095899D01*
X75857934Y15085557D01*
X75857933Y15085557D01*
X75798954Y15046148D01*
X75798952Y15046146D01*
X75759545Y14987169D01*
X75749199Y14935160D01*
X75749200Y14672700D01*
X75728635Y14616199D01*
X75676564Y14586135D01*
X75661300Y14584800D01*
X75630075Y14584800D01*
X75612926Y14586489D01*
X75595100Y14590035D01*
X75568783Y14584800D01*
X75568782Y14584800D01*
X75490843Y14569298D01*
X75490844Y14569297D01*
X75402460Y14510242D01*
X75402457Y14510239D01*
X75392358Y14495125D01*
X75381429Y14481809D01*
X75290068Y14390446D01*
X75235575Y14365035D01*
X75227913Y14364700D01*
X75013104Y14364700D01*
X74956603Y14385265D01*
X74934136Y14413994D01*
X74882136Y14520361D01*
X74792861Y14609636D01*
X74792859Y14609637D01*
X74792857Y14609639D01*
X74679440Y14665085D01*
X74679438Y14665086D01*
X74679436Y14665087D01*
X74679435Y14665087D01*
X74605904Y14675800D01*
X73984096Y14675800D01*
X73910565Y14665087D01*
X73910563Y14665087D01*
X73910561Y14665086D01*
X73910559Y14665085D01*
X73797142Y14609639D01*
X73707861Y14520358D01*
X73652415Y14406941D01*
X73652414Y14406939D01*
X73652413Y14406937D01*
X73652413Y14406935D01*
X73641700Y14333404D01*
X73641700Y13861596D01*
X73652413Y13788065D01*
X73652413Y13788064D01*
X73652414Y13788062D01*
X73652415Y13788060D01*
X73707861Y13674643D01*
X73707863Y13674641D01*
X73707864Y13674639D01*
X73797139Y13585364D01*
X73797140Y13585364D01*
X73797142Y13585362D01*
X73870203Y13549645D01*
X73910565Y13529913D01*
X73952574Y13523793D01*
X74005518Y13495299D01*
X74027761Y13439437D01*
X74027800Y13436812D01*
X74027800Y12598189D01*
X74007235Y12541688D01*
X73955164Y12511624D01*
X73952603Y12511212D01*
X73910565Y12505087D01*
X73910563Y12505087D01*
X73910561Y12505086D01*
X73910559Y12505085D01*
X73797142Y12449639D01*
X73707861Y12360358D01*
X73652415Y12246941D01*
X73652414Y12246939D01*
X73652413Y12246937D01*
X73652413Y12246935D01*
X73644085Y12189775D01*
X73644061Y12189607D01*
X73615564Y12136662D01*
X73559702Y12114420D01*
X73502613Y12133290D01*
X73471008Y12184441D01*
X73470073Y12189775D01*
X73469258Y12195446D01*
X73414511Y12315324D01*
X73414510Y12315325D01*
X73414510Y12315326D01*
X73364776Y12372721D01*
X73328209Y12414922D01*
X73328206Y12414924D01*
X73328205Y12414925D01*
X73217346Y12486170D01*
X73217343Y12486171D01*
X73184894Y12495699D01*
X73090898Y12523300D01*
X73090894Y12523300D01*
X72959106Y12523300D01*
X72959101Y12523300D01*
X72832657Y12486171D01*
X72832653Y12486170D01*
X72721794Y12414925D01*
X72721789Y12414920D01*
X72685065Y12372538D01*
X72632523Y12343304D01*
X72618635Y12342200D01*
X70450455Y12342200D01*
X70393954Y12362765D01*
X70364244Y12412953D01*
X70357956Y12444567D01*
X70357034Y12445947D01*
X70318547Y12503547D01*
X70259569Y12542955D01*
X70207561Y12553300D01*
X70207559Y12553300D01*
X68472436Y12553300D01*
X68472434Y12553299D01*
X68420434Y12542957D01*
X68420433Y12542957D01*
X68361454Y12503548D01*
X68361452Y12503546D01*
X68349842Y12486170D01*
X68322045Y12444569D01*
X68316148Y12414920D01*
X68311700Y12392560D01*
X68311700Y11757437D01*
X67259700Y11757437D01*
X67259700Y12870412D01*
X67280265Y12926913D01*
X67285445Y12932567D01*
X67384933Y13032055D01*
X67439427Y13057466D01*
X67447088Y13057800D01*
X68229545Y13057800D01*
X68286046Y13037235D01*
X68315756Y12987047D01*
X68322043Y12955434D01*
X68322044Y12955432D01*
X68322045Y12955431D01*
X68361453Y12896453D01*
X68420431Y12857045D01*
X68472439Y12846700D01*
X70207560Y12846701D01*
X70207563Y12846701D01*
X70207565Y12846702D01*
X70259565Y12857044D01*
X70259566Y12857044D01*
X70259566Y12857045D01*
X70259569Y12857045D01*
X70318547Y12896453D01*
X70357955Y12955431D01*
X70368300Y13007439D01*
X70368299Y13642560D01*
X70368299Y13642561D01*
X70368299Y13642563D01*
X70367881Y13646809D01*
X70382811Y13705053D01*
X70401553Y13718483D01*
X70360885Y13719193D01*
X70336187Y13738927D01*
X70446670Y13738927D01*
X70491639Y13735484D01*
X70533678Y13695326D01*
X70540064Y13682792D01*
X70630292Y13592564D01*
X70743975Y13534639D01*
X70838299Y13519701D01*
X70838300Y13519700D01*
X70916799Y13519700D01*
X70916800Y13519701D01*
X71323200Y13519701D01*
X71323201Y13519700D01*
X71401700Y13519700D01*
X71401700Y13519701D01*
X71496023Y13534639D01*
X71496024Y13534639D01*
X71609707Y13592564D01*
X71699936Y13682793D01*
X71757861Y13796476D01*
X71757861Y13796477D01*
X71772799Y13890800D01*
X71772800Y13890800D01*
X71772800Y13944299D01*
X71772799Y13944300D01*
X72054700Y13944300D01*
X72054700Y13890800D01*
X72069638Y13796477D01*
X72069638Y13796476D01*
X72127563Y13682793D01*
X72217792Y13592564D01*
X72331475Y13534639D01*
X72425799Y13519701D01*
X72425800Y13519700D01*
X72504299Y13519700D01*
X72504300Y13519701D01*
X72910700Y13519701D01*
X72910701Y13519700D01*
X72989200Y13519700D01*
X72989200Y13519701D01*
X73083523Y13534639D01*
X73083524Y13534639D01*
X73197207Y13592564D01*
X73287436Y13682793D01*
X73345361Y13796476D01*
X73345361Y13796477D01*
X73360299Y13890800D01*
X73360300Y13890800D01*
X73360300Y13944299D01*
X73360299Y13944300D01*
X72910701Y13944300D01*
X72910700Y13944299D01*
X72910700Y13519701D01*
X72504300Y13519701D01*
X72504300Y13944299D01*
X72504299Y13944300D01*
X72054700Y13944300D01*
X71772799Y13944300D01*
X71323201Y13944300D01*
X71323200Y13944299D01*
X71323200Y13519701D01*
X70916800Y13519701D01*
X70916800Y13944299D01*
X70916799Y13944300D01*
X70467201Y13944300D01*
X70467200Y13944299D01*
X70467200Y13890800D01*
X70479204Y13815004D01*
X70467731Y13755981D01*
X70446670Y13738927D01*
X70336187Y13738927D01*
X70325060Y13747818D01*
X70324668Y13747425D01*
X70321154Y13750939D01*
X70319299Y13752421D01*
X70318548Y13753545D01*
X70318547Y13753547D01*
X70259569Y13792955D01*
X70207561Y13803300D01*
X70207559Y13803300D01*
X68472436Y13803300D01*
X68472434Y13803299D01*
X68420434Y13792957D01*
X68420433Y13792957D01*
X68361454Y13753548D01*
X68361452Y13753546D01*
X68322044Y13694569D01*
X68315756Y13662952D01*
X68284564Y13611548D01*
X68229545Y13592200D01*
X67334980Y13592200D01*
X67317831Y13593889D01*
X67309551Y13595536D01*
X67300000Y13597436D01*
X67176140Y13572798D01*
X67175649Y13570882D01*
X67151936Y13547427D01*
X67107361Y13517643D01*
X67107357Y13517639D01*
X67097260Y13502528D01*
X67086331Y13489211D01*
X66828290Y13231170D01*
X66814972Y13220240D01*
X66799859Y13210142D01*
X66799856Y13210139D01*
X66755683Y13144032D01*
X66755680Y13144023D01*
X66740804Y13121761D01*
X66740802Y13121755D01*
X66720064Y13017500D01*
X66723611Y12999669D01*
X66725300Y12982520D01*
X66725300Y9877481D01*
X66723611Y9860332D01*
X66720064Y9842501D01*
X254500Y9842501D01*
X254500Y14257492D01*
X68312201Y14257492D01*
X68322516Y14205625D01*
X68361811Y14146818D01*
X68361817Y14146812D01*
X68420624Y14107517D01*
X68472487Y14097201D01*
X69136798Y14097201D01*
X69136800Y14097202D01*
X69543200Y14097202D01*
X69543201Y14097201D01*
X70207509Y14097201D01*
X70259375Y14107517D01*
X70318182Y14146812D01*
X70318188Y14146818D01*
X70357483Y14205625D01*
X70367800Y14257488D01*
X70367800Y14262800D01*
X70388365Y14319301D01*
X70440436Y14349365D01*
X70455700Y14350700D01*
X70916799Y14350700D01*
X70916800Y14350701D01*
X71323200Y14350701D01*
X71323201Y14350700D01*
X71772799Y14350700D01*
X71772800Y14350701D01*
X72054700Y14350701D01*
X72054701Y14350700D01*
X72504299Y14350700D01*
X72504300Y14350701D01*
X72504300Y14775300D01*
X72910700Y14775300D01*
X72910700Y14350701D01*
X72910701Y14350700D01*
X73360299Y14350700D01*
X73360300Y14350701D01*
X73360300Y14404201D01*
X73345361Y14498524D01*
X73345361Y14498525D01*
X73287436Y14612208D01*
X73197207Y14702437D01*
X73083524Y14760362D01*
X72989201Y14775300D01*
X72910700Y14775300D01*
X72504300Y14775300D01*
X72425799Y14775300D01*
X72331476Y14760362D01*
X72331475Y14760362D01*
X72217792Y14702437D01*
X72127563Y14612208D01*
X72069638Y14498525D01*
X72069638Y14498524D01*
X72054700Y14404201D01*
X72054700Y14350701D01*
X71772800Y14350701D01*
X71772800Y14404201D01*
X71757861Y14498524D01*
X71757861Y14498525D01*
X71699936Y14612208D01*
X71609707Y14702437D01*
X71496024Y14760362D01*
X71401701Y14775300D01*
X71323201Y14775300D01*
X71323200Y14775299D01*
X71323200Y14350701D01*
X70916800Y14350701D01*
X70916800Y14775299D01*
X70916799Y14775300D01*
X70838299Y14775300D01*
X70743976Y14760362D01*
X70743975Y14760362D01*
X70630292Y14702437D01*
X70540063Y14612208D01*
X70482138Y14498525D01*
X70482138Y14498524D01*
X70473812Y14445950D01*
X70444662Y14393361D01*
X70388528Y14371813D01*
X70386994Y14371800D01*
X69543201Y14371800D01*
X69543200Y14371799D01*
X69543200Y14097202D01*
X69136800Y14097202D01*
X69136800Y14371800D01*
X68312202Y14371800D01*
X68312201Y14371799D01*
X68312201Y14257492D01*
X254500Y14257492D01*
X254500Y14778201D01*
X68312200Y14778201D01*
X68312201Y14778200D01*
X69136799Y14778200D01*
X69136800Y14778201D01*
X69136800Y15052799D01*
X69136799Y15052800D01*
X69543200Y15052800D01*
X69543200Y14778201D01*
X69543201Y14778200D01*
X70367798Y14778200D01*
X70367799Y14778201D01*
X70367799Y14892509D01*
X70357483Y14944376D01*
X70318188Y15003183D01*
X70318182Y15003189D01*
X70259375Y15042484D01*
X70207513Y15052800D01*
X69543200Y15052800D01*
X69136799Y15052800D01*
X68472486Y15052800D01*
X68472484Y15052799D01*
X68420628Y15042486D01*
X68420624Y15042484D01*
X68361817Y15003189D01*
X68361811Y15003183D01*
X68322516Y14944376D01*
X68312200Y14892513D01*
X68312200Y14778201D01*
X254500Y14778201D01*
X254500Y15507437D01*
X68311700Y15507437D01*
X68311701Y15507435D01*
X68322043Y15455435D01*
X68322043Y15455434D01*
X68322044Y15455432D01*
X68322045Y15455431D01*
X68361453Y15396453D01*
X68420431Y15357045D01*
X68472439Y15346700D01*
X70207560Y15346701D01*
X70207563Y15346701D01*
X70207565Y15346702D01*
X70259565Y15357044D01*
X70259566Y15357044D01*
X70259566Y15357045D01*
X70259569Y15357045D01*
X70318547Y15396453D01*
X70319209Y15397445D01*
X70320440Y15398348D01*
X70324668Y15402575D01*
X70325318Y15401925D01*
X70367691Y15433001D01*
X70427690Y15429076D01*
X70471129Y15387502D01*
X70479116Y15362368D01*
X70481657Y15346323D01*
X70481657Y15346322D01*
X70481658Y15346320D01*
X70539657Y15232491D01*
X70629991Y15142157D01*
X70743820Y15084158D01*
X70838261Y15069200D01*
X71401738Y15069201D01*
X71496180Y15084158D01*
X71610009Y15142157D01*
X71700343Y15232491D01*
X71718438Y15268006D01*
X71762412Y15309012D01*
X71796758Y15316000D01*
X72030742Y15316000D01*
X72087243Y15295435D01*
X72109061Y15268007D01*
X72112707Y15260851D01*
X72125693Y15235363D01*
X72127157Y15232491D01*
X72217491Y15142157D01*
X72331320Y15084158D01*
X72425761Y15069200D01*
X72989238Y15069201D01*
X73083680Y15084158D01*
X73197509Y15142157D01*
X73287843Y15232491D01*
X73305938Y15268006D01*
X73349912Y15309012D01*
X73384258Y15316000D01*
X73680093Y15316000D01*
X73736594Y15295435D01*
X73742247Y15290255D01*
X73797140Y15235363D01*
X73889731Y15190098D01*
X73910565Y15179913D01*
X73984096Y15169200D01*
X73984100Y15169200D01*
X74605899Y15169200D01*
X74605904Y15169200D01*
X74679435Y15179913D01*
X74792861Y15235364D01*
X74882136Y15324639D01*
X74882137Y15324643D01*
X74885376Y15329177D01*
X74934944Y15363210D01*
X74956913Y15366000D01*
X75071318Y15366000D01*
X75089355Y15364130D01*
X75104017Y15361055D01*
X75135093Y15364929D01*
X75140977Y15365662D01*
X75146419Y15366000D01*
X75151609Y15366000D01*
X75151611Y15366000D01*
X75175004Y15369904D01*
X75230360Y15376804D01*
X75230363Y15376806D01*
X75237344Y15378883D01*
X75237496Y15378370D01*
X75238866Y15378809D01*
X75238693Y15379315D01*
X75245580Y15381680D01*
X75245582Y15381682D01*
X75245586Y15381682D01*
X75294641Y15408230D01*
X75344746Y15432724D01*
X75344749Y15432728D01*
X75350673Y15436956D01*
X75350983Y15436521D01*
X75352142Y15437385D01*
X75351814Y15437806D01*
X75357560Y15442279D01*
X75357559Y15442279D01*
X75357562Y15442280D01*
X75379029Y15465600D01*
X75395340Y15483318D01*
X75472532Y15560511D01*
X75509156Y15597135D01*
X75563649Y15622545D01*
X75609117Y15610892D01*
X75609932Y15612858D01*
X75617929Y15609546D01*
X75617931Y15609545D01*
X75669939Y15599200D01*
X76335060Y15599201D01*
X76335063Y15599201D01*
X76335065Y15599202D01*
X76387065Y15609544D01*
X76387066Y15609544D01*
X76387066Y15609545D01*
X76387069Y15609545D01*
X76446047Y15648953D01*
X76485455Y15707931D01*
X76495800Y15759939D01*
X76495799Y16625060D01*
X76495799Y16625061D01*
X76495799Y16625064D01*
X76495798Y16625066D01*
X76485456Y16677066D01*
X76485456Y16677067D01*
X76485455Y16677069D01*
X76446047Y16736047D01*
X76387069Y16775455D01*
X76335061Y16785800D01*
X76335059Y16785800D01*
X75669936Y16785800D01*
X75669934Y16785799D01*
X75617934Y16775457D01*
X75617933Y16775457D01*
X75558954Y16736048D01*
X75558952Y16736046D01*
X75519544Y16677069D01*
X75509893Y16628545D01*
X75478701Y16577141D01*
X75460545Y16567616D01*
X75461150Y16566378D01*
X75458848Y16565254D01*
X75451647Y16562948D01*
X75448820Y16561464D01*
X75447721Y16561136D01*
X75447570Y16561642D01*
X75446128Y16561180D01*
X75446299Y16560682D01*
X75439410Y16558318D01*
X75390358Y16531772D01*
X75340252Y16507276D01*
X75334328Y16503046D01*
X75334023Y16503473D01*
X75332858Y16502604D01*
X75333180Y16502190D01*
X75327437Y16497721D01*
X75289659Y16456682D01*
X75004890Y16171915D01*
X74950397Y16146504D01*
X74892318Y16162067D01*
X74880587Y16171910D01*
X74792861Y16259636D01*
X74792859Y16259637D01*
X74792857Y16259639D01*
X74679440Y16315085D01*
X74679438Y16315086D01*
X74679436Y16315087D01*
X74679435Y16315087D01*
X74605904Y16325800D01*
X73984096Y16325800D01*
X73910565Y16315087D01*
X73910563Y16315087D01*
X73910561Y16315086D01*
X73910559Y16315085D01*
X73797142Y16259639D01*
X73707862Y16170359D01*
X73687299Y16128295D01*
X73644008Y16086567D01*
X73608330Y16079000D01*
X73384258Y16079000D01*
X73327757Y16099565D01*
X73305938Y16126995D01*
X73304916Y16129000D01*
X73287843Y16162509D01*
X73197509Y16252843D01*
X73083680Y16310842D01*
X73083678Y16310843D01*
X73083677Y16310843D01*
X73024782Y16320171D01*
X72989239Y16325800D01*
X72989237Y16325800D01*
X72425763Y16325800D01*
X72425761Y16325799D01*
X72331322Y16310843D01*
X72217492Y16252844D01*
X72127155Y16162507D01*
X72119002Y16146504D01*
X72110084Y16129000D01*
X72109062Y16126995D01*
X72065088Y16085988D01*
X72030742Y16079000D01*
X71796758Y16079000D01*
X71740257Y16099565D01*
X71718438Y16126995D01*
X71717416Y16129000D01*
X71700343Y16162509D01*
X71610009Y16252843D01*
X71496180Y16310842D01*
X71496178Y16310843D01*
X71496177Y16310843D01*
X71437282Y16320171D01*
X71401739Y16325800D01*
X71401737Y16325800D01*
X70838263Y16325800D01*
X70838261Y16325799D01*
X70743822Y16310843D01*
X70629992Y16252844D01*
X70629991Y16252844D01*
X70629991Y16252843D01*
X70609392Y16232245D01*
X70554900Y16206834D01*
X70547239Y16206500D01*
X70396966Y16206500D01*
X70340465Y16227065D01*
X70323880Y16245565D01*
X70320225Y16251035D01*
X70318547Y16253547D01*
X70259569Y16292955D01*
X70207561Y16303300D01*
X70207559Y16303300D01*
X68472436Y16303300D01*
X68472434Y16303299D01*
X68420434Y16292957D01*
X68420433Y16292957D01*
X68361454Y16253548D01*
X68361452Y16253546D01*
X68347219Y16232245D01*
X68322045Y16194569D01*
X68314754Y16157912D01*
X68311700Y16142560D01*
X68311700Y15507437D01*
X254500Y15507437D01*
X254500Y17157437D01*
X64611700Y17157437D01*
X64611701Y17157435D01*
X64622043Y17105435D01*
X64622043Y17105434D01*
X64622044Y17105432D01*
X64622045Y17105431D01*
X64661453Y17046453D01*
X64720431Y17007045D01*
X64772439Y16996700D01*
X67507560Y16996701D01*
X67507563Y16996701D01*
X67507565Y16996702D01*
X67559565Y17007044D01*
X67559566Y17007044D01*
X67559566Y17007045D01*
X67559569Y17007045D01*
X67618547Y17046453D01*
X67657955Y17105431D01*
X67668300Y17157439D01*
X67668299Y18192560D01*
X67668299Y18192561D01*
X67668299Y18192564D01*
X67668298Y18192566D01*
X67657956Y18244566D01*
X67657956Y18244567D01*
X67657955Y18244569D01*
X67618547Y18303547D01*
X67559569Y18342955D01*
X67507561Y18353300D01*
X67507559Y18353300D01*
X64772436Y18353300D01*
X64772434Y18353299D01*
X64720434Y18342957D01*
X64720433Y18342957D01*
X64661454Y18303548D01*
X64661452Y18303546D01*
X64622045Y18244569D01*
X64611700Y18192560D01*
X64611700Y17157437D01*
X254500Y17157437D01*
X254500Y35134096D01*
X63481700Y35134096D01*
X63492413Y35060565D01*
X63492413Y35060564D01*
X63492414Y35060562D01*
X63492415Y35060560D01*
X63547861Y34947143D01*
X63547863Y34947141D01*
X63547864Y34947139D01*
X63637139Y34857864D01*
X63637140Y34857864D01*
X63637142Y34857862D01*
X63737942Y34808584D01*
X63750565Y34802413D01*
X63792574Y34796293D01*
X63845518Y34767799D01*
X63867761Y34711937D01*
X63867800Y34709312D01*
X63867800Y33758561D01*
X63847235Y33702060D01*
X63836000Y33692167D01*
X63836543Y33691540D01*
X63831792Y33687424D01*
X63745488Y33587823D01*
X63690742Y33467946D01*
X63690740Y33467940D01*
X63671987Y33337504D01*
X63671987Y33337497D01*
X63690740Y33207061D01*
X63690742Y33207055D01*
X63745489Y33087175D01*
X63790922Y33034743D01*
X63831791Y32987578D01*
X63831793Y32987577D01*
X63831794Y32987576D01*
X63942653Y32916331D01*
X63942654Y32916331D01*
X63942657Y32916329D01*
X64028782Y32891041D01*
X64069101Y32879201D01*
X64069104Y32879201D01*
X64069106Y32879200D01*
X64069107Y32879200D01*
X64200893Y32879200D01*
X64200894Y32879200D01*
X64200896Y32879201D01*
X64200898Y32879201D01*
X64215927Y32883615D01*
X64327343Y32916329D01*
X64438209Y32987578D01*
X64524511Y33087176D01*
X64579258Y33207054D01*
X64587807Y33266513D01*
X64598013Y33337497D01*
X64598013Y33337504D01*
X64579259Y33467940D01*
X64579258Y33467941D01*
X64579258Y33467946D01*
X64524511Y33587824D01*
X64438209Y33687422D01*
X64438208Y33687423D01*
X64438207Y33687424D01*
X64433457Y33691540D01*
X64435505Y33693905D01*
X64406162Y33732469D01*
X64402200Y33758561D01*
X64402200Y34709312D01*
X64422765Y34765813D01*
X64474836Y34795877D01*
X64477352Y34796282D01*
X64519435Y34802413D01*
X64632861Y34857864D01*
X64722136Y34947139D01*
X64777587Y35060565D01*
X64788300Y35134096D01*
X66021700Y35134096D01*
X66032413Y35060565D01*
X66032413Y35060564D01*
X66032414Y35060562D01*
X66032415Y35060560D01*
X66087861Y34947143D01*
X66087863Y34947141D01*
X66087864Y34947139D01*
X66177139Y34857864D01*
X66177140Y34857864D01*
X66177142Y34857862D01*
X66277942Y34808584D01*
X66290565Y34802413D01*
X66332574Y34796293D01*
X66385518Y34767799D01*
X66407761Y34711937D01*
X66407800Y34709312D01*
X66407800Y33758561D01*
X66387235Y33702060D01*
X66376000Y33692167D01*
X66376543Y33691540D01*
X66371792Y33687424D01*
X66285488Y33587823D01*
X66230742Y33467946D01*
X66230740Y33467940D01*
X66211987Y33337504D01*
X66211987Y33337497D01*
X66230740Y33207061D01*
X66230742Y33207055D01*
X66285489Y33087175D01*
X66330922Y33034743D01*
X66371791Y32987578D01*
X66371793Y32987577D01*
X66371794Y32987576D01*
X66482653Y32916331D01*
X66482654Y32916331D01*
X66482657Y32916329D01*
X66568782Y32891041D01*
X66609101Y32879201D01*
X66609104Y32879201D01*
X66609106Y32879200D01*
X66609107Y32879200D01*
X66740893Y32879200D01*
X66740894Y32879200D01*
X66740896Y32879201D01*
X66740898Y32879201D01*
X66755927Y32883615D01*
X66867343Y32916329D01*
X66978209Y32987578D01*
X67064511Y33087176D01*
X67119258Y33207054D01*
X67127807Y33266513D01*
X67138013Y33337497D01*
X67138013Y33337504D01*
X67132866Y33373300D01*
X69717200Y33373300D01*
X69732138Y33278977D01*
X69732138Y33278976D01*
X69790063Y33165293D01*
X69880292Y33075064D01*
X69993975Y33017139D01*
X70088299Y33002201D01*
X70088300Y33002200D01*
X70141799Y33002200D01*
X70141800Y33002201D01*
X70141800Y33451799D01*
X70141799Y33451800D01*
X69717201Y33451800D01*
X69717200Y33451799D01*
X69717200Y33373300D01*
X67132866Y33373300D01*
X67119259Y33467940D01*
X67119258Y33467941D01*
X67119258Y33467946D01*
X67064511Y33587824D01*
X66978209Y33687422D01*
X66978208Y33687423D01*
X66978207Y33687424D01*
X66973457Y33691540D01*
X66975505Y33693905D01*
X66946162Y33732469D01*
X66942200Y33758561D01*
X66942200Y33858201D01*
X69717200Y33858201D01*
X69717201Y33858200D01*
X70141799Y33858200D01*
X70141800Y33858202D01*
X70141800Y34307799D01*
X70141799Y34307800D01*
X70088299Y34307800D01*
X69993976Y34292862D01*
X69993975Y34292862D01*
X69880292Y34234937D01*
X69790063Y34144708D01*
X69732138Y34031025D01*
X69732138Y34031024D01*
X69717200Y33936701D01*
X69717200Y33858201D01*
X66942200Y33858201D01*
X66942200Y34709312D01*
X66962765Y34765813D01*
X67014836Y34795877D01*
X67017352Y34796282D01*
X67059435Y34802413D01*
X67172861Y34857864D01*
X67262136Y34947139D01*
X67317587Y35060565D01*
X67328300Y35134096D01*
X67328300Y35605904D01*
X67317587Y35679435D01*
X67297278Y35720977D01*
X67262138Y35792858D01*
X67262136Y35792860D01*
X67262136Y35792861D01*
X67172861Y35882136D01*
X67172859Y35882137D01*
X67172857Y35882139D01*
X67059440Y35937585D01*
X67059438Y35937586D01*
X67059436Y35937587D01*
X67059435Y35937587D01*
X66985904Y35948300D01*
X66364096Y35948300D01*
X66290565Y35937587D01*
X66290563Y35937587D01*
X66290561Y35937586D01*
X66290559Y35937585D01*
X66177142Y35882139D01*
X66087861Y35792858D01*
X66032415Y35679441D01*
X66032414Y35679439D01*
X66032413Y35679437D01*
X66032413Y35679435D01*
X66021700Y35605904D01*
X66021700Y35134096D01*
X64788300Y35134096D01*
X64788300Y35605904D01*
X64777587Y35679435D01*
X64757278Y35720977D01*
X64722138Y35792858D01*
X64722136Y35792860D01*
X64722136Y35792861D01*
X64632861Y35882136D01*
X64632859Y35882137D01*
X64632857Y35882139D01*
X64519440Y35937585D01*
X64519438Y35937586D01*
X64519436Y35937587D01*
X64519435Y35937587D01*
X64445904Y35948300D01*
X63824096Y35948300D01*
X63750565Y35937587D01*
X63750563Y35937587D01*
X63750561Y35937586D01*
X63750559Y35937585D01*
X63637142Y35882139D01*
X63547861Y35792858D01*
X63492415Y35679441D01*
X63492414Y35679439D01*
X63492413Y35679437D01*
X63492413Y35679435D01*
X63481700Y35605904D01*
X63481700Y35134096D01*
X254500Y35134096D01*
X254500Y36784096D01*
X63481700Y36784096D01*
X63492413Y36710565D01*
X63492413Y36710564D01*
X63492414Y36710562D01*
X63492415Y36710560D01*
X63547861Y36597143D01*
X63547863Y36597141D01*
X63547864Y36597139D01*
X63637139Y36507864D01*
X63637140Y36507864D01*
X63637142Y36507862D01*
X63730386Y36462278D01*
X63750565Y36452413D01*
X63824096Y36441700D01*
X63824100Y36441700D01*
X64445899Y36441700D01*
X64445904Y36441700D01*
X64519435Y36452413D01*
X64632861Y36507864D01*
X64722136Y36597139D01*
X64777587Y36710565D01*
X64788300Y36784096D01*
X64788300Y37255904D01*
X64777587Y37329435D01*
X64755263Y37375100D01*
X64722138Y37442858D01*
X64722136Y37442860D01*
X64722136Y37442861D01*
X64632861Y37532136D01*
X64632859Y37532137D01*
X64632857Y37532139D01*
X64519440Y37587585D01*
X64519432Y37587588D01*
X64479357Y37593427D01*
X64426411Y37621923D01*
X64404170Y37677786D01*
X64423040Y37734875D01*
X64434475Y37746844D01*
X64438199Y37750072D01*
X64438209Y37750078D01*
X64524511Y37849676D01*
X64579258Y37969554D01*
X64598013Y38100000D01*
X64598013Y38100002D01*
X64598013Y38100004D01*
X64579259Y38230440D01*
X64579258Y38230441D01*
X64579258Y38230446D01*
X64524511Y38350324D01*
X64524510Y38350325D01*
X64524510Y38350326D01*
X64451532Y38434546D01*
X64438209Y38449922D01*
X64438206Y38449924D01*
X64438205Y38449925D01*
X64327346Y38521170D01*
X64327343Y38521171D01*
X64302053Y38528597D01*
X64200898Y38558300D01*
X64200894Y38558300D01*
X64069106Y38558300D01*
X64069101Y38558300D01*
X63942657Y38521171D01*
X63942653Y38521170D01*
X63831794Y38449925D01*
X63831789Y38449920D01*
X63745489Y38350326D01*
X63690742Y38230446D01*
X63690740Y38230440D01*
X63671987Y38100004D01*
X63671987Y38099997D01*
X63690740Y37969561D01*
X63690741Y37969556D01*
X63690742Y37969554D01*
X63745489Y37849676D01*
X63831791Y37750078D01*
X63831792Y37750077D01*
X63835527Y37746841D01*
X63864763Y37694300D01*
X63853387Y37635259D01*
X63806721Y37597344D01*
X63790643Y37593427D01*
X63750566Y37587588D01*
X63750559Y37587585D01*
X63637142Y37532139D01*
X63547861Y37442858D01*
X63492415Y37329441D01*
X63492414Y37329439D01*
X63492413Y37329437D01*
X63492413Y37329435D01*
X63481700Y37255904D01*
X63481700Y36784096D01*
X254500Y36784096D01*
X254500Y41840375D01*
X634685Y41840375D01*
X634686Y41840368D01*
X665129Y41563694D01*
X723871Y41339000D01*
X735533Y41294394D01*
X844389Y41038235D01*
X844390Y41038233D01*
X989395Y40800633D01*
X1167437Y40586693D01*
X1167443Y40586687D01*
X1181526Y40574069D01*
X1374745Y40400944D01*
X1374747Y40400943D01*
X1374750Y40400940D01*
X1599924Y40251967D01*
X1606883Y40247363D01*
X1858909Y40129218D01*
X1858913Y40129217D01*
X1858915Y40129216D01*
X1908241Y40114376D01*
X2125451Y40049027D01*
X2125455Y40049027D01*
X2125457Y40049026D01*
X2190125Y40039509D01*
X2400828Y40008500D01*
X2400835Y40008500D01*
X2609493Y40008500D01*
X2713544Y40016116D01*
X2817601Y40023732D01*
X3089286Y40084252D01*
X3349263Y40183685D01*
X3591993Y40319911D01*
X3812301Y40490028D01*
X4005492Y40690408D01*
X4167449Y40916782D01*
X4294719Y41164325D01*
X4321904Y41244009D01*
X4355096Y41341305D01*
X4384591Y41427761D01*
X4435148Y41701474D01*
X4443005Y41916455D01*
X4445314Y41979628D01*
X4445314Y41979632D01*
X4440054Y42027439D01*
X4414871Y42256306D01*
X4344469Y42525599D01*
X4289193Y42655675D01*
X4235610Y42781766D01*
X4235609Y42781768D01*
X4235607Y42781772D01*
X4090607Y43019364D01*
X4090604Y43019368D01*
X3956928Y43179997D01*
X5844353Y43179997D01*
X5864833Y43037550D01*
X5864834Y43037545D01*
X5864835Y43037543D01*
X5924623Y42906627D01*
X6018872Y42797857D01*
X6139947Y42720047D01*
X6278039Y42679500D01*
X6278040Y42679500D01*
X6421960Y42679500D01*
X6421961Y42679500D01*
X6560053Y42720047D01*
X6681128Y42797857D01*
X6775377Y42906627D01*
X6835165Y43037543D01*
X6855647Y43180000D01*
X6855647Y43180001D01*
X6855647Y43180004D01*
X6835166Y43322451D01*
X6835165Y43322452D01*
X6835165Y43322457D01*
X6775377Y43453373D01*
X6681128Y43562143D01*
X6681126Y43562144D01*
X6681124Y43562146D01*
X6560054Y43639953D01*
X6560050Y43639954D01*
X6421967Y43680499D01*
X6421961Y43680500D01*
X6278039Y43680500D01*
X6278038Y43680500D01*
X6278032Y43680499D01*
X6139949Y43639954D01*
X6139945Y43639953D01*
X6018875Y43562146D01*
X6018870Y43562142D01*
X5924622Y43453372D01*
X5864835Y43322457D01*
X5864833Y43322451D01*
X5844353Y43180004D01*
X5844353Y43179997D01*
X3956928Y43179997D01*
X3912562Y43233308D01*
X3912556Y43233314D01*
X3804678Y43329973D01*
X3705255Y43419056D01*
X3705253Y43419058D01*
X3705249Y43419061D01*
X3473124Y43572633D01*
X3473120Y43572635D01*
X3473117Y43572637D01*
X3221091Y43690782D01*
X3221089Y43690783D01*
X3221084Y43690785D01*
X2954551Y43770973D01*
X2954542Y43770975D01*
X2679182Y43811499D01*
X2679176Y43811500D01*
X2679172Y43811500D01*
X2470511Y43811500D01*
X2470507Y43811500D01*
X2262402Y43796269D01*
X2262396Y43796268D01*
X1990722Y43735751D01*
X1990710Y43735747D01*
X1730736Y43636315D01*
X1488002Y43500087D01*
X1488001Y43500086D01*
X1267699Y43329973D01*
X1267696Y43329970D01*
X1074513Y43129599D01*
X1074505Y43129589D01*
X912557Y42903228D01*
X912550Y42903217D01*
X785279Y42655674D01*
X695409Y42392242D01*
X644851Y42118521D01*
X634685Y41840375D01*
X254500Y41840375D01*
X254500Y44107600D01*
X275065Y44164101D01*
X327136Y44194165D01*
X342400Y44195500D01*
X60187402Y44195500D01*
X60243903Y44174935D01*
G37*
%TD.AperFunction*%
%TD*%
M02*
