%TF.GenerationSoftware,KiCad,Pcbnew,7.0.6*%
%TF.CreationDate,2024-01-20T21:08:05-07:00*%
%TF.ProjectId,SparkFun_AirQuality_Combo,53706172-6b46-4756-9e5f-416972517561,rev?*%
%TF.SameCoordinates,Original*%
%TF.FileFunction,Paste,Top*%
%TF.FilePolarity,Positive*%
%FSLAX46Y46*%
G04 Gerber Fmt 4.6, Leading zero omitted, Abs format (unit mm)*
G04 Created by KiCad (PCBNEW 7.0.6) date 2024-01-20 21:08:05*
%MOMM*%
%LPD*%
G01*
G04 APERTURE LIST*
G04 Aperture macros list*
%AMRoundRect*
0 Rectangle with rounded corners*
0 $1 Rounding radius*
0 $2 $3 $4 $5 $6 $7 $8 $9 X,Y pos of 4 corners*
0 Add a 4 corners polygon primitive as box body*
4,1,4,$2,$3,$4,$5,$6,$7,$8,$9,$2,$3,0*
0 Add four circle primitives for the rounded corners*
1,1,$1+$1,$2,$3*
1,1,$1+$1,$4,$5*
1,1,$1+$1,$6,$7*
1,1,$1+$1,$8,$9*
0 Add four rect primitives between the rounded corners*
20,1,$1+$1,$2,$3,$4,$5,0*
20,1,$1+$1,$4,$5,$6,$7,0*
20,1,$1+$1,$6,$7,$8,$9,0*
20,1,$1+$1,$8,$9,$2,$3,0*%
G04 Aperture macros list end*
%ADD10R,0.630000X0.830000*%
%ADD11R,1.700000X0.600000*%
%ADD12R,2.700000X1.000000*%
%ADD13R,0.550000X1.200000*%
%ADD14RoundRect,0.225000X-0.225000X-0.250000X0.225000X-0.250000X0.225000X0.250000X-0.225000X0.250000X0*%
%ADD15RoundRect,0.218750X-0.218750X-0.256250X0.218750X-0.256250X0.218750X0.256250X-0.218750X0.256250X0*%
%ADD16RoundRect,0.250000X0.475000X-0.250000X0.475000X0.250000X-0.475000X0.250000X-0.475000X-0.250000X0*%
%ADD17R,0.600000X1.350000*%
%ADD18R,1.200000X2.000000*%
%ADD19RoundRect,0.200000X0.275000X-0.200000X0.275000X0.200000X-0.275000X0.200000X-0.275000X-0.200000X0*%
%ADD20RoundRect,0.225000X-0.250000X0.225000X-0.250000X-0.225000X0.250000X-0.225000X0.250000X0.225000X0*%
%ADD21RoundRect,0.200000X-0.275000X0.200000X-0.275000X-0.200000X0.275000X-0.200000X0.275000X0.200000X0*%
%ADD22RoundRect,0.200000X-0.200000X-0.275000X0.200000X-0.275000X0.200000X0.275000X-0.200000X0.275000X0*%
%ADD23R,1.500000X0.800000*%
%ADD24R,0.800000X1.500000*%
%ADD25RoundRect,0.225000X0.225000X0.250000X-0.225000X0.250000X-0.225000X-0.250000X0.225000X-0.250000X0*%
G04 APERTURE END LIST*
%TO.C,U3*%
G36*
X75660000Y24670000D02*
G01*
X74660000Y24670000D01*
X74660000Y25670000D01*
X75660000Y25670000D01*
X75660000Y24670000D01*
G37*
G36*
X75660000Y27670000D02*
G01*
X74660000Y27670000D01*
X74660000Y28670000D01*
X75660000Y28670000D01*
X75660000Y27670000D01*
G37*
G36*
X72660000Y24670000D02*
G01*
X71660000Y24670000D01*
X71660000Y25670000D01*
X72660000Y25670000D01*
X72660000Y24670000D01*
G37*
G36*
X72660000Y27670000D02*
G01*
X71660000Y27670000D01*
X71660000Y28670000D01*
X72660000Y28670000D01*
X72660000Y27670000D01*
G37*
%TD*%
D10*
%TO.C,D2*%
X78302500Y16192500D03*
X76002500Y16192500D03*
%TD*%
D11*
%TO.C,U1*%
X69340000Y15825000D03*
X69340000Y14575000D03*
X69340000Y13325000D03*
X69340000Y12075000D03*
X69340000Y10825000D03*
X69340000Y9575000D03*
D12*
X66140000Y7725000D03*
X66140000Y17675000D03*
%TD*%
D13*
%TO.C,U5*%
X78102500Y14317600D03*
X77152500Y14317600D03*
X76202500Y14317600D03*
X76202500Y11717400D03*
X78102500Y11717400D03*
%TD*%
D14*
%TO.C,C4*%
X74790000Y33655000D03*
X76340000Y33655000D03*
%TD*%
D15*
%TO.C,D1*%
X66090700Y3492500D03*
X67665700Y3492500D03*
%TD*%
D16*
%TO.C,L2*%
X80327500Y12067500D03*
X80327500Y13967500D03*
%TD*%
D17*
%TO.C,J1*%
X72160000Y5080000D03*
X73160000Y5080000D03*
X74160000Y5080000D03*
X75160000Y5080000D03*
D18*
X76460000Y1405000D03*
X70860000Y1405000D03*
%TD*%
D17*
%TO.C,J2*%
X75160000Y39370000D03*
X74160000Y39370000D03*
X73160000Y39370000D03*
X72160000Y39370000D03*
D18*
X70860000Y43045000D03*
X76460000Y43045000D03*
%TD*%
D19*
%TO.C,R2*%
X64135000Y35370000D03*
X64135000Y37020000D03*
%TD*%
D20*
%TO.C,C9*%
X72707500Y15697500D03*
X72707500Y14147500D03*
%TD*%
D21*
%TO.C,R6*%
X74295000Y11937500D03*
X74295000Y10287500D03*
%TD*%
D22*
%TO.C,R3*%
X66053200Y1587500D03*
X67703200Y1587500D03*
%TD*%
D23*
%TO.C,U3*%
X77660000Y25420000D03*
X77660000Y26670000D03*
X77660000Y27920000D03*
X77660000Y29170000D03*
D24*
X76160000Y30670000D03*
X74910000Y30670000D03*
X73660000Y30670000D03*
X72410000Y30670000D03*
X71160000Y30670000D03*
D23*
X69660000Y29170000D03*
X69660000Y27920000D03*
X69660000Y26670000D03*
X69660000Y25420000D03*
X69660000Y24170000D03*
D24*
X71160000Y22670000D03*
X72410000Y22670000D03*
X73660000Y22670000D03*
X74910000Y22670000D03*
X76160000Y22670000D03*
%TD*%
D19*
%TO.C,R1*%
X66675000Y35370000D03*
X66675000Y37020000D03*
%TD*%
D25*
%TO.C,C3*%
X71895000Y33655000D03*
X70345000Y33655000D03*
%TD*%
D21*
%TO.C,R5*%
X74295000Y15747500D03*
X74295000Y14097500D03*
%TD*%
D20*
%TO.C,C5*%
X71120000Y15697500D03*
X71120000Y14147500D03*
%TD*%
D25*
%TO.C,C7*%
X77927500Y9842500D03*
X76377500Y9842500D03*
%TD*%
M02*
