%TF.GenerationSoftware,KiCad,Pcbnew,7.0.6*%
%TF.CreationDate,2024-01-20T21:08:05-07:00*%
%TF.ProjectId,SparkFun_AirQuality_Combo,53706172-6b46-4756-9e5f-416972517561,rev?*%
%TF.SameCoordinates,Original*%
%TF.FileFunction,Soldermask,Bot*%
%TF.FilePolarity,Negative*%
%FSLAX46Y46*%
G04 Gerber Fmt 4.6, Leading zero omitted, Abs format (unit mm)*
G04 Created by KiCad (PCBNEW 7.0.6) date 2024-01-20 21:08:05*
%MOMM*%
%LPD*%
G01*
G04 APERTURE LIST*
%TA.AperFunction,Profile*%
%ADD10C,0.100000*%
%TD*%
%ADD11C,0.300000*%
%ADD12C,0.142240*%
G04 APERTURE END LIST*
D10*
X82550000Y18796000D02*
X82550000Y10414000D01*
X82550000Y0D01*
X0Y0D01*
X0Y44450000D01*
X82550000Y44450000D01*
X82550000Y18796000D01*
D11*
X15534285Y-15040828D02*
X15534285Y-13540828D01*
X15534285Y-13540828D02*
X16391428Y-15040828D01*
X16391428Y-15040828D02*
X16391428Y-13540828D01*
X17105714Y-14897971D02*
X17177143Y-14969400D01*
X17177143Y-14969400D02*
X17105714Y-15040828D01*
X17105714Y-15040828D02*
X17034286Y-14969400D01*
X17034286Y-14969400D02*
X17105714Y-14897971D01*
X17105714Y-14897971D02*
X17105714Y-15040828D01*
X18891429Y-14969400D02*
X19105715Y-15040828D01*
X19105715Y-15040828D02*
X19462857Y-15040828D01*
X19462857Y-15040828D02*
X19605715Y-14969400D01*
X19605715Y-14969400D02*
X19677143Y-14897971D01*
X19677143Y-14897971D02*
X19748572Y-14755114D01*
X19748572Y-14755114D02*
X19748572Y-14612257D01*
X19748572Y-14612257D02*
X19677143Y-14469400D01*
X19677143Y-14469400D02*
X19605715Y-14397971D01*
X19605715Y-14397971D02*
X19462857Y-14326542D01*
X19462857Y-14326542D02*
X19177143Y-14255114D01*
X19177143Y-14255114D02*
X19034286Y-14183685D01*
X19034286Y-14183685D02*
X18962857Y-14112257D01*
X18962857Y-14112257D02*
X18891429Y-13969400D01*
X18891429Y-13969400D02*
X18891429Y-13826542D01*
X18891429Y-13826542D02*
X18962857Y-13683685D01*
X18962857Y-13683685D02*
X19034286Y-13612257D01*
X19034286Y-13612257D02*
X19177143Y-13540828D01*
X19177143Y-13540828D02*
X19534286Y-13540828D01*
X19534286Y-13540828D02*
X19748572Y-13612257D01*
X20962857Y-14969400D02*
X20820000Y-15040828D01*
X20820000Y-15040828D02*
X20534286Y-15040828D01*
X20534286Y-15040828D02*
X20391428Y-14969400D01*
X20391428Y-14969400D02*
X20320000Y-14826542D01*
X20320000Y-14826542D02*
X20320000Y-14255114D01*
X20320000Y-14255114D02*
X20391428Y-14112257D01*
X20391428Y-14112257D02*
X20534286Y-14040828D01*
X20534286Y-14040828D02*
X20820000Y-14040828D01*
X20820000Y-14040828D02*
X20962857Y-14112257D01*
X20962857Y-14112257D02*
X21034286Y-14255114D01*
X21034286Y-14255114D02*
X21034286Y-14397971D01*
X21034286Y-14397971D02*
X20320000Y-14540828D01*
X21677142Y-15040828D02*
X21677142Y-14040828D01*
X21677142Y-13540828D02*
X21605714Y-13612257D01*
X21605714Y-13612257D02*
X21677142Y-13683685D01*
X21677142Y-13683685D02*
X21748571Y-13612257D01*
X21748571Y-13612257D02*
X21677142Y-13540828D01*
X21677142Y-13540828D02*
X21677142Y-13683685D01*
X23034286Y-15040828D02*
X23034286Y-13540828D01*
X23034286Y-14969400D02*
X22891428Y-15040828D01*
X22891428Y-15040828D02*
X22605714Y-15040828D01*
X22605714Y-15040828D02*
X22462857Y-14969400D01*
X22462857Y-14969400D02*
X22391428Y-14897971D01*
X22391428Y-14897971D02*
X22320000Y-14755114D01*
X22320000Y-14755114D02*
X22320000Y-14326542D01*
X22320000Y-14326542D02*
X22391428Y-14183685D01*
X22391428Y-14183685D02*
X22462857Y-14112257D01*
X22462857Y-14112257D02*
X22605714Y-14040828D01*
X22605714Y-14040828D02*
X22891428Y-14040828D01*
X22891428Y-14040828D02*
X23034286Y-14112257D01*
X23962857Y-15040828D02*
X23820000Y-14969400D01*
X23820000Y-14969400D02*
X23748571Y-14826542D01*
X23748571Y-14826542D02*
X23748571Y-13540828D01*
X25105714Y-14969400D02*
X24962857Y-15040828D01*
X24962857Y-15040828D02*
X24677143Y-15040828D01*
X24677143Y-15040828D02*
X24534285Y-14969400D01*
X24534285Y-14969400D02*
X24462857Y-14826542D01*
X24462857Y-14826542D02*
X24462857Y-14255114D01*
X24462857Y-14255114D02*
X24534285Y-14112257D01*
X24534285Y-14112257D02*
X24677143Y-14040828D01*
X24677143Y-14040828D02*
X24962857Y-14040828D01*
X24962857Y-14040828D02*
X25105714Y-14112257D01*
X25105714Y-14112257D02*
X25177143Y-14255114D01*
X25177143Y-14255114D02*
X25177143Y-14397971D01*
X25177143Y-14397971D02*
X24462857Y-14540828D01*
D12*
X-24924171Y-12492417D02*
X-24924171Y-10856657D01*
X-24223131Y-12492417D02*
X-24223131Y-11635590D01*
X-24223131Y-11635590D02*
X-24301024Y-11479804D01*
X-24301024Y-11479804D02*
X-24456811Y-11401910D01*
X-24456811Y-11401910D02*
X-24690491Y-11401910D01*
X-24690491Y-11401910D02*
X-24846277Y-11479804D01*
X-24846277Y-11479804D02*
X-24924171Y-11557697D01*
X-23677878Y-11401910D02*
X-23054731Y-11401910D01*
X-23444198Y-10856657D02*
X-23444198Y-12258737D01*
X-23444198Y-12258737D02*
X-23366304Y-12414524D01*
X-23366304Y-12414524D02*
X-23210518Y-12492417D01*
X-23210518Y-12492417D02*
X-23054731Y-12492417D01*
X-22743158Y-11401910D02*
X-22120011Y-11401910D01*
X-22509478Y-10856657D02*
X-22509478Y-12258737D01*
X-22509478Y-12258737D02*
X-22431584Y-12414524D01*
X-22431584Y-12414524D02*
X-22275798Y-12492417D01*
X-22275798Y-12492417D02*
X-22120011Y-12492417D01*
X-21574758Y-11401910D02*
X-21574758Y-13037670D01*
X-21574758Y-11479804D02*
X-21418971Y-11401910D01*
X-21418971Y-11401910D02*
X-21107398Y-11401910D01*
X-21107398Y-11401910D02*
X-20951611Y-11479804D01*
X-20951611Y-11479804D02*
X-20873718Y-11557697D01*
X-20873718Y-11557697D02*
X-20795824Y-11713484D01*
X-20795824Y-11713484D02*
X-20795824Y-12180844D01*
X-20795824Y-12180844D02*
X-20873718Y-12336630D01*
X-20873718Y-12336630D02*
X-20951611Y-12414524D01*
X-20951611Y-12414524D02*
X-21107398Y-12492417D01*
X-21107398Y-12492417D02*
X-21418971Y-12492417D01*
X-21418971Y-12492417D02*
X-21574758Y-12414524D01*
X-20172678Y-12414524D02*
X-20016891Y-12492417D01*
X-20016891Y-12492417D02*
X-19705318Y-12492417D01*
X-19705318Y-12492417D02*
X-19549531Y-12414524D01*
X-19549531Y-12414524D02*
X-19471638Y-12258737D01*
X-19471638Y-12258737D02*
X-19471638Y-12180844D01*
X-19471638Y-12180844D02*
X-19549531Y-12025057D01*
X-19549531Y-12025057D02*
X-19705318Y-11947164D01*
X-19705318Y-11947164D02*
X-19938998Y-11947164D01*
X-19938998Y-11947164D02*
X-20094785Y-11869270D01*
X-20094785Y-11869270D02*
X-20172678Y-11713484D01*
X-20172678Y-11713484D02*
X-20172678Y-11635590D01*
X-20172678Y-11635590D02*
X-20094785Y-11479804D01*
X-20094785Y-11479804D02*
X-19938998Y-11401910D01*
X-19938998Y-11401910D02*
X-19705318Y-11401910D01*
X-19705318Y-11401910D02*
X-19549531Y-11479804D01*
X-18770598Y-12336630D02*
X-18692704Y-12414524D01*
X-18692704Y-12414524D02*
X-18770598Y-12492417D01*
X-18770598Y-12492417D02*
X-18848491Y-12414524D01*
X-18848491Y-12414524D02*
X-18770598Y-12336630D01*
X-18770598Y-12336630D02*
X-18770598Y-12492417D01*
X-18770598Y-11479804D02*
X-18692704Y-11557697D01*
X-18692704Y-11557697D02*
X-18770598Y-11635590D01*
X-18770598Y-11635590D02*
X-18848491Y-11557697D01*
X-18848491Y-11557697D02*
X-18770598Y-11479804D01*
X-18770598Y-11479804D02*
X-18770598Y-11635590D01*
X-16823265Y-10778764D02*
X-18225345Y-12881884D01*
X-15109612Y-10778764D02*
X-16511692Y-12881884D01*
X-13863319Y-12414524D02*
X-14019105Y-12492417D01*
X-14019105Y-12492417D02*
X-14330679Y-12492417D01*
X-14330679Y-12492417D02*
X-14486465Y-12414524D01*
X-14486465Y-12414524D02*
X-14564359Y-12336630D01*
X-14564359Y-12336630D02*
X-14642252Y-12180844D01*
X-14642252Y-12180844D02*
X-14642252Y-11713484D01*
X-14642252Y-11713484D02*
X-14564359Y-11557697D01*
X-14564359Y-11557697D02*
X-14486465Y-11479804D01*
X-14486465Y-11479804D02*
X-14330679Y-11401910D01*
X-14330679Y-11401910D02*
X-14019105Y-11401910D01*
X-14019105Y-11401910D02*
X-13863319Y-11479804D01*
X-13162279Y-12492417D02*
X-13162279Y-11401910D01*
X-13162279Y-11713484D02*
X-13084385Y-11557697D01*
X-13084385Y-11557697D02*
X-13006492Y-11479804D01*
X-13006492Y-11479804D02*
X-12850705Y-11401910D01*
X-12850705Y-11401910D02*
X-12694919Y-11401910D01*
X-11526519Y-12414524D02*
X-11682306Y-12492417D01*
X-11682306Y-12492417D02*
X-11993879Y-12492417D01*
X-11993879Y-12492417D02*
X-12149666Y-12414524D01*
X-12149666Y-12414524D02*
X-12227559Y-12258737D01*
X-12227559Y-12258737D02*
X-12227559Y-11635590D01*
X-12227559Y-11635590D02*
X-12149666Y-11479804D01*
X-12149666Y-11479804D02*
X-11993879Y-11401910D01*
X-11993879Y-11401910D02*
X-11682306Y-11401910D01*
X-11682306Y-11401910D02*
X-11526519Y-11479804D01*
X-11526519Y-11479804D02*
X-11448626Y-11635590D01*
X-11448626Y-11635590D02*
X-11448626Y-11791377D01*
X-11448626Y-11791377D02*
X-12227559Y-11947164D01*
X-10046546Y-12492417D02*
X-10046546Y-11635590D01*
X-10046546Y-11635590D02*
X-10124439Y-11479804D01*
X-10124439Y-11479804D02*
X-10280226Y-11401910D01*
X-10280226Y-11401910D02*
X-10591799Y-11401910D01*
X-10591799Y-11401910D02*
X-10747586Y-11479804D01*
X-10046546Y-12414524D02*
X-10202332Y-12492417D01*
X-10202332Y-12492417D02*
X-10591799Y-12492417D01*
X-10591799Y-12492417D02*
X-10747586Y-12414524D01*
X-10747586Y-12414524D02*
X-10825479Y-12258737D01*
X-10825479Y-12258737D02*
X-10825479Y-12102950D01*
X-10825479Y-12102950D02*
X-10747586Y-11947164D01*
X-10747586Y-11947164D02*
X-10591799Y-11869270D01*
X-10591799Y-11869270D02*
X-10202332Y-11869270D01*
X-10202332Y-11869270D02*
X-10046546Y-11791377D01*
X-9501293Y-11401910D02*
X-8878146Y-11401910D01*
X-9267613Y-10856657D02*
X-9267613Y-12258737D01*
X-9267613Y-12258737D02*
X-9189719Y-12414524D01*
X-9189719Y-12414524D02*
X-9033933Y-12492417D01*
X-9033933Y-12492417D02*
X-8878146Y-12492417D01*
X-8332893Y-12492417D02*
X-8332893Y-11401910D01*
X-8332893Y-10856657D02*
X-8410786Y-10934550D01*
X-8410786Y-10934550D02*
X-8332893Y-11012444D01*
X-8332893Y-11012444D02*
X-8254999Y-10934550D01*
X-8254999Y-10934550D02*
X-8332893Y-10856657D01*
X-8332893Y-10856657D02*
X-8332893Y-11012444D01*
X-7709746Y-11401910D02*
X-7320280Y-12492417D01*
X-7320280Y-12492417D02*
X-6930813Y-11401910D01*
X-5684520Y-12414524D02*
X-5840307Y-12492417D01*
X-5840307Y-12492417D02*
X-6151880Y-12492417D01*
X-6151880Y-12492417D02*
X-6307667Y-12414524D01*
X-6307667Y-12414524D02*
X-6385560Y-12258737D01*
X-6385560Y-12258737D02*
X-6385560Y-11635590D01*
X-6385560Y-11635590D02*
X-6307667Y-11479804D01*
X-6307667Y-11479804D02*
X-6151880Y-11401910D01*
X-6151880Y-11401910D02*
X-5840307Y-11401910D01*
X-5840307Y-11401910D02*
X-5684520Y-11479804D01*
X-5684520Y-11479804D02*
X-5606627Y-11635590D01*
X-5606627Y-11635590D02*
X-5606627Y-11791377D01*
X-5606627Y-11791377D02*
X-6385560Y-11947164D01*
X-4204547Y-12414524D02*
X-4360333Y-12492417D01*
X-4360333Y-12492417D02*
X-4671907Y-12492417D01*
X-4671907Y-12492417D02*
X-4827693Y-12414524D01*
X-4827693Y-12414524D02*
X-4905587Y-12336630D01*
X-4905587Y-12336630D02*
X-4983480Y-12180844D01*
X-4983480Y-12180844D02*
X-4983480Y-11713484D01*
X-4983480Y-11713484D02*
X-4905587Y-11557697D01*
X-4905587Y-11557697D02*
X-4827693Y-11479804D01*
X-4827693Y-11479804D02*
X-4671907Y-11401910D01*
X-4671907Y-11401910D02*
X-4360333Y-11401910D01*
X-4360333Y-11401910D02*
X-4204547Y-11479804D01*
X-3269827Y-12492417D02*
X-3425613Y-12414524D01*
X-3425613Y-12414524D02*
X-3503507Y-12336630D01*
X-3503507Y-12336630D02*
X-3581400Y-12180844D01*
X-3581400Y-12180844D02*
X-3581400Y-11713484D01*
X-3581400Y-11713484D02*
X-3503507Y-11557697D01*
X-3503507Y-11557697D02*
X-3425613Y-11479804D01*
X-3425613Y-11479804D02*
X-3269827Y-11401910D01*
X-3269827Y-11401910D02*
X-3036147Y-11401910D01*
X-3036147Y-11401910D02*
X-2880360Y-11479804D01*
X-2880360Y-11479804D02*
X-2802467Y-11557697D01*
X-2802467Y-11557697D02*
X-2724573Y-11713484D01*
X-2724573Y-11713484D02*
X-2724573Y-12180844D01*
X-2724573Y-12180844D02*
X-2802467Y-12336630D01*
X-2802467Y-12336630D02*
X-2880360Y-12414524D01*
X-2880360Y-12414524D02*
X-3036147Y-12492417D01*
X-3036147Y-12492417D02*
X-3269827Y-12492417D01*
X-2023534Y-12492417D02*
X-2023534Y-11401910D01*
X-2023534Y-11557697D02*
X-1945640Y-11479804D01*
X-1945640Y-11479804D02*
X-1789854Y-11401910D01*
X-1789854Y-11401910D02*
X-1556174Y-11401910D01*
X-1556174Y-11401910D02*
X-1400387Y-11479804D01*
X-1400387Y-11479804D02*
X-1322494Y-11635590D01*
X-1322494Y-11635590D02*
X-1322494Y-12492417D01*
X-1322494Y-11635590D02*
X-1244600Y-11479804D01*
X-1244600Y-11479804D02*
X-1088814Y-11401910D01*
X-1088814Y-11401910D02*
X-855134Y-11401910D01*
X-855134Y-11401910D02*
X-699347Y-11479804D01*
X-699347Y-11479804D02*
X-621454Y-11635590D01*
X-621454Y-11635590D02*
X-621454Y-12492417D01*
X157479Y-12492417D02*
X157479Y-11401910D01*
X157479Y-11557697D02*
X235373Y-11479804D01*
X235373Y-11479804D02*
X391159Y-11401910D01*
X391159Y-11401910D02*
X624839Y-11401910D01*
X624839Y-11401910D02*
X780626Y-11479804D01*
X780626Y-11479804D02*
X858519Y-11635590D01*
X858519Y-11635590D02*
X858519Y-12492417D01*
X858519Y-11635590D02*
X936413Y-11479804D01*
X936413Y-11479804D02*
X1092199Y-11401910D01*
X1092199Y-11401910D02*
X1325879Y-11401910D01*
X1325879Y-11401910D02*
X1481666Y-11479804D01*
X1481666Y-11479804D02*
X1559559Y-11635590D01*
X1559559Y-11635590D02*
X1559559Y-12492417D01*
X2572172Y-12492417D02*
X2416386Y-12414524D01*
X2416386Y-12414524D02*
X2338492Y-12336630D01*
X2338492Y-12336630D02*
X2260599Y-12180844D01*
X2260599Y-12180844D02*
X2260599Y-11713484D01*
X2260599Y-11713484D02*
X2338492Y-11557697D01*
X2338492Y-11557697D02*
X2416386Y-11479804D01*
X2416386Y-11479804D02*
X2572172Y-11401910D01*
X2572172Y-11401910D02*
X2805852Y-11401910D01*
X2805852Y-11401910D02*
X2961639Y-11479804D01*
X2961639Y-11479804D02*
X3039532Y-11557697D01*
X3039532Y-11557697D02*
X3117426Y-11713484D01*
X3117426Y-11713484D02*
X3117426Y-12180844D01*
X3117426Y-12180844D02*
X3039532Y-12336630D01*
X3039532Y-12336630D02*
X2961639Y-12414524D01*
X2961639Y-12414524D02*
X2805852Y-12492417D01*
X2805852Y-12492417D02*
X2572172Y-12492417D01*
X3818465Y-11401910D02*
X3818465Y-12492417D01*
X3818465Y-11557697D02*
X3896359Y-11479804D01*
X3896359Y-11479804D02*
X4052145Y-11401910D01*
X4052145Y-11401910D02*
X4285825Y-11401910D01*
X4285825Y-11401910D02*
X4441612Y-11479804D01*
X4441612Y-11479804D02*
X4519505Y-11635590D01*
X4519505Y-11635590D02*
X4519505Y-12492417D01*
X5220545Y-12414524D02*
X5376332Y-12492417D01*
X5376332Y-12492417D02*
X5687905Y-12492417D01*
X5687905Y-12492417D02*
X5843692Y-12414524D01*
X5843692Y-12414524D02*
X5921585Y-12258737D01*
X5921585Y-12258737D02*
X5921585Y-12180844D01*
X5921585Y-12180844D02*
X5843692Y-12025057D01*
X5843692Y-12025057D02*
X5687905Y-11947164D01*
X5687905Y-11947164D02*
X5454225Y-11947164D01*
X5454225Y-11947164D02*
X5298438Y-11869270D01*
X5298438Y-11869270D02*
X5220545Y-11713484D01*
X5220545Y-11713484D02*
X5220545Y-11635590D01*
X5220545Y-11635590D02*
X5298438Y-11479804D01*
X5298438Y-11479804D02*
X5454225Y-11401910D01*
X5454225Y-11401910D02*
X5687905Y-11401910D01*
X5687905Y-11401910D02*
X5843692Y-11479804D01*
X6622625Y-12336630D02*
X6700519Y-12414524D01*
X6700519Y-12414524D02*
X6622625Y-12492417D01*
X6622625Y-12492417D02*
X6544732Y-12414524D01*
X6544732Y-12414524D02*
X6622625Y-12336630D01*
X6622625Y-12336630D02*
X6622625Y-12492417D01*
X7635238Y-12492417D02*
X7479452Y-12414524D01*
X7479452Y-12414524D02*
X7401558Y-12336630D01*
X7401558Y-12336630D02*
X7323665Y-12180844D01*
X7323665Y-12180844D02*
X7323665Y-11713484D01*
X7323665Y-11713484D02*
X7401558Y-11557697D01*
X7401558Y-11557697D02*
X7479452Y-11479804D01*
X7479452Y-11479804D02*
X7635238Y-11401910D01*
X7635238Y-11401910D02*
X7868918Y-11401910D01*
X7868918Y-11401910D02*
X8024705Y-11479804D01*
X8024705Y-11479804D02*
X8102598Y-11557697D01*
X8102598Y-11557697D02*
X8180492Y-11713484D01*
X8180492Y-11713484D02*
X8180492Y-12180844D01*
X8180492Y-12180844D02*
X8102598Y-12336630D01*
X8102598Y-12336630D02*
X8024705Y-12414524D01*
X8024705Y-12414524D02*
X7868918Y-12492417D01*
X7868918Y-12492417D02*
X7635238Y-12492417D01*
X8881531Y-12492417D02*
X8881531Y-11401910D01*
X8881531Y-11713484D02*
X8959425Y-11557697D01*
X8959425Y-11557697D02*
X9037318Y-11479804D01*
X9037318Y-11479804D02*
X9193105Y-11401910D01*
X9193105Y-11401910D02*
X9348891Y-11401910D01*
X10595184Y-11401910D02*
X10595184Y-12726097D01*
X10595184Y-12726097D02*
X10517291Y-12881884D01*
X10517291Y-12881884D02*
X10439398Y-12959777D01*
X10439398Y-12959777D02*
X10283611Y-13037670D01*
X10283611Y-13037670D02*
X10049931Y-13037670D01*
X10049931Y-13037670D02*
X9894144Y-12959777D01*
X10595184Y-12414524D02*
X10439398Y-12492417D01*
X10439398Y-12492417D02*
X10127824Y-12492417D01*
X10127824Y-12492417D02*
X9972038Y-12414524D01*
X9972038Y-12414524D02*
X9894144Y-12336630D01*
X9894144Y-12336630D02*
X9816251Y-12180844D01*
X9816251Y-12180844D02*
X9816251Y-11713484D01*
X9816251Y-11713484D02*
X9894144Y-11557697D01*
X9894144Y-11557697D02*
X9972038Y-11479804D01*
X9972038Y-11479804D02*
X10127824Y-11401910D01*
X10127824Y-11401910D02*
X10439398Y-11401910D01*
X10439398Y-11401910D02*
X10595184Y-11479804D01*
X12542517Y-10778764D02*
X11140437Y-12881884D01*
X13321450Y-12492417D02*
X13165664Y-12414524D01*
X13165664Y-12414524D02*
X13087770Y-12258737D01*
X13087770Y-12258737D02*
X13087770Y-10856657D01*
X13944597Y-12492417D02*
X13944597Y-11401910D01*
X13944597Y-10856657D02*
X13866704Y-10934550D01*
X13866704Y-10934550D02*
X13944597Y-11012444D01*
X13944597Y-11012444D02*
X14022491Y-10934550D01*
X14022491Y-10934550D02*
X13944597Y-10856657D01*
X13944597Y-10856657D02*
X13944597Y-11012444D01*
X15424570Y-12414524D02*
X15268784Y-12492417D01*
X15268784Y-12492417D02*
X14957210Y-12492417D01*
X14957210Y-12492417D02*
X14801424Y-12414524D01*
X14801424Y-12414524D02*
X14723530Y-12336630D01*
X14723530Y-12336630D02*
X14645637Y-12180844D01*
X14645637Y-12180844D02*
X14645637Y-11713484D01*
X14645637Y-11713484D02*
X14723530Y-11557697D01*
X14723530Y-11557697D02*
X14801424Y-11479804D01*
X14801424Y-11479804D02*
X14957210Y-11401910D01*
X14957210Y-11401910D02*
X15268784Y-11401910D01*
X15268784Y-11401910D02*
X15424570Y-11479804D01*
X16748757Y-12414524D02*
X16592970Y-12492417D01*
X16592970Y-12492417D02*
X16281397Y-12492417D01*
X16281397Y-12492417D02*
X16125610Y-12414524D01*
X16125610Y-12414524D02*
X16047717Y-12258737D01*
X16047717Y-12258737D02*
X16047717Y-11635590D01*
X16047717Y-11635590D02*
X16125610Y-11479804D01*
X16125610Y-11479804D02*
X16281397Y-11401910D01*
X16281397Y-11401910D02*
X16592970Y-11401910D01*
X16592970Y-11401910D02*
X16748757Y-11479804D01*
X16748757Y-11479804D02*
X16826650Y-11635590D01*
X16826650Y-11635590D02*
X16826650Y-11791377D01*
X16826650Y-11791377D02*
X16047717Y-11947164D01*
X17527690Y-11401910D02*
X17527690Y-12492417D01*
X17527690Y-11557697D02*
X17605584Y-11479804D01*
X17605584Y-11479804D02*
X17761370Y-11401910D01*
X17761370Y-11401910D02*
X17995050Y-11401910D01*
X17995050Y-11401910D02*
X18150837Y-11479804D01*
X18150837Y-11479804D02*
X18228730Y-11635590D01*
X18228730Y-11635590D02*
X18228730Y-12492417D01*
X18929770Y-12414524D02*
X19085557Y-12492417D01*
X19085557Y-12492417D02*
X19397130Y-12492417D01*
X19397130Y-12492417D02*
X19552917Y-12414524D01*
X19552917Y-12414524D02*
X19630810Y-12258737D01*
X19630810Y-12258737D02*
X19630810Y-12180844D01*
X19630810Y-12180844D02*
X19552917Y-12025057D01*
X19552917Y-12025057D02*
X19397130Y-11947164D01*
X19397130Y-11947164D02*
X19163450Y-11947164D01*
X19163450Y-11947164D02*
X19007663Y-11869270D01*
X19007663Y-11869270D02*
X18929770Y-11713484D01*
X18929770Y-11713484D02*
X18929770Y-11635590D01*
X18929770Y-11635590D02*
X19007663Y-11479804D01*
X19007663Y-11479804D02*
X19163450Y-11401910D01*
X19163450Y-11401910D02*
X19397130Y-11401910D01*
X19397130Y-11401910D02*
X19552917Y-11479804D01*
X20954997Y-12414524D02*
X20799210Y-12492417D01*
X20799210Y-12492417D02*
X20487637Y-12492417D01*
X20487637Y-12492417D02*
X20331850Y-12414524D01*
X20331850Y-12414524D02*
X20253957Y-12258737D01*
X20253957Y-12258737D02*
X20253957Y-11635590D01*
X20253957Y-11635590D02*
X20331850Y-11479804D01*
X20331850Y-11479804D02*
X20487637Y-11401910D01*
X20487637Y-11401910D02*
X20799210Y-11401910D01*
X20799210Y-11401910D02*
X20954997Y-11479804D01*
X20954997Y-11479804D02*
X21032890Y-11635590D01*
X21032890Y-11635590D02*
X21032890Y-11791377D01*
X21032890Y-11791377D02*
X20253957Y-11947164D01*
X21656037Y-12414524D02*
X21811824Y-12492417D01*
X21811824Y-12492417D02*
X22123397Y-12492417D01*
X22123397Y-12492417D02*
X22279184Y-12414524D01*
X22279184Y-12414524D02*
X22357077Y-12258737D01*
X22357077Y-12258737D02*
X22357077Y-12180844D01*
X22357077Y-12180844D02*
X22279184Y-12025057D01*
X22279184Y-12025057D02*
X22123397Y-11947164D01*
X22123397Y-11947164D02*
X21889717Y-11947164D01*
X21889717Y-11947164D02*
X21733930Y-11869270D01*
X21733930Y-11869270D02*
X21656037Y-11713484D01*
X21656037Y-11713484D02*
X21656037Y-11635590D01*
X21656037Y-11635590D02*
X21733930Y-11479804D01*
X21733930Y-11479804D02*
X21889717Y-11401910D01*
X21889717Y-11401910D02*
X22123397Y-11401910D01*
X22123397Y-11401910D02*
X22279184Y-11479804D01*
X24226517Y-10778764D02*
X22824437Y-12881884D01*
X24771770Y-12492417D02*
X24771770Y-10856657D01*
X24771770Y-11479804D02*
X24927557Y-11401910D01*
X24927557Y-11401910D02*
X25239130Y-11401910D01*
X25239130Y-11401910D02*
X25394917Y-11479804D01*
X25394917Y-11479804D02*
X25472810Y-11557697D01*
X25472810Y-11557697D02*
X25550704Y-11713484D01*
X25550704Y-11713484D02*
X25550704Y-12180844D01*
X25550704Y-12180844D02*
X25472810Y-12336630D01*
X25472810Y-12336630D02*
X25394917Y-12414524D01*
X25394917Y-12414524D02*
X25239130Y-12492417D01*
X25239130Y-12492417D02*
X24927557Y-12492417D01*
X24927557Y-12492417D02*
X24771770Y-12414524D01*
X26095957Y-11401910D02*
X26485423Y-12492417D01*
X26874890Y-11401910D02*
X26485423Y-12492417D01*
X26485423Y-12492417D02*
X26329637Y-12881884D01*
X26329637Y-12881884D02*
X26251743Y-12959777D01*
X26251743Y-12959777D02*
X26095957Y-13037670D01*
X27498036Y-11869270D02*
X28744330Y-11869270D01*
X29445370Y-12414524D02*
X29601157Y-12492417D01*
X29601157Y-12492417D02*
X29912730Y-12492417D01*
X29912730Y-12492417D02*
X30068517Y-12414524D01*
X30068517Y-12414524D02*
X30146410Y-12258737D01*
X30146410Y-12258737D02*
X30146410Y-12180844D01*
X30146410Y-12180844D02*
X30068517Y-12025057D01*
X30068517Y-12025057D02*
X29912730Y-11947164D01*
X29912730Y-11947164D02*
X29679050Y-11947164D01*
X29679050Y-11947164D02*
X29523263Y-11869270D01*
X29523263Y-11869270D02*
X29445370Y-11713484D01*
X29445370Y-11713484D02*
X29445370Y-11635590D01*
X29445370Y-11635590D02*
X29523263Y-11479804D01*
X29523263Y-11479804D02*
X29679050Y-11401910D01*
X29679050Y-11401910D02*
X29912730Y-11401910D01*
X29912730Y-11401910D02*
X30068517Y-11479804D01*
X31548490Y-12492417D02*
X31548490Y-11635590D01*
X31548490Y-11635590D02*
X31470597Y-11479804D01*
X31470597Y-11479804D02*
X31314810Y-11401910D01*
X31314810Y-11401910D02*
X31003237Y-11401910D01*
X31003237Y-11401910D02*
X30847450Y-11479804D01*
X31548490Y-12414524D02*
X31392704Y-12492417D01*
X31392704Y-12492417D02*
X31003237Y-12492417D01*
X31003237Y-12492417D02*
X30847450Y-12414524D01*
X30847450Y-12414524D02*
X30769557Y-12258737D01*
X30769557Y-12258737D02*
X30769557Y-12102950D01*
X30769557Y-12102950D02*
X30847450Y-11947164D01*
X30847450Y-11947164D02*
X31003237Y-11869270D01*
X31003237Y-11869270D02*
X31392704Y-11869270D01*
X31392704Y-11869270D02*
X31548490Y-11791377D01*
X33495823Y-10778764D02*
X32093743Y-12881884D01*
X34742116Y-11401910D02*
X34742116Y-12492417D01*
X34352650Y-10778764D02*
X33963183Y-11947164D01*
X33963183Y-11947164D02*
X34975796Y-11947164D01*
X35598943Y-12336630D02*
X35676837Y-12414524D01*
X35676837Y-12414524D02*
X35598943Y-12492417D01*
X35598943Y-12492417D02*
X35521050Y-12414524D01*
X35521050Y-12414524D02*
X35598943Y-12336630D01*
X35598943Y-12336630D02*
X35598943Y-12492417D01*
X36689450Y-10856657D02*
X36845236Y-10856657D01*
X36845236Y-10856657D02*
X37001023Y-10934550D01*
X37001023Y-10934550D02*
X37078916Y-11012444D01*
X37078916Y-11012444D02*
X37156810Y-11168230D01*
X37156810Y-11168230D02*
X37234703Y-11479804D01*
X37234703Y-11479804D02*
X37234703Y-11869270D01*
X37234703Y-11869270D02*
X37156810Y-12180844D01*
X37156810Y-12180844D02*
X37078916Y-12336630D01*
X37078916Y-12336630D02*
X37001023Y-12414524D01*
X37001023Y-12414524D02*
X36845236Y-12492417D01*
X36845236Y-12492417D02*
X36689450Y-12492417D01*
X36689450Y-12492417D02*
X36533663Y-12414524D01*
X36533663Y-12414524D02*
X36455770Y-12336630D01*
X36455770Y-12336630D02*
X36377876Y-12180844D01*
X36377876Y-12180844D02*
X36299983Y-11869270D01*
X36299983Y-11869270D02*
X36299983Y-11479804D01*
X36299983Y-11479804D02*
X36377876Y-11168230D01*
X36377876Y-11168230D02*
X36455770Y-11012444D01*
X36455770Y-11012444D02*
X36533663Y-10934550D01*
X36533663Y-10934550D02*
X36689450Y-10856657D01*
X39104143Y-10778764D02*
X37702063Y-12881884D01*
X-39178649Y-9952417D02*
X-39723902Y-9173484D01*
X-40113369Y-9952417D02*
X-40113369Y-8316657D01*
X-40113369Y-8316657D02*
X-39490222Y-8316657D01*
X-39490222Y-8316657D02*
X-39334435Y-8394550D01*
X-39334435Y-8394550D02*
X-39256542Y-8472444D01*
X-39256542Y-8472444D02*
X-39178649Y-8628230D01*
X-39178649Y-8628230D02*
X-39178649Y-8861910D01*
X-39178649Y-8861910D02*
X-39256542Y-9017697D01*
X-39256542Y-9017697D02*
X-39334435Y-9095590D01*
X-39334435Y-9095590D02*
X-39490222Y-9173484D01*
X-39490222Y-9173484D02*
X-40113369Y-9173484D01*
X-37854462Y-9874524D02*
X-38010249Y-9952417D01*
X-38010249Y-9952417D02*
X-38321822Y-9952417D01*
X-38321822Y-9952417D02*
X-38477609Y-9874524D01*
X-38477609Y-9874524D02*
X-38555502Y-9718737D01*
X-38555502Y-9718737D02*
X-38555502Y-9095590D01*
X-38555502Y-9095590D02*
X-38477609Y-8939804D01*
X-38477609Y-8939804D02*
X-38321822Y-8861910D01*
X-38321822Y-8861910D02*
X-38010249Y-8861910D01*
X-38010249Y-8861910D02*
X-37854462Y-8939804D01*
X-37854462Y-8939804D02*
X-37776569Y-9095590D01*
X-37776569Y-9095590D02*
X-37776569Y-9251377D01*
X-37776569Y-9251377D02*
X-38555502Y-9407164D01*
X-36841849Y-9952417D02*
X-36997635Y-9874524D01*
X-36997635Y-9874524D02*
X-37075529Y-9718737D01*
X-37075529Y-9718737D02*
X-37075529Y-8316657D01*
X-35595555Y-9874524D02*
X-35751342Y-9952417D01*
X-35751342Y-9952417D02*
X-36062915Y-9952417D01*
X-36062915Y-9952417D02*
X-36218702Y-9874524D01*
X-36218702Y-9874524D02*
X-36296595Y-9718737D01*
X-36296595Y-9718737D02*
X-36296595Y-9095590D01*
X-36296595Y-9095590D02*
X-36218702Y-8939804D01*
X-36218702Y-8939804D02*
X-36062915Y-8861910D01*
X-36062915Y-8861910D02*
X-35751342Y-8861910D01*
X-35751342Y-8861910D02*
X-35595555Y-8939804D01*
X-35595555Y-8939804D02*
X-35517662Y-9095590D01*
X-35517662Y-9095590D02*
X-35517662Y-9251377D01*
X-35517662Y-9251377D02*
X-36296595Y-9407164D01*
X-34115582Y-9952417D02*
X-34115582Y-9095590D01*
X-34115582Y-9095590D02*
X-34193475Y-8939804D01*
X-34193475Y-8939804D02*
X-34349262Y-8861910D01*
X-34349262Y-8861910D02*
X-34660835Y-8861910D01*
X-34660835Y-8861910D02*
X-34816622Y-8939804D01*
X-34115582Y-9874524D02*
X-34271368Y-9952417D01*
X-34271368Y-9952417D02*
X-34660835Y-9952417D01*
X-34660835Y-9952417D02*
X-34816622Y-9874524D01*
X-34816622Y-9874524D02*
X-34894515Y-9718737D01*
X-34894515Y-9718737D02*
X-34894515Y-9562950D01*
X-34894515Y-9562950D02*
X-34816622Y-9407164D01*
X-34816622Y-9407164D02*
X-34660835Y-9329270D01*
X-34660835Y-9329270D02*
X-34271368Y-9329270D01*
X-34271368Y-9329270D02*
X-34115582Y-9251377D01*
X-33414542Y-9874524D02*
X-33258755Y-9952417D01*
X-33258755Y-9952417D02*
X-32947182Y-9952417D01*
X-32947182Y-9952417D02*
X-32791395Y-9874524D01*
X-32791395Y-9874524D02*
X-32713502Y-9718737D01*
X-32713502Y-9718737D02*
X-32713502Y-9640844D01*
X-32713502Y-9640844D02*
X-32791395Y-9485057D01*
X-32791395Y-9485057D02*
X-32947182Y-9407164D01*
X-32947182Y-9407164D02*
X-33180862Y-9407164D01*
X-33180862Y-9407164D02*
X-33336649Y-9329270D01*
X-33336649Y-9329270D02*
X-33414542Y-9173484D01*
X-33414542Y-9173484D02*
X-33414542Y-9095590D01*
X-33414542Y-9095590D02*
X-33336649Y-8939804D01*
X-33336649Y-8939804D02*
X-33180862Y-8861910D01*
X-33180862Y-8861910D02*
X-32947182Y-8861910D01*
X-32947182Y-8861910D02*
X-32791395Y-8939804D01*
X-31389315Y-9874524D02*
X-31545102Y-9952417D01*
X-31545102Y-9952417D02*
X-31856675Y-9952417D01*
X-31856675Y-9952417D02*
X-32012462Y-9874524D01*
X-32012462Y-9874524D02*
X-32090355Y-9718737D01*
X-32090355Y-9718737D02*
X-32090355Y-9095590D01*
X-32090355Y-9095590D02*
X-32012462Y-8939804D01*
X-32012462Y-8939804D02*
X-31856675Y-8861910D01*
X-31856675Y-8861910D02*
X-31545102Y-8861910D01*
X-31545102Y-8861910D02*
X-31389315Y-8939804D01*
X-31389315Y-8939804D02*
X-31311422Y-9095590D01*
X-31311422Y-9095590D02*
X-31311422Y-9251377D01*
X-31311422Y-9251377D02*
X-32090355Y-9407164D01*
X-29909342Y-9952417D02*
X-29909342Y-8316657D01*
X-29909342Y-9874524D02*
X-30065128Y-9952417D01*
X-30065128Y-9952417D02*
X-30376702Y-9952417D01*
X-30376702Y-9952417D02*
X-30532488Y-9874524D01*
X-30532488Y-9874524D02*
X-30610382Y-9796630D01*
X-30610382Y-9796630D02*
X-30688275Y-9640844D01*
X-30688275Y-9640844D02*
X-30688275Y-9173484D01*
X-30688275Y-9173484D02*
X-30610382Y-9017697D01*
X-30610382Y-9017697D02*
X-30532488Y-8939804D01*
X-30532488Y-8939804D02*
X-30376702Y-8861910D01*
X-30376702Y-8861910D02*
X-30065128Y-8861910D01*
X-30065128Y-8861910D02*
X-29909342Y-8939804D01*
X-27183076Y-8861910D02*
X-27183076Y-9952417D01*
X-27884116Y-8861910D02*
X-27884116Y-9718737D01*
X-27884116Y-9718737D02*
X-27806222Y-9874524D01*
X-27806222Y-9874524D02*
X-27650436Y-9952417D01*
X-27650436Y-9952417D02*
X-27416756Y-9952417D01*
X-27416756Y-9952417D02*
X-27260969Y-9874524D01*
X-27260969Y-9874524D02*
X-27183076Y-9796630D01*
X-26404143Y-8861910D02*
X-26404143Y-9952417D01*
X-26404143Y-9017697D02*
X-26326249Y-8939804D01*
X-26326249Y-8939804D02*
X-26170463Y-8861910D01*
X-26170463Y-8861910D02*
X-25936783Y-8861910D01*
X-25936783Y-8861910D02*
X-25780996Y-8939804D01*
X-25780996Y-8939804D02*
X-25703103Y-9095590D01*
X-25703103Y-9095590D02*
X-25703103Y-9952417D01*
X-24223130Y-9952417D02*
X-24223130Y-8316657D01*
X-24223130Y-9874524D02*
X-24378916Y-9952417D01*
X-24378916Y-9952417D02*
X-24690490Y-9952417D01*
X-24690490Y-9952417D02*
X-24846276Y-9874524D01*
X-24846276Y-9874524D02*
X-24924170Y-9796630D01*
X-24924170Y-9796630D02*
X-25002063Y-9640844D01*
X-25002063Y-9640844D02*
X-25002063Y-9173484D01*
X-25002063Y-9173484D02*
X-24924170Y-9017697D01*
X-24924170Y-9017697D02*
X-24846276Y-8939804D01*
X-24846276Y-8939804D02*
X-24690490Y-8861910D01*
X-24690490Y-8861910D02*
X-24378916Y-8861910D01*
X-24378916Y-8861910D02*
X-24223130Y-8939804D01*
X-22821050Y-9874524D02*
X-22976837Y-9952417D01*
X-22976837Y-9952417D02*
X-23288410Y-9952417D01*
X-23288410Y-9952417D02*
X-23444197Y-9874524D01*
X-23444197Y-9874524D02*
X-23522090Y-9718737D01*
X-23522090Y-9718737D02*
X-23522090Y-9095590D01*
X-23522090Y-9095590D02*
X-23444197Y-8939804D01*
X-23444197Y-8939804D02*
X-23288410Y-8861910D01*
X-23288410Y-8861910D02*
X-22976837Y-8861910D01*
X-22976837Y-8861910D02*
X-22821050Y-8939804D01*
X-22821050Y-8939804D02*
X-22743157Y-9095590D01*
X-22743157Y-9095590D02*
X-22743157Y-9251377D01*
X-22743157Y-9251377D02*
X-23522090Y-9407164D01*
X-22042117Y-9952417D02*
X-22042117Y-8861910D01*
X-22042117Y-9173484D02*
X-21964223Y-9017697D01*
X-21964223Y-9017697D02*
X-21886330Y-8939804D01*
X-21886330Y-8939804D02*
X-21730543Y-8861910D01*
X-21730543Y-8861910D02*
X-21574757Y-8861910D01*
X-20016891Y-8861910D02*
X-19393744Y-8861910D01*
X-19783211Y-8316657D02*
X-19783211Y-9718737D01*
X-19783211Y-9718737D02*
X-19705317Y-9874524D01*
X-19705317Y-9874524D02*
X-19549531Y-9952417D01*
X-19549531Y-9952417D02*
X-19393744Y-9952417D01*
X-18848491Y-9952417D02*
X-18848491Y-8316657D01*
X-18147451Y-9952417D02*
X-18147451Y-9095590D01*
X-18147451Y-9095590D02*
X-18225344Y-8939804D01*
X-18225344Y-8939804D02*
X-18381131Y-8861910D01*
X-18381131Y-8861910D02*
X-18614811Y-8861910D01*
X-18614811Y-8861910D02*
X-18770597Y-8939804D01*
X-18770597Y-8939804D02*
X-18848491Y-9017697D01*
X-16745371Y-9874524D02*
X-16901158Y-9952417D01*
X-16901158Y-9952417D02*
X-17212731Y-9952417D01*
X-17212731Y-9952417D02*
X-17368518Y-9874524D01*
X-17368518Y-9874524D02*
X-17446411Y-9718737D01*
X-17446411Y-9718737D02*
X-17446411Y-9095590D01*
X-17446411Y-9095590D02*
X-17368518Y-8939804D01*
X-17368518Y-8939804D02*
X-17212731Y-8861910D01*
X-17212731Y-8861910D02*
X-16901158Y-8861910D01*
X-16901158Y-8861910D02*
X-16745371Y-8939804D01*
X-16745371Y-8939804D02*
X-16667478Y-9095590D01*
X-16667478Y-9095590D02*
X-16667478Y-9251377D01*
X-16667478Y-9251377D02*
X-17446411Y-9407164D01*
X-13785425Y-9796630D02*
X-13863318Y-9874524D01*
X-13863318Y-9874524D02*
X-14096998Y-9952417D01*
X-14096998Y-9952417D02*
X-14252785Y-9952417D01*
X-14252785Y-9952417D02*
X-14486465Y-9874524D01*
X-14486465Y-9874524D02*
X-14642251Y-9718737D01*
X-14642251Y-9718737D02*
X-14720145Y-9562950D01*
X-14720145Y-9562950D02*
X-14798038Y-9251377D01*
X-14798038Y-9251377D02*
X-14798038Y-9017697D01*
X-14798038Y-9017697D02*
X-14720145Y-8706124D01*
X-14720145Y-8706124D02*
X-14642251Y-8550337D01*
X-14642251Y-8550337D02*
X-14486465Y-8394550D01*
X-14486465Y-8394550D02*
X-14252785Y-8316657D01*
X-14252785Y-8316657D02*
X-14096998Y-8316657D01*
X-14096998Y-8316657D02*
X-13863318Y-8394550D01*
X-13863318Y-8394550D02*
X-13785425Y-8472444D01*
X-13084385Y-9952417D02*
X-13084385Y-8861910D01*
X-13084385Y-9173484D02*
X-13006491Y-9017697D01*
X-13006491Y-9017697D02*
X-12928598Y-8939804D01*
X-12928598Y-8939804D02*
X-12772811Y-8861910D01*
X-12772811Y-8861910D02*
X-12617025Y-8861910D01*
X-11448625Y-9874524D02*
X-11604412Y-9952417D01*
X-11604412Y-9952417D02*
X-11915985Y-9952417D01*
X-11915985Y-9952417D02*
X-12071772Y-9874524D01*
X-12071772Y-9874524D02*
X-12149665Y-9718737D01*
X-12149665Y-9718737D02*
X-12149665Y-9095590D01*
X-12149665Y-9095590D02*
X-12071772Y-8939804D01*
X-12071772Y-8939804D02*
X-11915985Y-8861910D01*
X-11915985Y-8861910D02*
X-11604412Y-8861910D01*
X-11604412Y-8861910D02*
X-11448625Y-8939804D01*
X-11448625Y-8939804D02*
X-11370732Y-9095590D01*
X-11370732Y-9095590D02*
X-11370732Y-9251377D01*
X-11370732Y-9251377D02*
X-12149665Y-9407164D01*
X-9968652Y-9952417D02*
X-9968652Y-9095590D01*
X-9968652Y-9095590D02*
X-10046545Y-8939804D01*
X-10046545Y-8939804D02*
X-10202332Y-8861910D01*
X-10202332Y-8861910D02*
X-10513905Y-8861910D01*
X-10513905Y-8861910D02*
X-10669692Y-8939804D01*
X-9968652Y-9874524D02*
X-10124438Y-9952417D01*
X-10124438Y-9952417D02*
X-10513905Y-9952417D01*
X-10513905Y-9952417D02*
X-10669692Y-9874524D01*
X-10669692Y-9874524D02*
X-10747585Y-9718737D01*
X-10747585Y-9718737D02*
X-10747585Y-9562950D01*
X-10747585Y-9562950D02*
X-10669692Y-9407164D01*
X-10669692Y-9407164D02*
X-10513905Y-9329270D01*
X-10513905Y-9329270D02*
X-10124438Y-9329270D01*
X-10124438Y-9329270D02*
X-9968652Y-9251377D01*
X-9423399Y-8861910D02*
X-8800252Y-8861910D01*
X-9189719Y-8316657D02*
X-9189719Y-9718737D01*
X-9189719Y-9718737D02*
X-9111825Y-9874524D01*
X-9111825Y-9874524D02*
X-8956039Y-9952417D01*
X-8956039Y-9952417D02*
X-8800252Y-9952417D01*
X-8254999Y-9952417D02*
X-8254999Y-8861910D01*
X-8254999Y-8316657D02*
X-8332892Y-8394550D01*
X-8332892Y-8394550D02*
X-8254999Y-8472444D01*
X-8254999Y-8472444D02*
X-8177105Y-8394550D01*
X-8177105Y-8394550D02*
X-8254999Y-8316657D01*
X-8254999Y-8316657D02*
X-8254999Y-8472444D01*
X-7631852Y-8861910D02*
X-7242386Y-9952417D01*
X-7242386Y-9952417D02*
X-6852919Y-8861910D01*
X-5606626Y-9874524D02*
X-5762413Y-9952417D01*
X-5762413Y-9952417D02*
X-6073986Y-9952417D01*
X-6073986Y-9952417D02*
X-6229773Y-9874524D01*
X-6229773Y-9874524D02*
X-6307666Y-9718737D01*
X-6307666Y-9718737D02*
X-6307666Y-9095590D01*
X-6307666Y-9095590D02*
X-6229773Y-8939804D01*
X-6229773Y-8939804D02*
X-6073986Y-8861910D01*
X-6073986Y-8861910D02*
X-5762413Y-8861910D01*
X-5762413Y-8861910D02*
X-5606626Y-8939804D01*
X-5606626Y-8939804D02*
X-5528733Y-9095590D01*
X-5528733Y-9095590D02*
X-5528733Y-9251377D01*
X-5528733Y-9251377D02*
X-6307666Y-9407164D01*
X-2646680Y-9796630D02*
X-2724573Y-9874524D01*
X-2724573Y-9874524D02*
X-2958253Y-9952417D01*
X-2958253Y-9952417D02*
X-3114040Y-9952417D01*
X-3114040Y-9952417D02*
X-3347720Y-9874524D01*
X-3347720Y-9874524D02*
X-3503506Y-9718737D01*
X-3503506Y-9718737D02*
X-3581400Y-9562950D01*
X-3581400Y-9562950D02*
X-3659293Y-9251377D01*
X-3659293Y-9251377D02*
X-3659293Y-9017697D01*
X-3659293Y-9017697D02*
X-3581400Y-8706124D01*
X-3581400Y-8706124D02*
X-3503506Y-8550337D01*
X-3503506Y-8550337D02*
X-3347720Y-8394550D01*
X-3347720Y-8394550D02*
X-3114040Y-8316657D01*
X-3114040Y-8316657D02*
X-2958253Y-8316657D01*
X-2958253Y-8316657D02*
X-2724573Y-8394550D01*
X-2724573Y-8394550D02*
X-2646680Y-8472444D01*
X-1711960Y-9952417D02*
X-1867746Y-9874524D01*
X-1867746Y-9874524D02*
X-1945640Y-9796630D01*
X-1945640Y-9796630D02*
X-2023533Y-9640844D01*
X-2023533Y-9640844D02*
X-2023533Y-9173484D01*
X-2023533Y-9173484D02*
X-1945640Y-9017697D01*
X-1945640Y-9017697D02*
X-1867746Y-8939804D01*
X-1867746Y-8939804D02*
X-1711960Y-8861910D01*
X-1711960Y-8861910D02*
X-1478280Y-8861910D01*
X-1478280Y-8861910D02*
X-1322493Y-8939804D01*
X-1322493Y-8939804D02*
X-1244600Y-9017697D01*
X-1244600Y-9017697D02*
X-1166706Y-9173484D01*
X-1166706Y-9173484D02*
X-1166706Y-9640844D01*
X-1166706Y-9640844D02*
X-1244600Y-9796630D01*
X-1244600Y-9796630D02*
X-1322493Y-9874524D01*
X-1322493Y-9874524D02*
X-1478280Y-9952417D01*
X-1478280Y-9952417D02*
X-1711960Y-9952417D01*
X-465667Y-9952417D02*
X-465667Y-8861910D01*
X-465667Y-9017697D02*
X-387773Y-8939804D01*
X-387773Y-8939804D02*
X-231987Y-8861910D01*
X-231987Y-8861910D02*
X1693Y-8861910D01*
X1693Y-8861910D02*
X157480Y-8939804D01*
X157480Y-8939804D02*
X235373Y-9095590D01*
X235373Y-9095590D02*
X235373Y-9952417D01*
X235373Y-9095590D02*
X313267Y-8939804D01*
X313267Y-8939804D02*
X469053Y-8861910D01*
X469053Y-8861910D02*
X702733Y-8861910D01*
X702733Y-8861910D02*
X858520Y-8939804D01*
X858520Y-8939804D02*
X936413Y-9095590D01*
X936413Y-9095590D02*
X936413Y-9952417D01*
X1715346Y-9952417D02*
X1715346Y-8861910D01*
X1715346Y-9017697D02*
X1793240Y-8939804D01*
X1793240Y-8939804D02*
X1949026Y-8861910D01*
X1949026Y-8861910D02*
X2182706Y-8861910D01*
X2182706Y-8861910D02*
X2338493Y-8939804D01*
X2338493Y-8939804D02*
X2416386Y-9095590D01*
X2416386Y-9095590D02*
X2416386Y-9952417D01*
X2416386Y-9095590D02*
X2494280Y-8939804D01*
X2494280Y-8939804D02*
X2650066Y-8861910D01*
X2650066Y-8861910D02*
X2883746Y-8861910D01*
X2883746Y-8861910D02*
X3039533Y-8939804D01*
X3039533Y-8939804D02*
X3117426Y-9095590D01*
X3117426Y-9095590D02*
X3117426Y-9952417D01*
X4130039Y-9952417D02*
X3974253Y-9874524D01*
X3974253Y-9874524D02*
X3896359Y-9796630D01*
X3896359Y-9796630D02*
X3818466Y-9640844D01*
X3818466Y-9640844D02*
X3818466Y-9173484D01*
X3818466Y-9173484D02*
X3896359Y-9017697D01*
X3896359Y-9017697D02*
X3974253Y-8939804D01*
X3974253Y-8939804D02*
X4130039Y-8861910D01*
X4130039Y-8861910D02*
X4363719Y-8861910D01*
X4363719Y-8861910D02*
X4519506Y-8939804D01*
X4519506Y-8939804D02*
X4597399Y-9017697D01*
X4597399Y-9017697D02*
X4675293Y-9173484D01*
X4675293Y-9173484D02*
X4675293Y-9640844D01*
X4675293Y-9640844D02*
X4597399Y-9796630D01*
X4597399Y-9796630D02*
X4519506Y-9874524D01*
X4519506Y-9874524D02*
X4363719Y-9952417D01*
X4363719Y-9952417D02*
X4130039Y-9952417D01*
X5376332Y-8861910D02*
X5376332Y-9952417D01*
X5376332Y-9017697D02*
X5454226Y-8939804D01*
X5454226Y-8939804D02*
X5610012Y-8861910D01*
X5610012Y-8861910D02*
X5843692Y-8861910D01*
X5843692Y-8861910D02*
X5999479Y-8939804D01*
X5999479Y-8939804D02*
X6077372Y-9095590D01*
X6077372Y-9095590D02*
X6077372Y-9952417D01*
X6778412Y-9874524D02*
X6934199Y-9952417D01*
X6934199Y-9952417D02*
X7245772Y-9952417D01*
X7245772Y-9952417D02*
X7401559Y-9874524D01*
X7401559Y-9874524D02*
X7479452Y-9718737D01*
X7479452Y-9718737D02*
X7479452Y-9640844D01*
X7479452Y-9640844D02*
X7401559Y-9485057D01*
X7401559Y-9485057D02*
X7245772Y-9407164D01*
X7245772Y-9407164D02*
X7012092Y-9407164D01*
X7012092Y-9407164D02*
X6856305Y-9329270D01*
X6856305Y-9329270D02*
X6778412Y-9173484D01*
X6778412Y-9173484D02*
X6778412Y-9095590D01*
X6778412Y-9095590D02*
X6856305Y-8939804D01*
X6856305Y-8939804D02*
X7012092Y-8861910D01*
X7012092Y-8861910D02*
X7245772Y-8861910D01*
X7245772Y-8861910D02*
X7401559Y-8939804D01*
X9348892Y-9485057D02*
X10127825Y-9485057D01*
X9193105Y-9952417D02*
X9738359Y-8316657D01*
X9738359Y-8316657D02*
X10283612Y-9952417D01*
X10595185Y-8861910D02*
X11218332Y-8861910D01*
X10828865Y-8316657D02*
X10828865Y-9718737D01*
X10828865Y-9718737D02*
X10906759Y-9874524D01*
X10906759Y-9874524D02*
X11062545Y-9952417D01*
X11062545Y-9952417D02*
X11218332Y-9952417D01*
X11529905Y-8861910D02*
X12153052Y-8861910D01*
X11763585Y-8316657D02*
X11763585Y-9718737D01*
X11763585Y-9718737D02*
X11841479Y-9874524D01*
X11841479Y-9874524D02*
X11997265Y-9952417D01*
X11997265Y-9952417D02*
X12153052Y-9952417D01*
X12698305Y-9952417D02*
X12698305Y-8861910D01*
X12698305Y-9173484D02*
X12776199Y-9017697D01*
X12776199Y-9017697D02*
X12854092Y-8939804D01*
X12854092Y-8939804D02*
X13009879Y-8861910D01*
X13009879Y-8861910D02*
X13165665Y-8861910D01*
X13710918Y-9952417D02*
X13710918Y-8861910D01*
X13710918Y-8316657D02*
X13633025Y-8394550D01*
X13633025Y-8394550D02*
X13710918Y-8472444D01*
X13710918Y-8472444D02*
X13788812Y-8394550D01*
X13788812Y-8394550D02*
X13710918Y-8316657D01*
X13710918Y-8316657D02*
X13710918Y-8472444D01*
X14489851Y-9952417D02*
X14489851Y-8316657D01*
X14489851Y-8939804D02*
X14645638Y-8861910D01*
X14645638Y-8861910D02*
X14957211Y-8861910D01*
X14957211Y-8861910D02*
X15112998Y-8939804D01*
X15112998Y-8939804D02*
X15190891Y-9017697D01*
X15190891Y-9017697D02*
X15268785Y-9173484D01*
X15268785Y-9173484D02*
X15268785Y-9640844D01*
X15268785Y-9640844D02*
X15190891Y-9796630D01*
X15190891Y-9796630D02*
X15112998Y-9874524D01*
X15112998Y-9874524D02*
X14957211Y-9952417D01*
X14957211Y-9952417D02*
X14645638Y-9952417D01*
X14645638Y-9952417D02*
X14489851Y-9874524D01*
X16670864Y-8861910D02*
X16670864Y-9952417D01*
X15969824Y-8861910D02*
X15969824Y-9718737D01*
X15969824Y-9718737D02*
X16047718Y-9874524D01*
X16047718Y-9874524D02*
X16203504Y-9952417D01*
X16203504Y-9952417D02*
X16437184Y-9952417D01*
X16437184Y-9952417D02*
X16592971Y-9874524D01*
X16592971Y-9874524D02*
X16670864Y-9796630D01*
X17216117Y-8861910D02*
X17839264Y-8861910D01*
X17449797Y-8316657D02*
X17449797Y-9718737D01*
X17449797Y-9718737D02*
X17527691Y-9874524D01*
X17527691Y-9874524D02*
X17683477Y-9952417D01*
X17683477Y-9952417D02*
X17839264Y-9952417D01*
X18384517Y-9952417D02*
X18384517Y-8861910D01*
X18384517Y-8316657D02*
X18306624Y-8394550D01*
X18306624Y-8394550D02*
X18384517Y-8472444D01*
X18384517Y-8472444D02*
X18462411Y-8394550D01*
X18462411Y-8394550D02*
X18384517Y-8316657D01*
X18384517Y-8316657D02*
X18384517Y-8472444D01*
X19397130Y-9952417D02*
X19241344Y-9874524D01*
X19241344Y-9874524D02*
X19163450Y-9796630D01*
X19163450Y-9796630D02*
X19085557Y-9640844D01*
X19085557Y-9640844D02*
X19085557Y-9173484D01*
X19085557Y-9173484D02*
X19163450Y-9017697D01*
X19163450Y-9017697D02*
X19241344Y-8939804D01*
X19241344Y-8939804D02*
X19397130Y-8861910D01*
X19397130Y-8861910D02*
X19630810Y-8861910D01*
X19630810Y-8861910D02*
X19786597Y-8939804D01*
X19786597Y-8939804D02*
X19864490Y-9017697D01*
X19864490Y-9017697D02*
X19942384Y-9173484D01*
X19942384Y-9173484D02*
X19942384Y-9640844D01*
X19942384Y-9640844D02*
X19864490Y-9796630D01*
X19864490Y-9796630D02*
X19786597Y-9874524D01*
X19786597Y-9874524D02*
X19630810Y-9952417D01*
X19630810Y-9952417D02*
X19397130Y-9952417D01*
X20643423Y-8861910D02*
X20643423Y-9952417D01*
X20643423Y-9017697D02*
X20721317Y-8939804D01*
X20721317Y-8939804D02*
X20877103Y-8861910D01*
X20877103Y-8861910D02*
X21110783Y-8861910D01*
X21110783Y-8861910D02*
X21266570Y-8939804D01*
X21266570Y-8939804D02*
X21344463Y-9095590D01*
X21344463Y-9095590D02*
X21344463Y-9952417D01*
X23291796Y-9874524D02*
X23525476Y-9952417D01*
X23525476Y-9952417D02*
X23914943Y-9952417D01*
X23914943Y-9952417D02*
X24070729Y-9874524D01*
X24070729Y-9874524D02*
X24148623Y-9796630D01*
X24148623Y-9796630D02*
X24226516Y-9640844D01*
X24226516Y-9640844D02*
X24226516Y-9485057D01*
X24226516Y-9485057D02*
X24148623Y-9329270D01*
X24148623Y-9329270D02*
X24070729Y-9251377D01*
X24070729Y-9251377D02*
X23914943Y-9173484D01*
X23914943Y-9173484D02*
X23603369Y-9095590D01*
X23603369Y-9095590D02*
X23447583Y-9017697D01*
X23447583Y-9017697D02*
X23369689Y-8939804D01*
X23369689Y-8939804D02*
X23291796Y-8784017D01*
X23291796Y-8784017D02*
X23291796Y-8628230D01*
X23291796Y-8628230D02*
X23369689Y-8472444D01*
X23369689Y-8472444D02*
X23447583Y-8394550D01*
X23447583Y-8394550D02*
X23603369Y-8316657D01*
X23603369Y-8316657D02*
X23992836Y-8316657D01*
X23992836Y-8316657D02*
X24226516Y-8394550D01*
X24927556Y-9952417D02*
X24927556Y-8316657D01*
X25628596Y-9952417D02*
X25628596Y-9095590D01*
X25628596Y-9095590D02*
X25550703Y-8939804D01*
X25550703Y-8939804D02*
X25394916Y-8861910D01*
X25394916Y-8861910D02*
X25161236Y-8861910D01*
X25161236Y-8861910D02*
X25005450Y-8939804D01*
X25005450Y-8939804D02*
X24927556Y-9017697D01*
X27108569Y-9952417D02*
X27108569Y-9095590D01*
X27108569Y-9095590D02*
X27030676Y-8939804D01*
X27030676Y-8939804D02*
X26874889Y-8861910D01*
X26874889Y-8861910D02*
X26563316Y-8861910D01*
X26563316Y-8861910D02*
X26407529Y-8939804D01*
X27108569Y-9874524D02*
X26952783Y-9952417D01*
X26952783Y-9952417D02*
X26563316Y-9952417D01*
X26563316Y-9952417D02*
X26407529Y-9874524D01*
X26407529Y-9874524D02*
X26329636Y-9718737D01*
X26329636Y-9718737D02*
X26329636Y-9562950D01*
X26329636Y-9562950D02*
X26407529Y-9407164D01*
X26407529Y-9407164D02*
X26563316Y-9329270D01*
X26563316Y-9329270D02*
X26952783Y-9329270D01*
X26952783Y-9329270D02*
X27108569Y-9251377D01*
X27887502Y-9952417D02*
X27887502Y-8861910D01*
X27887502Y-9173484D02*
X27965396Y-9017697D01*
X27965396Y-9017697D02*
X28043289Y-8939804D01*
X28043289Y-8939804D02*
X28199076Y-8861910D01*
X28199076Y-8861910D02*
X28354862Y-8861910D01*
X29523262Y-9874524D02*
X29367475Y-9952417D01*
X29367475Y-9952417D02*
X29055902Y-9952417D01*
X29055902Y-9952417D02*
X28900115Y-9874524D01*
X28900115Y-9874524D02*
X28822222Y-9718737D01*
X28822222Y-9718737D02*
X28822222Y-9095590D01*
X28822222Y-9095590D02*
X28900115Y-8939804D01*
X28900115Y-8939804D02*
X29055902Y-8861910D01*
X29055902Y-8861910D02*
X29367475Y-8861910D01*
X29367475Y-8861910D02*
X29523262Y-8939804D01*
X29523262Y-8939804D02*
X29601155Y-9095590D01*
X29601155Y-9095590D02*
X29601155Y-9251377D01*
X29601155Y-9251377D02*
X28822222Y-9407164D01*
X30302195Y-9329270D02*
X31548489Y-9329270D01*
X32249529Y-9485057D02*
X33028462Y-9485057D01*
X32093742Y-9952417D02*
X32638996Y-8316657D01*
X32638996Y-8316657D02*
X33184249Y-9952417D01*
X33963182Y-9952417D02*
X33807396Y-9874524D01*
X33807396Y-9874524D02*
X33729502Y-9718737D01*
X33729502Y-9718737D02*
X33729502Y-8316657D01*
X34586329Y-9952417D02*
X34586329Y-8861910D01*
X34586329Y-8316657D02*
X34508436Y-8394550D01*
X34508436Y-8394550D02*
X34586329Y-8472444D01*
X34586329Y-8472444D02*
X34664223Y-8394550D01*
X34664223Y-8394550D02*
X34586329Y-8316657D01*
X34586329Y-8316657D02*
X34586329Y-8472444D01*
X35365262Y-9952417D02*
X35365262Y-8316657D01*
X35521049Y-9329270D02*
X35988409Y-9952417D01*
X35988409Y-8861910D02*
X35365262Y-9485057D01*
X37312596Y-9874524D02*
X37156809Y-9952417D01*
X37156809Y-9952417D02*
X36845236Y-9952417D01*
X36845236Y-9952417D02*
X36689449Y-9874524D01*
X36689449Y-9874524D02*
X36611556Y-9718737D01*
X36611556Y-9718737D02*
X36611556Y-9095590D01*
X36611556Y-9095590D02*
X36689449Y-8939804D01*
X36689449Y-8939804D02*
X36845236Y-8861910D01*
X36845236Y-8861910D02*
X37156809Y-8861910D01*
X37156809Y-8861910D02*
X37312596Y-8939804D01*
X37312596Y-8939804D02*
X37390489Y-9095590D01*
X37390489Y-9095590D02*
X37390489Y-9251377D01*
X37390489Y-9251377D02*
X36611556Y-9407164D01*
X40038862Y-8861910D02*
X40038862Y-9952417D01*
X39649396Y-8238764D02*
X39259929Y-9407164D01*
X39259929Y-9407164D02*
X40272542Y-9407164D01*
X40895689Y-9796630D02*
X40973583Y-9874524D01*
X40973583Y-9874524D02*
X40895689Y-9952417D01*
X40895689Y-9952417D02*
X40817796Y-9874524D01*
X40817796Y-9874524D02*
X40895689Y-9796630D01*
X40895689Y-9796630D02*
X40895689Y-9952417D01*
X41986196Y-8316657D02*
X42141982Y-8316657D01*
X42141982Y-8316657D02*
X42297769Y-8394550D01*
X42297769Y-8394550D02*
X42375662Y-8472444D01*
X42375662Y-8472444D02*
X42453556Y-8628230D01*
X42453556Y-8628230D02*
X42531449Y-8939804D01*
X42531449Y-8939804D02*
X42531449Y-9329270D01*
X42531449Y-9329270D02*
X42453556Y-9640844D01*
X42453556Y-9640844D02*
X42375662Y-9796630D01*
X42375662Y-9796630D02*
X42297769Y-9874524D01*
X42297769Y-9874524D02*
X42141982Y-9952417D01*
X42141982Y-9952417D02*
X41986196Y-9952417D01*
X41986196Y-9952417D02*
X41830409Y-9874524D01*
X41830409Y-9874524D02*
X41752516Y-9796630D01*
X41752516Y-9796630D02*
X41674622Y-9640844D01*
X41674622Y-9640844D02*
X41596729Y-9329270D01*
X41596729Y-9329270D02*
X41596729Y-8939804D01*
X41596729Y-8939804D02*
X41674622Y-8628230D01*
X41674622Y-8628230D02*
X41752516Y-8472444D01*
X41752516Y-8472444D02*
X41830409Y-8394550D01*
X41830409Y-8394550D02*
X41986196Y-8316657D01*
X45257716Y-9952417D02*
X44478782Y-9952417D01*
X44478782Y-9952417D02*
X44478782Y-8316657D01*
X45802969Y-9952417D02*
X45802969Y-8861910D01*
X45802969Y-8316657D02*
X45725076Y-8394550D01*
X45725076Y-8394550D02*
X45802969Y-8472444D01*
X45802969Y-8472444D02*
X45880863Y-8394550D01*
X45880863Y-8394550D02*
X45802969Y-8316657D01*
X45802969Y-8316657D02*
X45802969Y-8472444D01*
X47282942Y-9874524D02*
X47127156Y-9952417D01*
X47127156Y-9952417D02*
X46815582Y-9952417D01*
X46815582Y-9952417D02*
X46659796Y-9874524D01*
X46659796Y-9874524D02*
X46581902Y-9796630D01*
X46581902Y-9796630D02*
X46504009Y-9640844D01*
X46504009Y-9640844D02*
X46504009Y-9173484D01*
X46504009Y-9173484D02*
X46581902Y-9017697D01*
X46581902Y-9017697D02*
X46659796Y-8939804D01*
X46659796Y-8939804D02*
X46815582Y-8861910D01*
X46815582Y-8861910D02*
X47127156Y-8861910D01*
X47127156Y-8861910D02*
X47282942Y-8939804D01*
X48607129Y-9874524D02*
X48451342Y-9952417D01*
X48451342Y-9952417D02*
X48139769Y-9952417D01*
X48139769Y-9952417D02*
X47983982Y-9874524D01*
X47983982Y-9874524D02*
X47906089Y-9718737D01*
X47906089Y-9718737D02*
X47906089Y-9095590D01*
X47906089Y-9095590D02*
X47983982Y-8939804D01*
X47983982Y-8939804D02*
X48139769Y-8861910D01*
X48139769Y-8861910D02*
X48451342Y-8861910D01*
X48451342Y-8861910D02*
X48607129Y-8939804D01*
X48607129Y-8939804D02*
X48685022Y-9095590D01*
X48685022Y-9095590D02*
X48685022Y-9251377D01*
X48685022Y-9251377D02*
X47906089Y-9407164D01*
X49386062Y-8861910D02*
X49386062Y-9952417D01*
X49386062Y-9017697D02*
X49463956Y-8939804D01*
X49463956Y-8939804D02*
X49619742Y-8861910D01*
X49619742Y-8861910D02*
X49853422Y-8861910D01*
X49853422Y-8861910D02*
X50009209Y-8939804D01*
X50009209Y-8939804D02*
X50087102Y-9095590D01*
X50087102Y-9095590D02*
X50087102Y-9952417D01*
X50788142Y-9874524D02*
X50943929Y-9952417D01*
X50943929Y-9952417D02*
X51255502Y-9952417D01*
X51255502Y-9952417D02*
X51411289Y-9874524D01*
X51411289Y-9874524D02*
X51489182Y-9718737D01*
X51489182Y-9718737D02*
X51489182Y-9640844D01*
X51489182Y-9640844D02*
X51411289Y-9485057D01*
X51411289Y-9485057D02*
X51255502Y-9407164D01*
X51255502Y-9407164D02*
X51021822Y-9407164D01*
X51021822Y-9407164D02*
X50866035Y-9329270D01*
X50866035Y-9329270D02*
X50788142Y-9173484D01*
X50788142Y-9173484D02*
X50788142Y-9095590D01*
X50788142Y-9095590D02*
X50866035Y-8939804D01*
X50866035Y-8939804D02*
X51021822Y-8861910D01*
X51021822Y-8861910D02*
X51255502Y-8861910D01*
X51255502Y-8861910D02*
X51411289Y-8939804D01*
X52813369Y-9874524D02*
X52657582Y-9952417D01*
X52657582Y-9952417D02*
X52346009Y-9952417D01*
X52346009Y-9952417D02*
X52190222Y-9874524D01*
X52190222Y-9874524D02*
X52112329Y-9718737D01*
X52112329Y-9718737D02*
X52112329Y-9095590D01*
X52112329Y-9095590D02*
X52190222Y-8939804D01*
X52190222Y-8939804D02*
X52346009Y-8861910D01*
X52346009Y-8861910D02*
X52657582Y-8861910D01*
X52657582Y-8861910D02*
X52813369Y-8939804D01*
X52813369Y-8939804D02*
X52891262Y-9095590D01*
X52891262Y-9095590D02*
X52891262Y-9251377D01*
X52891262Y-9251377D02*
X52112329Y-9407164D01*
X-1127759Y-15032417D02*
X-1127759Y-13396657D01*
X-1127759Y-13396657D02*
X-738292Y-13396657D01*
X-738292Y-13396657D02*
X-504612Y-13474550D01*
X-504612Y-13474550D02*
X-348825Y-13630337D01*
X-348825Y-13630337D02*
X-270932Y-13786124D01*
X-270932Y-13786124D02*
X-193039Y-14097697D01*
X-193039Y-14097697D02*
X-193039Y-14331377D01*
X-193039Y-14331377D02*
X-270932Y-14642950D01*
X-270932Y-14642950D02*
X-348825Y-14798737D01*
X-348825Y-14798737D02*
X-504612Y-14954524D01*
X-504612Y-14954524D02*
X-738292Y-15032417D01*
X-738292Y-15032417D02*
X-1127759Y-15032417D01*
X1131148Y-14954524D02*
X975361Y-15032417D01*
X975361Y-15032417D02*
X663788Y-15032417D01*
X663788Y-15032417D02*
X508001Y-14954524D01*
X508001Y-14954524D02*
X430108Y-14798737D01*
X430108Y-14798737D02*
X430108Y-14175590D01*
X430108Y-14175590D02*
X508001Y-14019804D01*
X508001Y-14019804D02*
X663788Y-13941910D01*
X663788Y-13941910D02*
X975361Y-13941910D01*
X975361Y-13941910D02*
X1131148Y-14019804D01*
X1131148Y-14019804D02*
X1209041Y-14175590D01*
X1209041Y-14175590D02*
X1209041Y-14331377D01*
X1209041Y-14331377D02*
X430108Y-14487164D01*
X1832188Y-14954524D02*
X1987975Y-15032417D01*
X1987975Y-15032417D02*
X2299548Y-15032417D01*
X2299548Y-15032417D02*
X2455335Y-14954524D01*
X2455335Y-14954524D02*
X2533228Y-14798737D01*
X2533228Y-14798737D02*
X2533228Y-14720844D01*
X2533228Y-14720844D02*
X2455335Y-14565057D01*
X2455335Y-14565057D02*
X2299548Y-14487164D01*
X2299548Y-14487164D02*
X2065868Y-14487164D01*
X2065868Y-14487164D02*
X1910081Y-14409270D01*
X1910081Y-14409270D02*
X1832188Y-14253484D01*
X1832188Y-14253484D02*
X1832188Y-14175590D01*
X1832188Y-14175590D02*
X1910081Y-14019804D01*
X1910081Y-14019804D02*
X2065868Y-13941910D01*
X2065868Y-13941910D02*
X2299548Y-13941910D01*
X2299548Y-13941910D02*
X2455335Y-14019804D01*
X3234268Y-15032417D02*
X3234268Y-13941910D01*
X3234268Y-13396657D02*
X3156375Y-13474550D01*
X3156375Y-13474550D02*
X3234268Y-13552444D01*
X3234268Y-13552444D02*
X3312162Y-13474550D01*
X3312162Y-13474550D02*
X3234268Y-13396657D01*
X3234268Y-13396657D02*
X3234268Y-13552444D01*
X4714241Y-13941910D02*
X4714241Y-15266097D01*
X4714241Y-15266097D02*
X4636348Y-15421884D01*
X4636348Y-15421884D02*
X4558455Y-15499777D01*
X4558455Y-15499777D02*
X4402668Y-15577670D01*
X4402668Y-15577670D02*
X4168988Y-15577670D01*
X4168988Y-15577670D02*
X4013201Y-15499777D01*
X4714241Y-14954524D02*
X4558455Y-15032417D01*
X4558455Y-15032417D02*
X4246881Y-15032417D01*
X4246881Y-15032417D02*
X4091095Y-14954524D01*
X4091095Y-14954524D02*
X4013201Y-14876630D01*
X4013201Y-14876630D02*
X3935308Y-14720844D01*
X3935308Y-14720844D02*
X3935308Y-14253484D01*
X3935308Y-14253484D02*
X4013201Y-14097697D01*
X4013201Y-14097697D02*
X4091095Y-14019804D01*
X4091095Y-14019804D02*
X4246881Y-13941910D01*
X4246881Y-13941910D02*
X4558455Y-13941910D01*
X4558455Y-13941910D02*
X4714241Y-14019804D01*
X5493174Y-13941910D02*
X5493174Y-15032417D01*
X5493174Y-14097697D02*
X5571068Y-14019804D01*
X5571068Y-14019804D02*
X5726854Y-13941910D01*
X5726854Y-13941910D02*
X5960534Y-13941910D01*
X5960534Y-13941910D02*
X6116321Y-14019804D01*
X6116321Y-14019804D02*
X6194214Y-14175590D01*
X6194214Y-14175590D02*
X6194214Y-15032417D01*
X7596294Y-14954524D02*
X7440507Y-15032417D01*
X7440507Y-15032417D02*
X7128934Y-15032417D01*
X7128934Y-15032417D02*
X6973147Y-14954524D01*
X6973147Y-14954524D02*
X6895254Y-14798737D01*
X6895254Y-14798737D02*
X6895254Y-14175590D01*
X6895254Y-14175590D02*
X6973147Y-14019804D01*
X6973147Y-14019804D02*
X7128934Y-13941910D01*
X7128934Y-13941910D02*
X7440507Y-13941910D01*
X7440507Y-13941910D02*
X7596294Y-14019804D01*
X7596294Y-14019804D02*
X7674187Y-14175590D01*
X7674187Y-14175590D02*
X7674187Y-14331377D01*
X7674187Y-14331377D02*
X6895254Y-14487164D01*
X9076267Y-15032417D02*
X9076267Y-13396657D01*
X9076267Y-14954524D02*
X8920481Y-15032417D01*
X8920481Y-15032417D02*
X8608907Y-15032417D01*
X8608907Y-15032417D02*
X8453121Y-14954524D01*
X8453121Y-14954524D02*
X8375227Y-14876630D01*
X8375227Y-14876630D02*
X8297334Y-14720844D01*
X8297334Y-14720844D02*
X8297334Y-14253484D01*
X8297334Y-14253484D02*
X8375227Y-14097697D01*
X8375227Y-14097697D02*
X8453121Y-14019804D01*
X8453121Y-14019804D02*
X8608907Y-13941910D01*
X8608907Y-13941910D02*
X8920481Y-13941910D01*
X8920481Y-13941910D02*
X9076267Y-14019804D01*
X11101493Y-15032417D02*
X11101493Y-13396657D01*
X11101493Y-14019804D02*
X11257280Y-13941910D01*
X11257280Y-13941910D02*
X11568853Y-13941910D01*
X11568853Y-13941910D02*
X11724640Y-14019804D01*
X11724640Y-14019804D02*
X11802533Y-14097697D01*
X11802533Y-14097697D02*
X11880427Y-14253484D01*
X11880427Y-14253484D02*
X11880427Y-14720844D01*
X11880427Y-14720844D02*
X11802533Y-14876630D01*
X11802533Y-14876630D02*
X11724640Y-14954524D01*
X11724640Y-14954524D02*
X11568853Y-15032417D01*
X11568853Y-15032417D02*
X11257280Y-15032417D01*
X11257280Y-15032417D02*
X11101493Y-14954524D01*
X12425680Y-13941910D02*
X12815146Y-15032417D01*
X13204613Y-13941910D02*
X12815146Y-15032417D01*
X12815146Y-15032417D02*
X12659360Y-15421884D01*
X12659360Y-15421884D02*
X12581466Y-15499777D01*
X12581466Y-15499777D02*
X12425680Y-15577670D01*
X13827759Y-14876630D02*
X13905653Y-14954524D01*
X13905653Y-14954524D02*
X13827759Y-15032417D01*
X13827759Y-15032417D02*
X13749866Y-14954524D01*
X13749866Y-14954524D02*
X13827759Y-14876630D01*
X13827759Y-14876630D02*
X13827759Y-15032417D01*
X13827759Y-14019804D02*
X13905653Y-14097697D01*
X13905653Y-14097697D02*
X13827759Y-14175590D01*
X13827759Y-14175590D02*
X13749866Y-14097697D01*
X13749866Y-14097697D02*
X13827759Y-14019804D01*
X13827759Y-14019804D02*
X13827759Y-14175590D01*
M02*
