M48
; DRILL file {KiCad 7.0.6} date Sat Jan 20 21:08:05 2024
; FORMAT={-:-/ absolute / metric / decimal}
; #@! TF.CreationDate,2024-01-20T21:08:05-07:00
; #@! TF.GenerationSoftware,Kicad,Pcbnew,7.0.6
; #@! TF.FileFunction,MixedPlating,1,2
FMAT,2
METRIC
; #@! TA.AperFunction,Plated,PTH,ViaDrill
T1C0.300
; #@! TA.AperFunction,Plated,PTH,ComponentDrill
T2C1.016
; #@! TA.AperFunction,NonPlated,NPTH,ComponentDrill
T3C3.302
%
G90
G05
T1
X64.135Y38.1
X64.135Y33.337
X64.453Y1.587
X64.77Y4.127
X66.675Y33.337
X68.897Y38.1
X69.215Y33.972
X70.802Y10.795
X71.12Y13.018
X71.755Y28.575
X71.755Y24.765
X71.869Y34.925
X72.072Y6.35
X72.072Y3.81
X72.39Y32.385
X73.025Y12.065
X73.343Y34.925
X73.977Y8.255
X73.977Y3.81
X74.91Y32.267
X74.93Y20.955
X74.93Y6.985
X74.93Y3.175
X75.248Y40.64
X75.565Y28.575
X75.565Y24.765
X76.2Y39.052
X76.2Y32.385
X76.2Y20.955
X76.2Y8.572
X77.153Y13.018
X77.47Y33.655
X80.01Y9.842
X80.328Y16.192
T2
X60.96Y43.18
X63.5Y43.18
X66.04Y43.18
X68.58Y43.18
T3
X2.54Y41.91
X2.54Y2.54
X80.01Y41.91
X80.01Y2.54
T0
M30
