M48
; DRILL file {KiCad 7.0.10} date Wed Mar 13 14:29:21 2024
; FORMAT={-:-/ absolute / metric / decimal}
; #@! TF.CreationDate,2024-03-13T14:29:21-06:00
; #@! TF.GenerationSoftware,Kicad,Pcbnew,7.0.10
; #@! TF.FileFunction,MixedPlating,1,2
FMAT,2
METRIC
; #@! TA.AperFunction,Plated,PTH,ViaDrill
T1C0.300
; #@! TA.AperFunction,Plated,PTH,ComponentDrill
T2C1.016
; #@! TA.AperFunction,NonPlated,NPTH,ComponentDrill
T3C3.302
%
G90
G05
T1
X60.96Y127.365
X60.96Y82.415
X60.96Y37.465
X62.23Y131.175
X62.23Y86.225
X62.23Y41.275
X64.135Y128.0
X64.135Y123.237
X64.135Y83.05
X64.135Y78.287
X64.135Y38.1
X64.135Y33.337
X64.77Y131.175
X64.77Y93.71
X64.77Y91.17
X64.77Y86.225
X64.77Y48.76
X64.77Y46.22
X64.77Y41.275
X64.77Y3.81
X64.77Y1.27
X66.675Y123.237
X66.675Y112.76
X66.675Y78.287
X66.675Y67.81
X66.675Y33.337
X66.675Y22.86
X67.31Y128.635
X67.31Y103.235
X67.31Y100.06
X67.31Y83.685
X67.31Y58.285
X67.31Y55.11
X67.31Y38.735
X67.31Y13.335
X67.31Y10.16
X67.945Y122.285
X67.945Y110.855
X67.945Y77.335
X67.945Y65.905
X67.945Y32.385
X67.945Y20.955
X68.58Y108.315
X68.58Y63.365
X68.58Y18.415
X69.215Y124.825
X69.215Y118.475
X69.215Y114.665
X69.215Y92.44
X69.215Y79.875
X69.215Y73.525
X69.215Y69.715
X69.215Y47.49
X69.215Y34.925
X69.215Y28.575
X69.215Y24.765
X69.215Y2.54
X69.85Y128.0
X69.85Y122.285
X69.85Y107.045
X69.85Y98.79
X69.85Y83.05
X69.85Y77.335
X69.85Y62.095
X69.85Y53.84
X69.85Y38.1
X69.85Y32.385
X69.85Y17.145
X69.85Y8.89
X71.12Y118.475
X71.12Y114.665
X71.12Y73.525
X71.12Y69.715
X71.12Y28.575
X71.12Y24.765
X71.171Y128.584
X71.171Y83.634
X71.171Y38.684
X71.755Y125.46
X71.755Y107.045
X71.755Y99.425
X71.755Y96.25
X71.755Y93.71
X71.755Y80.51
X71.755Y62.095
X71.755Y54.475
X71.755Y51.3
X71.755Y48.76
X71.755Y35.56
X71.755Y17.145
X71.755Y9.525
X71.755Y6.35
X71.755Y3.81
X73.025Y126.92
X73.025Y81.97
X73.025Y37.02
X73.66Y131.81
X73.66Y93.71
X73.66Y91.17
X73.66Y86.86
X73.66Y48.76
X73.66Y46.22
X73.66Y41.91
X73.66Y3.81
X73.66Y1.27
X73.876Y97.52
X73.876Y52.57
X73.876Y7.62
X74.16Y126.23
X74.16Y81.28
X74.16Y36.33
X74.295Y108.95
X74.295Y64.0
X74.295Y19.05
X74.93Y96.885
X74.93Y93.075
X74.93Y51.935
X74.93Y48.125
X74.93Y6.985
X74.93Y3.175
X75.565Y130.54
X75.565Y123.555
X75.565Y120.38
X75.565Y112.76
X75.565Y85.59
X75.565Y78.605
X75.565Y75.43
X75.565Y67.81
X75.565Y40.64
X75.565Y33.655
X75.565Y30.48
X75.565Y22.86
X76.2Y129.27
X76.2Y84.32
X76.2Y39.37
X79.375Y105.14
X79.375Y101.33
X79.375Y60.19
X79.375Y56.38
X79.375Y15.24
X79.375Y11.43
X144.01Y127.365
X144.01Y82.415
X144.01Y37.465
X145.28Y131.175
X145.28Y86.225
X145.28Y41.275
X147.185Y128.0
X147.185Y123.237
X147.185Y83.05
X147.185Y78.287
X147.185Y38.1
X147.185Y33.337
X147.82Y131.175
X147.82Y93.71
X147.82Y91.17
X147.82Y86.225
X147.82Y48.76
X147.82Y46.22
X147.82Y41.275
X147.82Y3.81
X147.82Y1.27
X149.725Y123.237
X149.725Y112.76
X149.725Y78.287
X149.725Y67.81
X149.725Y33.337
X149.725Y22.86
X150.36Y128.635
X150.36Y103.235
X150.36Y100.06
X150.36Y83.685
X150.36Y58.285
X150.36Y55.11
X150.36Y38.735
X150.36Y13.335
X150.36Y10.16
X150.995Y122.285
X150.995Y110.855
X150.995Y77.335
X150.995Y65.905
X150.995Y32.385
X150.995Y20.955
X151.63Y108.315
X151.63Y63.365
X151.63Y18.415
X152.265Y124.825
X152.265Y118.475
X152.265Y114.665
X152.265Y92.44
X152.265Y79.875
X152.265Y73.525
X152.265Y69.715
X152.265Y47.49
X152.265Y34.925
X152.265Y28.575
X152.265Y24.765
X152.265Y2.54
X152.9Y128.0
X152.9Y122.285
X152.9Y107.045
X152.9Y98.79
X152.9Y83.05
X152.9Y77.335
X152.9Y62.095
X152.9Y53.84
X152.9Y38.1
X152.9Y32.385
X152.9Y17.145
X152.9Y8.89
X154.17Y118.475
X154.17Y114.665
X154.17Y73.525
X154.17Y69.715
X154.17Y28.575
X154.17Y24.765
X154.221Y128.584
X154.221Y83.634
X154.221Y38.684
X154.805Y125.46
X154.805Y107.045
X154.805Y99.425
X154.805Y96.25
X154.805Y93.71
X154.805Y80.51
X154.805Y62.095
X154.805Y54.475
X154.805Y51.3
X154.805Y48.76
X154.805Y35.56
X154.805Y17.145
X154.805Y9.525
X154.805Y6.35
X154.805Y3.81
X156.075Y126.92
X156.075Y81.97
X156.075Y37.02
X156.71Y131.81
X156.71Y93.71
X156.71Y91.17
X156.71Y86.86
X156.71Y48.76
X156.71Y46.22
X156.71Y41.91
X156.71Y3.81
X156.71Y1.27
X156.926Y97.52
X156.926Y52.57
X156.926Y7.62
X157.21Y126.23
X157.21Y81.28
X157.21Y36.33
X157.345Y108.95
X157.345Y64.0
X157.345Y19.05
X157.98Y96.885
X157.98Y93.075
X157.98Y51.935
X157.98Y48.125
X157.98Y6.985
X157.98Y3.175
X158.615Y130.54
X158.615Y123.555
X158.615Y120.38
X158.615Y112.76
X158.615Y85.59
X158.615Y78.605
X158.615Y75.43
X158.615Y67.81
X158.615Y40.64
X158.615Y33.655
X158.615Y30.48
X158.615Y22.86
X159.25Y129.27
X159.25Y84.32
X159.25Y39.37
X162.425Y105.14
X162.425Y101.33
X162.425Y60.19
X162.425Y56.38
X162.425Y15.24
X162.425Y11.43
T2
X60.96Y133.08
X60.96Y88.13
X60.96Y43.18
X63.5Y133.08
X63.5Y88.13
X63.5Y43.18
X66.04Y133.08
X66.04Y88.13
X66.04Y43.18
X68.58Y133.08
X68.58Y88.13
X68.58Y43.18
X144.01Y133.08
X144.01Y88.13
X144.01Y43.18
X146.55Y133.08
X146.55Y88.13
X146.55Y43.18
X149.09Y133.08
X149.09Y88.13
X149.09Y43.18
X151.63Y133.08
X151.63Y88.13
X151.63Y43.18
T3
X2.54Y131.81
X2.54Y92.44
X2.54Y86.86
X2.54Y47.49
X2.54Y41.91
X2.54Y2.54
X80.01Y131.81
X80.01Y112.76
X80.01Y92.44
X80.01Y86.86
X80.01Y67.81
X80.01Y47.49
X80.01Y41.91
X80.01Y22.86
X80.01Y2.54
X85.59Y131.81
X85.59Y92.44
X85.59Y86.86
X85.59Y47.49
X85.59Y41.91
X85.59Y2.54
X163.06Y131.81
X163.06Y112.76
X163.06Y92.44
X163.06Y86.86
X163.06Y67.81
X163.06Y47.49
X163.06Y41.91
X163.06Y22.86
X163.06Y2.54
M30
