%TF.GenerationSoftware,KiCad,Pcbnew,7.0.10*%
%TF.CreationDate,2024-03-13T14:29:21-06:00*%
%TF.ProjectId,SparkFun Indoor Air Quality Sensor - SCD41 SEN55_panelized,53706172-6b46-4756-9e20-496e646f6f72,v10*%
%TF.SameCoordinates,Original*%
%TF.FileFunction,Paste,Top*%
%TF.FilePolarity,Positive*%
%FSLAX46Y46*%
G04 Gerber Fmt 4.6, Leading zero omitted, Abs format (unit mm)*
G04 Created by KiCad (PCBNEW 7.0.10) date 2024-03-13 14:29:21*
%MOMM*%
%LPD*%
G01*
G04 APERTURE LIST*
G04 Aperture macros list*
%AMRoundRect*
0 Rectangle with rounded corners*
0 $1 Rounding radius*
0 $2 $3 $4 $5 $6 $7 $8 $9 X,Y pos of 4 corners*
0 Add a 4 corners polygon primitive as box body*
4,1,4,$2,$3,$4,$5,$6,$7,$8,$9,$2,$3,0*
0 Add four circle primitives for the rounded corners*
1,1,$1+$1,$2,$3*
1,1,$1+$1,$4,$5*
1,1,$1+$1,$6,$7*
1,1,$1+$1,$8,$9*
0 Add four rect primitives between the rounded corners*
20,1,$1+$1,$2,$3,$4,$5,0*
20,1,$1+$1,$4,$5,$6,$7,0*
20,1,$1+$1,$6,$7,$8,$9,0*
20,1,$1+$1,$8,$9,$2,$3,0*%
G04 Aperture macros list end*
%ADD10RoundRect,0.225000X-0.225000X-0.250000X0.225000X-0.250000X0.225000X0.250000X-0.225000X0.250000X0*%
%ADD11RoundRect,0.225000X0.225000X0.250000X-0.225000X0.250000X-0.225000X-0.250000X0.225000X-0.250000X0*%
%ADD12RoundRect,0.200000X0.275000X-0.200000X0.275000X0.200000X-0.275000X0.200000X-0.275000X-0.200000X0*%
%ADD13R,1.500000X0.800000*%
%ADD14R,0.800000X1.500000*%
%ADD15RoundRect,0.200000X-0.200000X-0.275000X0.200000X-0.275000X0.200000X0.275000X-0.200000X0.275000X0*%
%ADD16RoundRect,0.225000X0.250000X-0.225000X0.250000X0.225000X-0.250000X0.225000X-0.250000X-0.225000X0*%
%ADD17R,0.600000X1.350000*%
%ADD18R,1.200000X2.000000*%
%ADD19RoundRect,0.250000X-0.475000X0.250000X-0.475000X-0.250000X0.475000X-0.250000X0.475000X0.250000X0*%
%ADD20RoundRect,0.218750X-0.218750X-0.256250X0.218750X-0.256250X0.218750X0.256250X-0.218750X0.256250X0*%
%ADD21R,0.550000X1.200000*%
%ADD22R,1.700000X0.600000*%
%ADD23R,2.700000X1.000000*%
%ADD24R,0.630000X0.830000*%
G04 APERTURE END LIST*
%TO.C,U3*%
G36*
X156170000Y114570000D02*
G01*
X155170000Y114570000D01*
X155170000Y115570000D01*
X156170000Y115570000D01*
X156170000Y114570000D01*
G37*
G36*
X156170000Y117570000D02*
G01*
X155170000Y117570000D01*
X155170000Y118570000D01*
X156170000Y118570000D01*
X156170000Y117570000D01*
G37*
G36*
X153170000Y114570000D02*
G01*
X152170000Y114570000D01*
X152170000Y115570000D01*
X153170000Y115570000D01*
X153170000Y114570000D01*
G37*
G36*
X153170000Y117570000D02*
G01*
X152170000Y117570000D01*
X152170000Y118570000D01*
X153170000Y118570000D01*
X153170000Y117570000D01*
G37*
G36*
X156170000Y69620000D02*
G01*
X155170000Y69620000D01*
X155170000Y70620000D01*
X156170000Y70620000D01*
X156170000Y69620000D01*
G37*
G36*
X156170000Y72620000D02*
G01*
X155170000Y72620000D01*
X155170000Y73620000D01*
X156170000Y73620000D01*
X156170000Y72620000D01*
G37*
G36*
X153170000Y69620000D02*
G01*
X152170000Y69620000D01*
X152170000Y70620000D01*
X153170000Y70620000D01*
X153170000Y69620000D01*
G37*
G36*
X153170000Y72620000D02*
G01*
X152170000Y72620000D01*
X152170000Y73620000D01*
X153170000Y73620000D01*
X153170000Y72620000D01*
G37*
G36*
X156170000Y24670000D02*
G01*
X155170000Y24670000D01*
X155170000Y25670000D01*
X156170000Y25670000D01*
X156170000Y24670000D01*
G37*
G36*
X156170000Y27670000D02*
G01*
X155170000Y27670000D01*
X155170000Y28670000D01*
X156170000Y28670000D01*
X156170000Y27670000D01*
G37*
G36*
X153170000Y24670000D02*
G01*
X152170000Y24670000D01*
X152170000Y25670000D01*
X153170000Y25670000D01*
X153170000Y24670000D01*
G37*
G36*
X153170000Y27670000D02*
G01*
X152170000Y27670000D01*
X152170000Y28670000D01*
X153170000Y28670000D01*
X153170000Y27670000D01*
G37*
G36*
X73120000Y114570000D02*
G01*
X72120000Y114570000D01*
X72120000Y115570000D01*
X73120000Y115570000D01*
X73120000Y114570000D01*
G37*
G36*
X73120000Y117570000D02*
G01*
X72120000Y117570000D01*
X72120000Y118570000D01*
X73120000Y118570000D01*
X73120000Y117570000D01*
G37*
G36*
X70120000Y114570000D02*
G01*
X69120000Y114570000D01*
X69120000Y115570000D01*
X70120000Y115570000D01*
X70120000Y114570000D01*
G37*
G36*
X70120000Y117570000D02*
G01*
X69120000Y117570000D01*
X69120000Y118570000D01*
X70120000Y118570000D01*
X70120000Y117570000D01*
G37*
G36*
X73120000Y69620000D02*
G01*
X72120000Y69620000D01*
X72120000Y70620000D01*
X73120000Y70620000D01*
X73120000Y69620000D01*
G37*
G36*
X73120000Y72620000D02*
G01*
X72120000Y72620000D01*
X72120000Y73620000D01*
X73120000Y73620000D01*
X73120000Y72620000D01*
G37*
G36*
X70120000Y69620000D02*
G01*
X69120000Y69620000D01*
X69120000Y70620000D01*
X70120000Y70620000D01*
X70120000Y69620000D01*
G37*
G36*
X70120000Y72620000D02*
G01*
X69120000Y72620000D01*
X69120000Y73620000D01*
X70120000Y73620000D01*
X70120000Y72620000D01*
G37*
G36*
X73120000Y24670000D02*
G01*
X72120000Y24670000D01*
X72120000Y25670000D01*
X73120000Y25670000D01*
X73120000Y24670000D01*
G37*
G36*
X73120000Y27670000D02*
G01*
X72120000Y27670000D01*
X72120000Y28670000D01*
X73120000Y28670000D01*
X73120000Y27670000D01*
G37*
G36*
X70120000Y24670000D02*
G01*
X69120000Y24670000D01*
X69120000Y25670000D01*
X70120000Y25670000D01*
X70120000Y24670000D01*
G37*
G36*
X70120000Y27670000D02*
G01*
X69120000Y27670000D01*
X69120000Y28670000D01*
X70120000Y28670000D01*
X70120000Y27670000D01*
G37*
%TD*%
D10*
%TO.C,C7*%
X149585000Y107045000D03*
X151135000Y107045000D03*
%TD*%
%TO.C,C7*%
X149585000Y62095000D03*
X151135000Y62095000D03*
%TD*%
%TO.C,C7*%
X149585000Y17145000D03*
X151135000Y17145000D03*
%TD*%
%TO.C,C7*%
X66535000Y107045000D03*
X68085000Y107045000D03*
%TD*%
%TO.C,C7*%
X66535000Y62095000D03*
X68085000Y62095000D03*
%TD*%
D11*
%TO.C,C5*%
X152405000Y123555000D03*
X150855000Y123555000D03*
%TD*%
%TO.C,C5*%
X152405000Y78605000D03*
X150855000Y78605000D03*
%TD*%
%TO.C,C5*%
X152405000Y33655000D03*
X150855000Y33655000D03*
%TD*%
%TO.C,C5*%
X69355000Y123555000D03*
X67805000Y123555000D03*
%TD*%
%TO.C,C5*%
X69355000Y78605000D03*
X67805000Y78605000D03*
%TD*%
D12*
%TO.C,R5*%
X152900000Y100505000D03*
X152900000Y102155000D03*
%TD*%
%TO.C,R5*%
X152900000Y55555000D03*
X152900000Y57205000D03*
%TD*%
%TO.C,R5*%
X152900000Y10605000D03*
X152900000Y12255000D03*
%TD*%
%TO.C,R5*%
X69850000Y100505000D03*
X69850000Y102155000D03*
%TD*%
%TO.C,R5*%
X69850000Y55555000D03*
X69850000Y57205000D03*
%TD*%
%TO.C,R1*%
X149725000Y125270000D03*
X149725000Y126920000D03*
%TD*%
%TO.C,R1*%
X149725000Y80320000D03*
X149725000Y81970000D03*
%TD*%
%TO.C,R1*%
X149725000Y35370000D03*
X149725000Y37020000D03*
%TD*%
%TO.C,R1*%
X66675000Y125270000D03*
X66675000Y126920000D03*
%TD*%
%TO.C,R1*%
X66675000Y80320000D03*
X66675000Y81970000D03*
%TD*%
D13*
%TO.C,U3*%
X158170000Y115320000D03*
X158170000Y116570000D03*
X158170000Y117820000D03*
X158170000Y119070000D03*
D14*
X156670000Y120570000D03*
X155420000Y120570000D03*
X154170000Y120570000D03*
X152920000Y120570000D03*
X151670000Y120570000D03*
D13*
X150170000Y119070000D03*
X150170000Y117820000D03*
X150170000Y116570000D03*
X150170000Y115320000D03*
X150170000Y114070000D03*
D14*
X151670000Y112570000D03*
X152920000Y112570000D03*
X154170000Y112570000D03*
X155420000Y112570000D03*
X156670000Y112570000D03*
%TD*%
D13*
%TO.C,U3*%
X158170000Y70370000D03*
X158170000Y71620000D03*
X158170000Y72870000D03*
X158170000Y74120000D03*
D14*
X156670000Y75620000D03*
X155420000Y75620000D03*
X154170000Y75620000D03*
X152920000Y75620000D03*
X151670000Y75620000D03*
D13*
X150170000Y74120000D03*
X150170000Y72870000D03*
X150170000Y71620000D03*
X150170000Y70370000D03*
X150170000Y69120000D03*
D14*
X151670000Y67620000D03*
X152920000Y67620000D03*
X154170000Y67620000D03*
X155420000Y67620000D03*
X156670000Y67620000D03*
%TD*%
D13*
%TO.C,U3*%
X158170000Y25420000D03*
X158170000Y26670000D03*
X158170000Y27920000D03*
X158170000Y29170000D03*
D14*
X156670000Y30670000D03*
X155420000Y30670000D03*
X154170000Y30670000D03*
X152920000Y30670000D03*
X151670000Y30670000D03*
D13*
X150170000Y29170000D03*
X150170000Y27920000D03*
X150170000Y26670000D03*
X150170000Y25420000D03*
X150170000Y24170000D03*
D14*
X151670000Y22670000D03*
X152920000Y22670000D03*
X154170000Y22670000D03*
X155420000Y22670000D03*
X156670000Y22670000D03*
%TD*%
D13*
%TO.C,U3*%
X75120000Y115320000D03*
X75120000Y116570000D03*
X75120000Y117820000D03*
X75120000Y119070000D03*
D14*
X73620000Y120570000D03*
X72370000Y120570000D03*
X71120000Y120570000D03*
X69870000Y120570000D03*
X68620000Y120570000D03*
D13*
X67120000Y119070000D03*
X67120000Y117820000D03*
X67120000Y116570000D03*
X67120000Y115320000D03*
X67120000Y114070000D03*
D14*
X68620000Y112570000D03*
X69870000Y112570000D03*
X71120000Y112570000D03*
X72370000Y112570000D03*
X73620000Y112570000D03*
%TD*%
D13*
%TO.C,U3*%
X75120000Y70370000D03*
X75120000Y71620000D03*
X75120000Y72870000D03*
X75120000Y74120000D03*
D14*
X73620000Y75620000D03*
X72370000Y75620000D03*
X71120000Y75620000D03*
X69870000Y75620000D03*
X68620000Y75620000D03*
D13*
X67120000Y74120000D03*
X67120000Y72870000D03*
X67120000Y71620000D03*
X67120000Y70370000D03*
X67120000Y69120000D03*
D14*
X68620000Y67620000D03*
X69870000Y67620000D03*
X71120000Y67620000D03*
X72370000Y67620000D03*
X73620000Y67620000D03*
%TD*%
D15*
%TO.C,R3*%
X148900000Y91805000D03*
X150550000Y91805000D03*
%TD*%
%TO.C,R3*%
X148900000Y46855000D03*
X150550000Y46855000D03*
%TD*%
%TO.C,R3*%
X148900000Y1905000D03*
X150550000Y1905000D03*
%TD*%
%TO.C,R3*%
X65850000Y91805000D03*
X67500000Y91805000D03*
%TD*%
%TO.C,R3*%
X65850000Y46855000D03*
X67500000Y46855000D03*
%TD*%
D10*
%TO.C,C1*%
X155300000Y110220000D03*
X156850000Y110220000D03*
%TD*%
%TO.C,C1*%
X155300000Y65270000D03*
X156850000Y65270000D03*
%TD*%
%TO.C,C1*%
X155300000Y20320000D03*
X156850000Y20320000D03*
%TD*%
%TO.C,C1*%
X72250000Y110220000D03*
X73800000Y110220000D03*
%TD*%
%TO.C,C1*%
X72250000Y65270000D03*
X73800000Y65270000D03*
%TD*%
D12*
%TO.C,R6*%
X152900000Y104315000D03*
X152900000Y105965000D03*
%TD*%
%TO.C,R6*%
X152900000Y59365000D03*
X152900000Y61015000D03*
%TD*%
%TO.C,R6*%
X152900000Y14415000D03*
X152900000Y16065000D03*
%TD*%
%TO.C,R6*%
X69850000Y104315000D03*
X69850000Y105965000D03*
%TD*%
%TO.C,R6*%
X69850000Y59365000D03*
X69850000Y61015000D03*
%TD*%
D16*
%TO.C,C9*%
X154805000Y104365000D03*
X154805000Y105915000D03*
%TD*%
%TO.C,C9*%
X154805000Y59415000D03*
X154805000Y60965000D03*
%TD*%
%TO.C,C9*%
X154805000Y14465000D03*
X154805000Y16015000D03*
%TD*%
%TO.C,C9*%
X71755000Y104365000D03*
X71755000Y105915000D03*
%TD*%
%TO.C,C9*%
X71755000Y59415000D03*
X71755000Y60965000D03*
%TD*%
D12*
%TO.C,R2*%
X147185000Y125270000D03*
X147185000Y126920000D03*
%TD*%
%TO.C,R2*%
X147185000Y80320000D03*
X147185000Y81970000D03*
%TD*%
%TO.C,R2*%
X147185000Y35370000D03*
X147185000Y37020000D03*
%TD*%
%TO.C,R2*%
X64135000Y125270000D03*
X64135000Y126920000D03*
%TD*%
%TO.C,R2*%
X64135000Y80320000D03*
X64135000Y81970000D03*
%TD*%
D17*
%TO.C,J2*%
X158210000Y129270000D03*
X157210000Y129270000D03*
X156210000Y129270000D03*
X155210000Y129270000D03*
D18*
X153910000Y132945000D03*
X159510000Y132945000D03*
%TD*%
D17*
%TO.C,J2*%
X158210000Y84320000D03*
X157210000Y84320000D03*
X156210000Y84320000D03*
X155210000Y84320000D03*
D18*
X153910000Y87995000D03*
X159510000Y87995000D03*
%TD*%
D17*
%TO.C,J2*%
X158210000Y39370000D03*
X157210000Y39370000D03*
X156210000Y39370000D03*
X155210000Y39370000D03*
D18*
X153910000Y43045000D03*
X159510000Y43045000D03*
%TD*%
D17*
%TO.C,J2*%
X75160000Y129270000D03*
X74160000Y129270000D03*
X73160000Y129270000D03*
X72160000Y129270000D03*
D18*
X70860000Y132945000D03*
X76460000Y132945000D03*
%TD*%
D17*
%TO.C,J2*%
X75160000Y84320000D03*
X74160000Y84320000D03*
X73160000Y84320000D03*
X72160000Y84320000D03*
D18*
X70860000Y87995000D03*
X76460000Y87995000D03*
%TD*%
D17*
%TO.C,J1*%
X155210000Y94980000D03*
X156210000Y94980000D03*
X157210000Y94980000D03*
X158210000Y94980000D03*
D18*
X159510000Y91305000D03*
X153910000Y91305000D03*
%TD*%
D17*
%TO.C,J1*%
X155210000Y50030000D03*
X156210000Y50030000D03*
X157210000Y50030000D03*
X158210000Y50030000D03*
D18*
X159510000Y46355000D03*
X153910000Y46355000D03*
%TD*%
D17*
%TO.C,J1*%
X155210000Y5080000D03*
X156210000Y5080000D03*
X157210000Y5080000D03*
X158210000Y5080000D03*
D18*
X159510000Y1405000D03*
X153910000Y1405000D03*
%TD*%
D17*
%TO.C,J1*%
X72160000Y94980000D03*
X73160000Y94980000D03*
X74160000Y94980000D03*
X75160000Y94980000D03*
D18*
X76460000Y91305000D03*
X70860000Y91305000D03*
%TD*%
D17*
%TO.C,J1*%
X72160000Y50030000D03*
X73160000Y50030000D03*
X74160000Y50030000D03*
X75160000Y50030000D03*
D18*
X76460000Y46355000D03*
X70860000Y46355000D03*
%TD*%
D19*
%TO.C,L2*%
X147185000Y104185000D03*
X147185000Y102285000D03*
%TD*%
%TO.C,L2*%
X147185000Y59235000D03*
X147185000Y57335000D03*
%TD*%
%TO.C,L2*%
X147185000Y14285000D03*
X147185000Y12385000D03*
%TD*%
%TO.C,L2*%
X64135000Y104185000D03*
X64135000Y102285000D03*
%TD*%
%TO.C,L2*%
X64135000Y59235000D03*
X64135000Y57335000D03*
%TD*%
%TO.C,C2*%
X154805000Y102280000D03*
X154805000Y100380000D03*
%TD*%
%TO.C,C2*%
X154805000Y57330000D03*
X154805000Y55430000D03*
%TD*%
%TO.C,C2*%
X154805000Y12380000D03*
X154805000Y10480000D03*
%TD*%
%TO.C,C2*%
X71755000Y102280000D03*
X71755000Y100380000D03*
%TD*%
%TO.C,C2*%
X71755000Y57330000D03*
X71755000Y55430000D03*
%TD*%
D20*
%TO.C,D1*%
X148937500Y93710000D03*
X150512500Y93710000D03*
%TD*%
%TO.C,D1*%
X148937500Y48760000D03*
X150512500Y48760000D03*
%TD*%
%TO.C,D1*%
X148937500Y3810000D03*
X150512500Y3810000D03*
%TD*%
%TO.C,D1*%
X65887500Y93710000D03*
X67462500Y93710000D03*
%TD*%
%TO.C,D1*%
X65887500Y48760000D03*
X67462500Y48760000D03*
%TD*%
D10*
%TO.C,C4*%
X155300000Y123555000D03*
X156850000Y123555000D03*
%TD*%
%TO.C,C4*%
X155300000Y78605000D03*
X156850000Y78605000D03*
%TD*%
%TO.C,C4*%
X155300000Y33655000D03*
X156850000Y33655000D03*
%TD*%
%TO.C,C4*%
X72250000Y123555000D03*
X73800000Y123555000D03*
%TD*%
%TO.C,C4*%
X72250000Y78605000D03*
X73800000Y78605000D03*
%TD*%
D21*
%TO.C,U5*%
X149410000Y101934900D03*
X150360000Y101934900D03*
X151310000Y101934900D03*
X151310000Y104535100D03*
X149410000Y104535100D03*
%TD*%
%TO.C,U5*%
X149410000Y56984900D03*
X150360000Y56984900D03*
X151310000Y56984900D03*
X151310000Y59585100D03*
X149410000Y59585100D03*
%TD*%
%TO.C,U5*%
X149410000Y12034900D03*
X150360000Y12034900D03*
X151310000Y12034900D03*
X151310000Y14635100D03*
X149410000Y14635100D03*
%TD*%
%TO.C,U5*%
X66360000Y101934900D03*
X67310000Y101934900D03*
X68260000Y101934900D03*
X68260000Y104535100D03*
X66360000Y104535100D03*
%TD*%
%TO.C,U5*%
X66360000Y56984900D03*
X67310000Y56984900D03*
X68260000Y56984900D03*
X68260000Y59585100D03*
X66360000Y59585100D03*
%TD*%
D22*
%TO.C,U1*%
X163820000Y106360000D03*
X163820000Y105110000D03*
X163820000Y103860000D03*
X163820000Y102610000D03*
X163820000Y101360000D03*
X163820000Y100110000D03*
D23*
X160620000Y98260000D03*
X160620000Y108210000D03*
%TD*%
D22*
%TO.C,U1*%
X163820000Y61410000D03*
X163820000Y60160000D03*
X163820000Y58910000D03*
X163820000Y57660000D03*
X163820000Y56410000D03*
X163820000Y55160000D03*
D23*
X160620000Y53310000D03*
X160620000Y63260000D03*
%TD*%
D22*
%TO.C,U1*%
X163820000Y16460000D03*
X163820000Y15210000D03*
X163820000Y13960000D03*
X163820000Y12710000D03*
X163820000Y11460000D03*
X163820000Y10210000D03*
D23*
X160620000Y8360000D03*
X160620000Y18310000D03*
%TD*%
D22*
%TO.C,U1*%
X80770000Y106360000D03*
X80770000Y105110000D03*
X80770000Y103860000D03*
X80770000Y102610000D03*
X80770000Y101360000D03*
X80770000Y100110000D03*
D23*
X77570000Y98260000D03*
X77570000Y108210000D03*
%TD*%
D22*
%TO.C,U1*%
X80770000Y61410000D03*
X80770000Y60160000D03*
X80770000Y58910000D03*
X80770000Y57660000D03*
X80770000Y56410000D03*
X80770000Y55160000D03*
D23*
X77570000Y53310000D03*
X77570000Y63260000D03*
%TD*%
D24*
%TO.C,D2*%
X149210000Y100060000D03*
X151510000Y100060000D03*
%TD*%
%TO.C,D2*%
X149210000Y55110000D03*
X151510000Y55110000D03*
%TD*%
%TO.C,D2*%
X149210000Y10160000D03*
X151510000Y10160000D03*
%TD*%
%TO.C,D2*%
X66160000Y100060000D03*
X68460000Y100060000D03*
%TD*%
%TO.C,D2*%
X66160000Y55110000D03*
X68460000Y55110000D03*
%TD*%
%TO.C,D2*%
X66160000Y10160000D03*
X68460000Y10160000D03*
%TD*%
D22*
%TO.C,U1*%
X80770000Y16460000D03*
X80770000Y15210000D03*
X80770000Y13960000D03*
X80770000Y12710000D03*
X80770000Y11460000D03*
X80770000Y10210000D03*
D23*
X77570000Y8360000D03*
X77570000Y18310000D03*
%TD*%
D21*
%TO.C,U5*%
X66360000Y12034900D03*
X67310000Y12034900D03*
X68260000Y12034900D03*
X68260000Y14635100D03*
X66360000Y14635100D03*
%TD*%
D10*
%TO.C,C4*%
X72250000Y33655000D03*
X73800000Y33655000D03*
%TD*%
D20*
%TO.C,D1*%
X65887500Y3810000D03*
X67462500Y3810000D03*
%TD*%
D19*
%TO.C,C2*%
X71755000Y12380000D03*
X71755000Y10480000D03*
%TD*%
%TO.C,L2*%
X64135000Y14285000D03*
X64135000Y12385000D03*
%TD*%
D17*
%TO.C,J1*%
X72160000Y5080000D03*
X73160000Y5080000D03*
X74160000Y5080000D03*
X75160000Y5080000D03*
D18*
X76460000Y1405000D03*
X70860000Y1405000D03*
%TD*%
D17*
%TO.C,J2*%
X75160000Y39370000D03*
X74160000Y39370000D03*
X73160000Y39370000D03*
X72160000Y39370000D03*
D18*
X70860000Y43045000D03*
X76460000Y43045000D03*
%TD*%
D12*
%TO.C,R2*%
X64135000Y35370000D03*
X64135000Y37020000D03*
%TD*%
D16*
%TO.C,C9*%
X71755000Y14465000D03*
X71755000Y16015000D03*
%TD*%
D12*
%TO.C,R6*%
X69850000Y14415000D03*
X69850000Y16065000D03*
%TD*%
D10*
%TO.C,C1*%
X72250000Y20320000D03*
X73800000Y20320000D03*
%TD*%
D15*
%TO.C,R3*%
X65850000Y1905000D03*
X67500000Y1905000D03*
%TD*%
D13*
%TO.C,U3*%
X75120000Y25420000D03*
X75120000Y26670000D03*
X75120000Y27920000D03*
X75120000Y29170000D03*
D14*
X73620000Y30670000D03*
X72370000Y30670000D03*
X71120000Y30670000D03*
X69870000Y30670000D03*
X68620000Y30670000D03*
D13*
X67120000Y29170000D03*
X67120000Y27920000D03*
X67120000Y26670000D03*
X67120000Y25420000D03*
X67120000Y24170000D03*
D14*
X68620000Y22670000D03*
X69870000Y22670000D03*
X71120000Y22670000D03*
X72370000Y22670000D03*
X73620000Y22670000D03*
%TD*%
D12*
%TO.C,R1*%
X66675000Y35370000D03*
X66675000Y37020000D03*
%TD*%
%TO.C,R5*%
X69850000Y10605000D03*
X69850000Y12255000D03*
%TD*%
D11*
%TO.C,C5*%
X69355000Y33655000D03*
X67805000Y33655000D03*
%TD*%
D10*
%TO.C,C7*%
X66535000Y17145000D03*
X68085000Y17145000D03*
%TD*%
M02*
