%TF.GenerationSoftware,KiCad,Pcbnew,7.0.10*%
%TF.CreationDate,2024-03-13T14:25:08-06:00*%
%TF.ProjectId,SparkFun_AirQuality_Combo_panelized,53706172-6b46-4756-9e5f-416972517561,v10*%
%TF.SameCoordinates,Original*%
%TF.FileFunction,Soldermask,Bot*%
%TF.FilePolarity,Negative*%
%FSLAX46Y46*%
G04 Gerber Fmt 4.6, Leading zero omitted, Abs format (unit mm)*
G04 Created by KiCad (PCBNEW 7.0.10) date 2024-03-13 14:25:08*
%MOMM*%
%LPD*%
G01*
G04 APERTURE LIST*
%TA.AperFunction,Profile*%
%ADD10C,0.100000*%
%TD*%
%ADD11C,0.250000*%
%ADD12C,0.500000*%
G04 APERTURE END LIST*
D10*
X-500000Y-500000D02*
X-500000Y134850000D01*
X166100000Y-500000D02*
X-500000Y-500000D01*
X166100000Y134850000D02*
X166100000Y-500000D01*
X-500000Y134850000D02*
X166100000Y134850000D01*
X-6850000Y-6850000D02*
X-6850000Y141200000D01*
X172450000Y-6850000D02*
X-6850000Y-6850000D01*
X172450000Y141200000D02*
X172450000Y-6850000D01*
X-6850000Y141200000D02*
X172450000Y141200000D01*
X165600000Y108696000D02*
X165600000Y100314000D01*
X165600000Y89900000D01*
X83050000Y89900000D01*
X83050000Y134350000D01*
X165600000Y134350000D01*
X165600000Y108696000D01*
X165600000Y63746000D02*
X165600000Y55364000D01*
X165600000Y44950000D01*
X83050000Y44950000D01*
X83050000Y89400000D01*
X165600000Y89400000D01*
X165600000Y63746000D01*
X165600000Y18796000D02*
X165600000Y10414000D01*
X165600000Y0D01*
X83050000Y0D01*
X83050000Y44450000D01*
X165600000Y44450000D01*
X165600000Y18796000D01*
X82550000Y108696000D02*
X82550000Y100314000D01*
X82550000Y89900000D01*
X0Y89900000D01*
X0Y134350000D01*
X82550000Y134350000D01*
X82550000Y108696000D01*
X82550000Y63746000D02*
X82550000Y55364000D01*
X82550000Y44950000D01*
X0Y44950000D01*
X0Y89400000D01*
X82550000Y89400000D01*
X82550000Y63746000D01*
X82550000Y18796000D02*
X82550000Y10414000D01*
X82550000Y0D01*
X0Y0D01*
X0Y44450000D01*
X82550000Y44450000D01*
X82550000Y18796000D01*
D11*
X-23073997Y837762D02*
X-22407331Y-1162238D01*
X-22407331Y-1162238D02*
X-21740664Y837762D01*
X-21073997Y-400333D02*
X-19550187Y-400333D01*
X-18693045Y-1067000D02*
X-18407331Y-1162238D01*
X-18407331Y-1162238D02*
X-17931140Y-1162238D01*
X-17931140Y-1162238D02*
X-17740664Y-1067000D01*
X-17740664Y-1067000D02*
X-17645426Y-971761D01*
X-17645426Y-971761D02*
X-17550188Y-781285D01*
X-17550188Y-781285D02*
X-17550188Y-590809D01*
X-17550188Y-590809D02*
X-17645426Y-400333D01*
X-17645426Y-400333D02*
X-17740664Y-305095D01*
X-17740664Y-305095D02*
X-17931140Y-209857D01*
X-17931140Y-209857D02*
X-18312093Y-114619D01*
X-18312093Y-114619D02*
X-18502569Y-19380D01*
X-18502569Y-19380D02*
X-18597807Y75858D01*
X-18597807Y75858D02*
X-18693045Y266334D01*
X-18693045Y266334D02*
X-18693045Y456810D01*
X-18693045Y456810D02*
X-18597807Y647286D01*
X-18597807Y647286D02*
X-18502569Y742524D01*
X-18502569Y742524D02*
X-18312093Y837762D01*
X-18312093Y837762D02*
X-17835902Y837762D01*
X-17835902Y837762D02*
X-17550188Y742524D01*
X-15550188Y-971761D02*
X-15645426Y-1067000D01*
X-15645426Y-1067000D02*
X-15931140Y-1162238D01*
X-15931140Y-1162238D02*
X-16121616Y-1162238D01*
X-16121616Y-1162238D02*
X-16407331Y-1067000D01*
X-16407331Y-1067000D02*
X-16597807Y-876523D01*
X-16597807Y-876523D02*
X-16693045Y-686047D01*
X-16693045Y-686047D02*
X-16788283Y-305095D01*
X-16788283Y-305095D02*
X-16788283Y-19380D01*
X-16788283Y-19380D02*
X-16693045Y361572D01*
X-16693045Y361572D02*
X-16597807Y552048D01*
X-16597807Y552048D02*
X-16407331Y742524D01*
X-16407331Y742524D02*
X-16121616Y837762D01*
X-16121616Y837762D02*
X-15931140Y837762D01*
X-15931140Y837762D02*
X-15645426Y742524D01*
X-15645426Y742524D02*
X-15550188Y647286D01*
X-14312093Y837762D02*
X-13931140Y837762D01*
X-13931140Y837762D02*
X-13740664Y742524D01*
X-13740664Y742524D02*
X-13550188Y552048D01*
X-13550188Y552048D02*
X-13454950Y171096D01*
X-13454950Y171096D02*
X-13454950Y-495571D01*
X-13454950Y-495571D02*
X-13550188Y-876523D01*
X-13550188Y-876523D02*
X-13740664Y-1067000D01*
X-13740664Y-1067000D02*
X-13931140Y-1162238D01*
X-13931140Y-1162238D02*
X-14312093Y-1162238D01*
X-14312093Y-1162238D02*
X-14502569Y-1067000D01*
X-14502569Y-1067000D02*
X-14693045Y-876523D01*
X-14693045Y-876523D02*
X-14788283Y-495571D01*
X-14788283Y-495571D02*
X-14788283Y171096D01*
X-14788283Y171096D02*
X-14693045Y552048D01*
X-14693045Y552048D02*
X-14502569Y742524D01*
X-14502569Y742524D02*
X-14312093Y837762D01*
X-11454950Y-1162238D02*
X-12121617Y-209857D01*
X-12597807Y-1162238D02*
X-12597807Y837762D01*
X-12597807Y837762D02*
X-11835902Y837762D01*
X-11835902Y837762D02*
X-11645426Y742524D01*
X-11645426Y742524D02*
X-11550188Y647286D01*
X-11550188Y647286D02*
X-11454950Y456810D01*
X-11454950Y456810D02*
X-11454950Y171096D01*
X-11454950Y171096D02*
X-11550188Y-19380D01*
X-11550188Y-19380D02*
X-11645426Y-114619D01*
X-11645426Y-114619D02*
X-11835902Y-209857D01*
X-11835902Y-209857D02*
X-12597807Y-209857D01*
X-10597807Y-114619D02*
X-9931140Y-114619D01*
X-9645426Y-1162238D02*
X-10597807Y-1162238D01*
X-10597807Y-1162238D02*
X-10597807Y837762D01*
X-10597807Y837762D02*
X-9645426Y837762D01*
D12*
X-7100000Y-250000D02*
X172700000Y-250000D01*
D11*
X-23073997Y45787762D02*
X-22407331Y43787762D01*
X-22407331Y43787762D02*
X-21740664Y45787762D01*
X-21073997Y44549667D02*
X-19550187Y44549667D01*
X-18693045Y43883000D02*
X-18407331Y43787762D01*
X-18407331Y43787762D02*
X-17931140Y43787762D01*
X-17931140Y43787762D02*
X-17740664Y43883000D01*
X-17740664Y43883000D02*
X-17645426Y43978239D01*
X-17645426Y43978239D02*
X-17550188Y44168715D01*
X-17550188Y44168715D02*
X-17550188Y44359191D01*
X-17550188Y44359191D02*
X-17645426Y44549667D01*
X-17645426Y44549667D02*
X-17740664Y44644905D01*
X-17740664Y44644905D02*
X-17931140Y44740143D01*
X-17931140Y44740143D02*
X-18312093Y44835381D01*
X-18312093Y44835381D02*
X-18502569Y44930620D01*
X-18502569Y44930620D02*
X-18597807Y45025858D01*
X-18597807Y45025858D02*
X-18693045Y45216334D01*
X-18693045Y45216334D02*
X-18693045Y45406810D01*
X-18693045Y45406810D02*
X-18597807Y45597286D01*
X-18597807Y45597286D02*
X-18502569Y45692524D01*
X-18502569Y45692524D02*
X-18312093Y45787762D01*
X-18312093Y45787762D02*
X-17835902Y45787762D01*
X-17835902Y45787762D02*
X-17550188Y45692524D01*
X-15550188Y43978239D02*
X-15645426Y43883000D01*
X-15645426Y43883000D02*
X-15931140Y43787762D01*
X-15931140Y43787762D02*
X-16121616Y43787762D01*
X-16121616Y43787762D02*
X-16407331Y43883000D01*
X-16407331Y43883000D02*
X-16597807Y44073477D01*
X-16597807Y44073477D02*
X-16693045Y44263953D01*
X-16693045Y44263953D02*
X-16788283Y44644905D01*
X-16788283Y44644905D02*
X-16788283Y44930620D01*
X-16788283Y44930620D02*
X-16693045Y45311572D01*
X-16693045Y45311572D02*
X-16597807Y45502048D01*
X-16597807Y45502048D02*
X-16407331Y45692524D01*
X-16407331Y45692524D02*
X-16121616Y45787762D01*
X-16121616Y45787762D02*
X-15931140Y45787762D01*
X-15931140Y45787762D02*
X-15645426Y45692524D01*
X-15645426Y45692524D02*
X-15550188Y45597286D01*
X-14312093Y45787762D02*
X-13931140Y45787762D01*
X-13931140Y45787762D02*
X-13740664Y45692524D01*
X-13740664Y45692524D02*
X-13550188Y45502048D01*
X-13550188Y45502048D02*
X-13454950Y45121096D01*
X-13454950Y45121096D02*
X-13454950Y44454429D01*
X-13454950Y44454429D02*
X-13550188Y44073477D01*
X-13550188Y44073477D02*
X-13740664Y43883000D01*
X-13740664Y43883000D02*
X-13931140Y43787762D01*
X-13931140Y43787762D02*
X-14312093Y43787762D01*
X-14312093Y43787762D02*
X-14502569Y43883000D01*
X-14502569Y43883000D02*
X-14693045Y44073477D01*
X-14693045Y44073477D02*
X-14788283Y44454429D01*
X-14788283Y44454429D02*
X-14788283Y45121096D01*
X-14788283Y45121096D02*
X-14693045Y45502048D01*
X-14693045Y45502048D02*
X-14502569Y45692524D01*
X-14502569Y45692524D02*
X-14312093Y45787762D01*
X-11454950Y43787762D02*
X-12121617Y44740143D01*
X-12597807Y43787762D02*
X-12597807Y45787762D01*
X-12597807Y45787762D02*
X-11835902Y45787762D01*
X-11835902Y45787762D02*
X-11645426Y45692524D01*
X-11645426Y45692524D02*
X-11550188Y45597286D01*
X-11550188Y45597286D02*
X-11454950Y45406810D01*
X-11454950Y45406810D02*
X-11454950Y45121096D01*
X-11454950Y45121096D02*
X-11550188Y44930620D01*
X-11550188Y44930620D02*
X-11645426Y44835381D01*
X-11645426Y44835381D02*
X-11835902Y44740143D01*
X-11835902Y44740143D02*
X-12597807Y44740143D01*
X-10597807Y44835381D02*
X-9931140Y44835381D01*
X-9645426Y43787762D02*
X-10597807Y43787762D01*
X-10597807Y43787762D02*
X-10597807Y45787762D01*
X-10597807Y45787762D02*
X-9645426Y45787762D01*
D12*
X-7100000Y44700000D02*
X172700000Y44700000D01*
D11*
X-23073997Y90737762D02*
X-22407331Y88737762D01*
X-22407331Y88737762D02*
X-21740664Y90737762D01*
X-21073997Y89499667D02*
X-19550187Y89499667D01*
X-18693045Y88833000D02*
X-18407331Y88737762D01*
X-18407331Y88737762D02*
X-17931140Y88737762D01*
X-17931140Y88737762D02*
X-17740664Y88833000D01*
X-17740664Y88833000D02*
X-17645426Y88928239D01*
X-17645426Y88928239D02*
X-17550188Y89118715D01*
X-17550188Y89118715D02*
X-17550188Y89309191D01*
X-17550188Y89309191D02*
X-17645426Y89499667D01*
X-17645426Y89499667D02*
X-17740664Y89594905D01*
X-17740664Y89594905D02*
X-17931140Y89690143D01*
X-17931140Y89690143D02*
X-18312093Y89785381D01*
X-18312093Y89785381D02*
X-18502569Y89880620D01*
X-18502569Y89880620D02*
X-18597807Y89975858D01*
X-18597807Y89975858D02*
X-18693045Y90166334D01*
X-18693045Y90166334D02*
X-18693045Y90356810D01*
X-18693045Y90356810D02*
X-18597807Y90547286D01*
X-18597807Y90547286D02*
X-18502569Y90642524D01*
X-18502569Y90642524D02*
X-18312093Y90737762D01*
X-18312093Y90737762D02*
X-17835902Y90737762D01*
X-17835902Y90737762D02*
X-17550188Y90642524D01*
X-15550188Y88928239D02*
X-15645426Y88833000D01*
X-15645426Y88833000D02*
X-15931140Y88737762D01*
X-15931140Y88737762D02*
X-16121616Y88737762D01*
X-16121616Y88737762D02*
X-16407331Y88833000D01*
X-16407331Y88833000D02*
X-16597807Y89023477D01*
X-16597807Y89023477D02*
X-16693045Y89213953D01*
X-16693045Y89213953D02*
X-16788283Y89594905D01*
X-16788283Y89594905D02*
X-16788283Y89880620D01*
X-16788283Y89880620D02*
X-16693045Y90261572D01*
X-16693045Y90261572D02*
X-16597807Y90452048D01*
X-16597807Y90452048D02*
X-16407331Y90642524D01*
X-16407331Y90642524D02*
X-16121616Y90737762D01*
X-16121616Y90737762D02*
X-15931140Y90737762D01*
X-15931140Y90737762D02*
X-15645426Y90642524D01*
X-15645426Y90642524D02*
X-15550188Y90547286D01*
X-14312093Y90737762D02*
X-13931140Y90737762D01*
X-13931140Y90737762D02*
X-13740664Y90642524D01*
X-13740664Y90642524D02*
X-13550188Y90452048D01*
X-13550188Y90452048D02*
X-13454950Y90071096D01*
X-13454950Y90071096D02*
X-13454950Y89404429D01*
X-13454950Y89404429D02*
X-13550188Y89023477D01*
X-13550188Y89023477D02*
X-13740664Y88833000D01*
X-13740664Y88833000D02*
X-13931140Y88737762D01*
X-13931140Y88737762D02*
X-14312093Y88737762D01*
X-14312093Y88737762D02*
X-14502569Y88833000D01*
X-14502569Y88833000D02*
X-14693045Y89023477D01*
X-14693045Y89023477D02*
X-14788283Y89404429D01*
X-14788283Y89404429D02*
X-14788283Y90071096D01*
X-14788283Y90071096D02*
X-14693045Y90452048D01*
X-14693045Y90452048D02*
X-14502569Y90642524D01*
X-14502569Y90642524D02*
X-14312093Y90737762D01*
X-11454950Y88737762D02*
X-12121617Y89690143D01*
X-12597807Y88737762D02*
X-12597807Y90737762D01*
X-12597807Y90737762D02*
X-11835902Y90737762D01*
X-11835902Y90737762D02*
X-11645426Y90642524D01*
X-11645426Y90642524D02*
X-11550188Y90547286D01*
X-11550188Y90547286D02*
X-11454950Y90356810D01*
X-11454950Y90356810D02*
X-11454950Y90071096D01*
X-11454950Y90071096D02*
X-11550188Y89880620D01*
X-11550188Y89880620D02*
X-11645426Y89785381D01*
X-11645426Y89785381D02*
X-11835902Y89690143D01*
X-11835902Y89690143D02*
X-12597807Y89690143D01*
X-10597807Y89785381D02*
X-9931140Y89785381D01*
X-9645426Y88737762D02*
X-10597807Y88737762D01*
X-10597807Y88737762D02*
X-10597807Y90737762D01*
X-10597807Y90737762D02*
X-9645426Y90737762D01*
D12*
X-7100000Y89650000D02*
X172700000Y89650000D01*
D11*
X-23073997Y135687761D02*
X-22407331Y133687761D01*
X-22407331Y133687761D02*
X-21740664Y135687761D01*
X-21073997Y134449666D02*
X-19550187Y134449666D01*
X-18693045Y133783000D02*
X-18407331Y133687761D01*
X-18407331Y133687761D02*
X-17931140Y133687761D01*
X-17931140Y133687761D02*
X-17740664Y133783000D01*
X-17740664Y133783000D02*
X-17645426Y133878238D01*
X-17645426Y133878238D02*
X-17550188Y134068714D01*
X-17550188Y134068714D02*
X-17550188Y134259190D01*
X-17550188Y134259190D02*
X-17645426Y134449666D01*
X-17645426Y134449666D02*
X-17740664Y134544904D01*
X-17740664Y134544904D02*
X-17931140Y134640142D01*
X-17931140Y134640142D02*
X-18312093Y134735380D01*
X-18312093Y134735380D02*
X-18502569Y134830619D01*
X-18502569Y134830619D02*
X-18597807Y134925857D01*
X-18597807Y134925857D02*
X-18693045Y135116333D01*
X-18693045Y135116333D02*
X-18693045Y135306809D01*
X-18693045Y135306809D02*
X-18597807Y135497285D01*
X-18597807Y135497285D02*
X-18502569Y135592523D01*
X-18502569Y135592523D02*
X-18312093Y135687761D01*
X-18312093Y135687761D02*
X-17835902Y135687761D01*
X-17835902Y135687761D02*
X-17550188Y135592523D01*
X-15550188Y133878238D02*
X-15645426Y133783000D01*
X-15645426Y133783000D02*
X-15931140Y133687761D01*
X-15931140Y133687761D02*
X-16121616Y133687761D01*
X-16121616Y133687761D02*
X-16407331Y133783000D01*
X-16407331Y133783000D02*
X-16597807Y133973476D01*
X-16597807Y133973476D02*
X-16693045Y134163952D01*
X-16693045Y134163952D02*
X-16788283Y134544904D01*
X-16788283Y134544904D02*
X-16788283Y134830619D01*
X-16788283Y134830619D02*
X-16693045Y135211571D01*
X-16693045Y135211571D02*
X-16597807Y135402047D01*
X-16597807Y135402047D02*
X-16407331Y135592523D01*
X-16407331Y135592523D02*
X-16121616Y135687761D01*
X-16121616Y135687761D02*
X-15931140Y135687761D01*
X-15931140Y135687761D02*
X-15645426Y135592523D01*
X-15645426Y135592523D02*
X-15550188Y135497285D01*
X-14312093Y135687761D02*
X-13931140Y135687761D01*
X-13931140Y135687761D02*
X-13740664Y135592523D01*
X-13740664Y135592523D02*
X-13550188Y135402047D01*
X-13550188Y135402047D02*
X-13454950Y135021095D01*
X-13454950Y135021095D02*
X-13454950Y134354428D01*
X-13454950Y134354428D02*
X-13550188Y133973476D01*
X-13550188Y133973476D02*
X-13740664Y133783000D01*
X-13740664Y133783000D02*
X-13931140Y133687761D01*
X-13931140Y133687761D02*
X-14312093Y133687761D01*
X-14312093Y133687761D02*
X-14502569Y133783000D01*
X-14502569Y133783000D02*
X-14693045Y133973476D01*
X-14693045Y133973476D02*
X-14788283Y134354428D01*
X-14788283Y134354428D02*
X-14788283Y135021095D01*
X-14788283Y135021095D02*
X-14693045Y135402047D01*
X-14693045Y135402047D02*
X-14502569Y135592523D01*
X-14502569Y135592523D02*
X-14312093Y135687761D01*
X-11454950Y133687761D02*
X-12121617Y134640142D01*
X-12597807Y133687761D02*
X-12597807Y135687761D01*
X-12597807Y135687761D02*
X-11835902Y135687761D01*
X-11835902Y135687761D02*
X-11645426Y135592523D01*
X-11645426Y135592523D02*
X-11550188Y135497285D01*
X-11550188Y135497285D02*
X-11454950Y135306809D01*
X-11454950Y135306809D02*
X-11454950Y135021095D01*
X-11454950Y135021095D02*
X-11550188Y134830619D01*
X-11550188Y134830619D02*
X-11645426Y134735380D01*
X-11645426Y134735380D02*
X-11835902Y134640142D01*
X-11835902Y134640142D02*
X-12597807Y134640142D01*
X-10597807Y134735380D02*
X-9931140Y134735380D01*
X-9645426Y133687761D02*
X-10597807Y133687761D01*
X-10597807Y133687761D02*
X-10597807Y135687761D01*
X-10597807Y135687761D02*
X-9645426Y135687761D01*
D12*
X-7100000Y134600000D02*
X172700000Y134600000D01*
D11*
X164762238Y143804949D02*
X166762238Y144471615D01*
X166762238Y144471615D02*
X164762238Y145138282D01*
X166000333Y145804949D02*
X166000333Y147328759D01*
X166667000Y148185901D02*
X166762238Y148471615D01*
X166762238Y148471615D02*
X166762238Y148947806D01*
X166762238Y148947806D02*
X166667000Y149138282D01*
X166667000Y149138282D02*
X166571761Y149233520D01*
X166571761Y149233520D02*
X166381285Y149328758D01*
X166381285Y149328758D02*
X166190809Y149328758D01*
X166190809Y149328758D02*
X166000333Y149233520D01*
X166000333Y149233520D02*
X165905095Y149138282D01*
X165905095Y149138282D02*
X165809857Y148947806D01*
X165809857Y148947806D02*
X165714619Y148566853D01*
X165714619Y148566853D02*
X165619380Y148376377D01*
X165619380Y148376377D02*
X165524142Y148281139D01*
X165524142Y148281139D02*
X165333666Y148185901D01*
X165333666Y148185901D02*
X165143190Y148185901D01*
X165143190Y148185901D02*
X164952714Y148281139D01*
X164952714Y148281139D02*
X164857476Y148376377D01*
X164857476Y148376377D02*
X164762238Y148566853D01*
X164762238Y148566853D02*
X164762238Y149043044D01*
X164762238Y149043044D02*
X164857476Y149328758D01*
X166571761Y151328758D02*
X166667000Y151233520D01*
X166667000Y151233520D02*
X166762238Y150947806D01*
X166762238Y150947806D02*
X166762238Y150757330D01*
X166762238Y150757330D02*
X166667000Y150471615D01*
X166667000Y150471615D02*
X166476523Y150281139D01*
X166476523Y150281139D02*
X166286047Y150185901D01*
X166286047Y150185901D02*
X165905095Y150090663D01*
X165905095Y150090663D02*
X165619380Y150090663D01*
X165619380Y150090663D02*
X165238428Y150185901D01*
X165238428Y150185901D02*
X165047952Y150281139D01*
X165047952Y150281139D02*
X164857476Y150471615D01*
X164857476Y150471615D02*
X164762238Y150757330D01*
X164762238Y150757330D02*
X164762238Y150947806D01*
X164762238Y150947806D02*
X164857476Y151233520D01*
X164857476Y151233520D02*
X164952714Y151328758D01*
X164762238Y152566853D02*
X164762238Y152947806D01*
X164762238Y152947806D02*
X164857476Y153138282D01*
X164857476Y153138282D02*
X165047952Y153328758D01*
X165047952Y153328758D02*
X165428904Y153423996D01*
X165428904Y153423996D02*
X166095571Y153423996D01*
X166095571Y153423996D02*
X166476523Y153328758D01*
X166476523Y153328758D02*
X166667000Y153138282D01*
X166667000Y153138282D02*
X166762238Y152947806D01*
X166762238Y152947806D02*
X166762238Y152566853D01*
X166762238Y152566853D02*
X166667000Y152376377D01*
X166667000Y152376377D02*
X166476523Y152185901D01*
X166476523Y152185901D02*
X166095571Y152090663D01*
X166095571Y152090663D02*
X165428904Y152090663D01*
X165428904Y152090663D02*
X165047952Y152185901D01*
X165047952Y152185901D02*
X164857476Y152376377D01*
X164857476Y152376377D02*
X164762238Y152566853D01*
X166762238Y155423996D02*
X165809857Y154757329D01*
X166762238Y154281139D02*
X164762238Y154281139D01*
X164762238Y154281139D02*
X164762238Y155043044D01*
X164762238Y155043044D02*
X164857476Y155233520D01*
X164857476Y155233520D02*
X164952714Y155328758D01*
X164952714Y155328758D02*
X165143190Y155423996D01*
X165143190Y155423996D02*
X165428904Y155423996D01*
X165428904Y155423996D02*
X165619380Y155328758D01*
X165619380Y155328758D02*
X165714619Y155233520D01*
X165714619Y155233520D02*
X165809857Y155043044D01*
X165809857Y155043044D02*
X165809857Y154281139D01*
X165714619Y156281139D02*
X165714619Y156947806D01*
X166762238Y157233520D02*
X166762238Y156281139D01*
X166762238Y156281139D02*
X164762238Y156281139D01*
X164762238Y156281139D02*
X164762238Y157233520D01*
D12*
X165850000Y141450000D02*
X165850000Y-7100000D01*
D11*
X81712238Y143804949D02*
X83712238Y144471615D01*
X83712238Y144471615D02*
X81712238Y145138282D01*
X82950333Y145804949D02*
X82950333Y147328759D01*
X83617000Y148185901D02*
X83712238Y148471615D01*
X83712238Y148471615D02*
X83712238Y148947806D01*
X83712238Y148947806D02*
X83617000Y149138282D01*
X83617000Y149138282D02*
X83521761Y149233520D01*
X83521761Y149233520D02*
X83331285Y149328758D01*
X83331285Y149328758D02*
X83140809Y149328758D01*
X83140809Y149328758D02*
X82950333Y149233520D01*
X82950333Y149233520D02*
X82855095Y149138282D01*
X82855095Y149138282D02*
X82759857Y148947806D01*
X82759857Y148947806D02*
X82664619Y148566853D01*
X82664619Y148566853D02*
X82569380Y148376377D01*
X82569380Y148376377D02*
X82474142Y148281139D01*
X82474142Y148281139D02*
X82283666Y148185901D01*
X82283666Y148185901D02*
X82093190Y148185901D01*
X82093190Y148185901D02*
X81902714Y148281139D01*
X81902714Y148281139D02*
X81807476Y148376377D01*
X81807476Y148376377D02*
X81712238Y148566853D01*
X81712238Y148566853D02*
X81712238Y149043044D01*
X81712238Y149043044D02*
X81807476Y149328758D01*
X83521761Y151328758D02*
X83617000Y151233520D01*
X83617000Y151233520D02*
X83712238Y150947806D01*
X83712238Y150947806D02*
X83712238Y150757330D01*
X83712238Y150757330D02*
X83617000Y150471615D01*
X83617000Y150471615D02*
X83426523Y150281139D01*
X83426523Y150281139D02*
X83236047Y150185901D01*
X83236047Y150185901D02*
X82855095Y150090663D01*
X82855095Y150090663D02*
X82569380Y150090663D01*
X82569380Y150090663D02*
X82188428Y150185901D01*
X82188428Y150185901D02*
X81997952Y150281139D01*
X81997952Y150281139D02*
X81807476Y150471615D01*
X81807476Y150471615D02*
X81712238Y150757330D01*
X81712238Y150757330D02*
X81712238Y150947806D01*
X81712238Y150947806D02*
X81807476Y151233520D01*
X81807476Y151233520D02*
X81902714Y151328758D01*
X81712238Y152566853D02*
X81712238Y152947806D01*
X81712238Y152947806D02*
X81807476Y153138282D01*
X81807476Y153138282D02*
X81997952Y153328758D01*
X81997952Y153328758D02*
X82378904Y153423996D01*
X82378904Y153423996D02*
X83045571Y153423996D01*
X83045571Y153423996D02*
X83426523Y153328758D01*
X83426523Y153328758D02*
X83617000Y153138282D01*
X83617000Y153138282D02*
X83712238Y152947806D01*
X83712238Y152947806D02*
X83712238Y152566853D01*
X83712238Y152566853D02*
X83617000Y152376377D01*
X83617000Y152376377D02*
X83426523Y152185901D01*
X83426523Y152185901D02*
X83045571Y152090663D01*
X83045571Y152090663D02*
X82378904Y152090663D01*
X82378904Y152090663D02*
X81997952Y152185901D01*
X81997952Y152185901D02*
X81807476Y152376377D01*
X81807476Y152376377D02*
X81712238Y152566853D01*
X83712238Y155423996D02*
X82759857Y154757329D01*
X83712238Y154281139D02*
X81712238Y154281139D01*
X81712238Y154281139D02*
X81712238Y155043044D01*
X81712238Y155043044D02*
X81807476Y155233520D01*
X81807476Y155233520D02*
X81902714Y155328758D01*
X81902714Y155328758D02*
X82093190Y155423996D01*
X82093190Y155423996D02*
X82378904Y155423996D01*
X82378904Y155423996D02*
X82569380Y155328758D01*
X82569380Y155328758D02*
X82664619Y155233520D01*
X82664619Y155233520D02*
X82759857Y155043044D01*
X82759857Y155043044D02*
X82759857Y154281139D01*
X82664619Y156281139D02*
X82664619Y156947806D01*
X83712238Y157233520D02*
X83712238Y156281139D01*
X83712238Y156281139D02*
X81712238Y156281139D01*
X81712238Y156281139D02*
X81712238Y157233520D01*
D12*
X82800000Y141450000D02*
X82800000Y-7100000D01*
D11*
X-1337762Y143804949D02*
X662238Y144471615D01*
X662238Y144471615D02*
X-1337762Y145138282D01*
X-99667Y145804949D02*
X-99667Y147328759D01*
X567000Y148185901D02*
X662238Y148471615D01*
X662238Y148471615D02*
X662238Y148947806D01*
X662238Y148947806D02*
X567000Y149138282D01*
X567000Y149138282D02*
X471761Y149233520D01*
X471761Y149233520D02*
X281285Y149328758D01*
X281285Y149328758D02*
X90809Y149328758D01*
X90809Y149328758D02*
X-99667Y149233520D01*
X-99667Y149233520D02*
X-194905Y149138282D01*
X-194905Y149138282D02*
X-290143Y148947806D01*
X-290143Y148947806D02*
X-385381Y148566853D01*
X-385381Y148566853D02*
X-480620Y148376377D01*
X-480620Y148376377D02*
X-575858Y148281139D01*
X-575858Y148281139D02*
X-766334Y148185901D01*
X-766334Y148185901D02*
X-956810Y148185901D01*
X-956810Y148185901D02*
X-1147286Y148281139D01*
X-1147286Y148281139D02*
X-1242524Y148376377D01*
X-1242524Y148376377D02*
X-1337762Y148566853D01*
X-1337762Y148566853D02*
X-1337762Y149043044D01*
X-1337762Y149043044D02*
X-1242524Y149328758D01*
X471761Y151328758D02*
X567000Y151233520D01*
X567000Y151233520D02*
X662238Y150947806D01*
X662238Y150947806D02*
X662238Y150757330D01*
X662238Y150757330D02*
X567000Y150471615D01*
X567000Y150471615D02*
X376523Y150281139D01*
X376523Y150281139D02*
X186047Y150185901D01*
X186047Y150185901D02*
X-194905Y150090663D01*
X-194905Y150090663D02*
X-480620Y150090663D01*
X-480620Y150090663D02*
X-861572Y150185901D01*
X-861572Y150185901D02*
X-1052048Y150281139D01*
X-1052048Y150281139D02*
X-1242524Y150471615D01*
X-1242524Y150471615D02*
X-1337762Y150757330D01*
X-1337762Y150757330D02*
X-1337762Y150947806D01*
X-1337762Y150947806D02*
X-1242524Y151233520D01*
X-1242524Y151233520D02*
X-1147286Y151328758D01*
X-1337762Y152566853D02*
X-1337762Y152947806D01*
X-1337762Y152947806D02*
X-1242524Y153138282D01*
X-1242524Y153138282D02*
X-1052048Y153328758D01*
X-1052048Y153328758D02*
X-671096Y153423996D01*
X-671096Y153423996D02*
X-4429Y153423996D01*
X-4429Y153423996D02*
X376523Y153328758D01*
X376523Y153328758D02*
X567000Y153138282D01*
X567000Y153138282D02*
X662238Y152947806D01*
X662238Y152947806D02*
X662238Y152566853D01*
X662238Y152566853D02*
X567000Y152376377D01*
X567000Y152376377D02*
X376523Y152185901D01*
X376523Y152185901D02*
X-4429Y152090663D01*
X-4429Y152090663D02*
X-671096Y152090663D01*
X-671096Y152090663D02*
X-1052048Y152185901D01*
X-1052048Y152185901D02*
X-1242524Y152376377D01*
X-1242524Y152376377D02*
X-1337762Y152566853D01*
X662238Y155423996D02*
X-290143Y154757329D01*
X662238Y154281139D02*
X-1337762Y154281139D01*
X-1337762Y154281139D02*
X-1337762Y155043044D01*
X-1337762Y155043044D02*
X-1242524Y155233520D01*
X-1242524Y155233520D02*
X-1147286Y155328758D01*
X-1147286Y155328758D02*
X-956810Y155423996D01*
X-956810Y155423996D02*
X-671096Y155423996D01*
X-671096Y155423996D02*
X-480620Y155328758D01*
X-480620Y155328758D02*
X-385381Y155233520D01*
X-385381Y155233520D02*
X-290143Y155043044D01*
X-290143Y155043044D02*
X-290143Y154281139D01*
X-385381Y156281139D02*
X-385381Y156947806D01*
X662238Y157233520D02*
X662238Y156281139D01*
X662238Y156281139D02*
X-1337762Y156281139D01*
X-1337762Y156281139D02*
X-1337762Y157233520D01*
D12*
X-250000Y141450000D02*
X-250000Y-7100000D01*
M02*
